<svg><metadata>Created by FontForge 20090622 at Sun Jul 10 02:21:06 2016 By deploy user Typeface and data Â© 1995-1999 Microsoft Corporation. All Rights Reserved.</metadata><defs><font id="Tahoma" horiz-adv-x="0"><font-face x-height="1117" ascent="1638" bbox="-1228 -425 2741 2118" cap-height="1489" descent="-410" font-family="Tahoma" font-stretch="normal" font-weight="400" panose-1="2 11 6 4 3 5 4 4 2 4" underline-position="-105" underline-thickness="130" unicode-range="U+0020-U+FFFC" units-per-em="2048"/><glyph d="M362.5 1424.5q-32.5 17.5 -45.5 42.5q-9 -38 -49.5 -72.5t-99.5 -34.5q-76 0 -121 44t-45 124q0 27 1.5 57.5t2.5 43.5h96v-7l-3.5 -39t-2.5 -53q0 -36 18.5 -56t53.5 -20q43 0 68.5 38t25.5 114v70h94v-60q0 -57 22.5 -85.5t57.5 -28.5q41 0 63.5 27.5t22.5 84.5 q0 34 -2.5 58t-3.5 36v7h94q1 -10 3.5 -31t2.5 -72q0 -98 -49.5 -151.5t-130.5 -53.5q-41 0 -73.5 17.5zM598 2019l-573 -100v100l573 97v-97zM598 1819l-573 -101v101l573 96v-96z" glyph-name="afii62881" horiz-adv-x="618" unicode="ًّ"/><glyph d="M359.5 1380.5q-32.5 17.5 -45.5 42.5q-9 -38 -49.5 -72.5t-99.5 -34.5q-76 0 -121 44t-45 124q0 27 1.5 57.5t2.5 43.5h96v-7l-3.5 -39t-2.5 -53q0 -36 18.5 -56t53.5 -20q43 0 68.5 38t25.5 114v70h94v-60q0 -57 22.5 -85.5t57.5 -28.5q41 0 63.5 27.5t22.5 84.5 q0 34 -2.5 58t-3.5 36v7h94q1 -10 3.5 -31t2.5 -72q0 -98 -49.5 -151.5t-130.5 -53.5q-41 0 -73.5 17.5zM352 1804q-51 16 -90 57.5t-39 98.5q0 69 46.5 113.5t125.5 44.5q68 0 119 -45.5t51 -116.5q0 -34 -18 -70.5t-35 -50.5l63 -12v-86l-126 28q-93 -53 -198 -81 t-202 -35l4 36q3 36 6 78q2 33 5.5 78t3.5 55q0 13 -5 22t-24 9q-18 0 -42 -1.5t-32 -2.5v96q6 0 45 3t64 3q32 0 55 -18.5t23 -50.5q0 -46 -7 -128l-8 -83q42 6 99 18.5t116 40.5zM428 1860q21 18 34 40.5t13 57.5q0 29 -23.5 47t-52.5 18q-35 0 -58.5 -16.5t-23.5 -48.5 q0 -34 28.5 -59t82.5 -39z" arabic-form="isolated" glyph-name="afii62882" horiz-adv-x="613" unicode="ٌّ"/><glyph d="M362.5 1827.5q-32.5 17.5 -45.5 42.5q-9 -38 -49.5 -72.5t-99.5 -34.5q-76 0 -121 44t-45 124q0 27 1.5 57.5t2.5 43.5h96v-7l-3.5 -39t-2.5 -53q0 -36 18.5 -56t53.5 -20q43 0 68.5 38t25.5 114v70h94v-60q0 -57 22.5 -85.5t57.5 -28.5q41 0 63.5 27.5t22.5 84.5 q0 34 -2.5 58t-3.5 36v7h94q1 -10 3.5 -31t2.5 -72q0 -98 -49.5 -151.5t-130.5 -53.5q-41 0 -73.5 17.5zM598 1652l-573 -97v100l573 97v-100zM598 1450l-573 -97v100l573 97v-100z" arabic-form="isolated" glyph-name="afii62883" horiz-adv-x="618" unicode="ٍّ"/><glyph d="M360.5 1635.5q-32.5 17.5 -45.5 42.5q-9 -38 -49.5 -72.5t-99.5 -34.5q-76 0 -121 44t-45 124q0 27 1.5 57.5t2.5 43.5h96v-7l-3.5 -39t-2.5 -53q0 -36 18.5 -56t53.5 -20q43 0 68.5 38t25.5 114v70h94v-60q0 -57 22.5 -85.5t57.5 -28.5q41 0 63.5 27.5t22.5 84.5 q0 34 -2.5 58t-3.5 36v7h94q1 -10 3.5 -31t2.5 -72q0 -98 -49.5 -151.5t-130.5 -53.5q-41 0 -73.5 17.5zM594 2017l-574 -100v100l574 97v-97z" arabic-form="isolated" glyph-name="afii62884" horiz-adv-x="614" unicode="َّ"/><glyph d="M360.5 1370.5q-32.5 17.5 -45.5 42.5q-9 -38 -49.5 -72.5t-99.5 -34.5q-76 0 -121 44t-45 124q0 27 1.5 57.5t2.5 43.5h96v-7l-3.5 -39t-2.5 -53q0 -36 18.5 -56t53.5 -20q43 0 68.5 38t25.5 114v70h94v-60q0 -57 22.5 -85.5t57.5 -28.5q41 0 63.5 27.5t22.5 84.5 q0 34 -2.5 58t-3.5 36v7h94q1 -10 3.5 -31t2.5 -72q0 -98 -49.5 -151.5t-130.5 -53.5q-41 0 -73.5 17.5zM557 1737l-127 28q-91 -52 -180.5 -79t-188.5 -33v88q76 5 141.5 18.5t131.5 44.5q-51 16 -90 57t-39 99q0 69 46 113.5t126 44.5q68 0 119 -45.5t51 -116.5 q0 -34 -18.5 -70.5t-34.5 -50.5l63 -12v-86zM410 1860q20 17 33.5 40t13.5 58q0 29 -23.5 47t-52.5 18q-35 0 -58.5 -16.5t-23.5 -48.5q0 -34 28.5 -59t82.5 -39z" arabic-form="isolated" glyph-name="afii62885" horiz-adv-x="614" unicode="ُّ"/><glyph d="M360.5 1825.5q-32.5 17.5 -45.5 42.5q-9 -38 -49.5 -72.5t-99.5 -34.5q-76 0 -121 44t-45 124q0 27 1.5 57.5t2.5 43.5h96v-7l-3.5 -39t-2.5 -53q0 -36 18.5 -56t53.5 -20q43 0 68.5 38t25.5 114v70h94v-60q0 -57 22.5 -85.5t57.5 -28.5q41 0 63.5 27.5t22.5 84.5 q0 34 -2.5 58t-3.5 36v7h94q1 -10 3.5 -31t2.5 -72q0 -98 -49.5 -151.5t-130.5 -53.5q-41 0 -73.5 17.5zM602 1673l-573 -98v100l573 97v-99z" arabic-form="isolated" glyph-name="afii62886" horiz-adv-x="614" unicode="ِّ"/><glyph d="M670 545v282q-199 -10 -296.5 -69t-97.5 -168q0 -64 42.5 -109t117.5 -45q69 0 130 35.5t104 73.5zM1255 143q-34 -63 -108.5 -103t-153.5 -40q-136 0 -229.5 106.5t-93.5 262.5q-45 -44 -108 -74.5t-150 -30.5q-146 0 -238 90t-92 234q0 188 146 281t442 108l168 8v-520 q0 -123 38 -200t117 -77t128.5 62t49.5 176v858h168v-858q0 -109 50 -173.5t135 -64.5q83 0 123.5 63.5t40.5 197.5v837h165v-833q0 -224 -82 -338.5t-245 -114.5q-86 0 -163 41t-108 102zM1270.5 1498.5q-32.5 17.5 -45.5 42.5q-9 -38 -49.5 -72.5t-99.5 -34.5 q-76 0 -121 44t-45 124q0 27 1.5 57.5t2.5 43.5h96v-7l-3.5 -39t-2.5 -53q0 -36 18.5 -56t53.5 -20q43 0 68.5 38t25.5 114v70h94v-60q0 -57 22.5 -85.5t57.5 -28.5q41 0 63.5 27.5t22.5 84.5q0 34 -2.5 58t-3.5 36v7h94q1 -10 3.5 -31t2.5 -72q0 -98 -49.5 -151.5 t-130.5 -53.5q-41 0 -73.5 17.5z" arabic-form="isolated" glyph-name="afii64184" horiz-adv-x="1987" unicode="ﻟﻠﻪ"/><glyph d="M1124 563q0 -127 -53 -233.5t-136 -177.5q-90 -76 -197 -114t-216 -38q-99 0 -185.5 5.5t-100.5 6.5v199h10q30 -8 118 -15.5t160 -7.5q32 0 50 6.5l18 6.5l-539 1280h193l516 -1219q82 34 139 131t57 182v981h166v-993zM432 1649q-19 -15 -57.5 -34.5t-89.5 -19.5 q-39 0 -115.5 31t-114.5 31q-33 0 -79 -25t-68 -39v101q17 14 62.5 35.5t84.5 21.5q35 0 113.5 -30.5t116.5 -30.5q43 0 88.5 23t58.5 34v-98z" arabic-form="isolated" glyph-name="afii62834" horiz-adv-x="1247" unicode="ﻟﺂ"/><glyph d="M1337 0q-116 0 -200 61.5t-121 184.5q-89 -117 -220 -181.5t-274 -64.5q-99 0 -185.5 5.5t-100.5 6.5v199h10q30 -8 118 -15.5t160 -7.5q32 0 50 6.5l18 6.5l-539 1280h193l516 -1219q82 34 139 131t57 182v981h166v-993q0 -75 8 -133.5t35 -119.5q23 -53 64 -87.5 t102 -34.5h123v-188h-119zM1247 0zM432 1649q-19 -15 -57.5 -34.5t-89.5 -19.5q-39 0 -115.5 31t-114.5 31q-33 0 -79 -25t-68 -39v101q17 14 62.5 35.5t84.5 21.5q35 0 113.5 -30.5t116.5 -30.5q43 0 88.5 23t58.5 34v-98z" arabic-form="final" glyph-name="afii62835" horiz-adv-x="1454" unicode="ﻠﺂ"/><glyph d="M1124 563q0 -127 -53 -233.5t-136 -177.5q-90 -76 -197 -114t-216 -38q-99 0 -185.5 5.5t-100.5 6.5v199h10q30 -8 118 -15.5t160 -7.5q32 0 50 6.5l18 6.5l-539 1280h193l516 -1219q82 34 139 131t57 182v981h166v-993zM373 1596h-336v94h74q-24 13 -39.5 42t-15.5 60 q0 64 47 112t127 48q53 0 78.5 -6t35.5 -10v-101h-6q-14 6 -47.5 14.5t-58.5 8.5q-44 0 -66 -18t-22 -48q0 -45 46 -73.5t109 -28.5h74v-94z" arabic-form="isolated" glyph-name="afii62836" horiz-adv-x="1247" unicode="ﻟﺄ"/><glyph d="M1337 0q-116 0 -200 61.5t-121 184.5q-89 -117 -220 -181.5t-274 -64.5q-99 0 -185.5 5.5t-100.5 6.5v199h10q30 -8 118 -15.5t160 -7.5q32 0 50 6.5l18 6.5l-539 1280h193l516 -1219q82 34 139 131t57 182v981h166v-993q0 -75 8 -133.5t35 -119.5q23 -53 64 -87.5 t102 -34.5h123v-188h-119zM1247 0zM369 1596h-336v94h74q-24 13 -39.5 42t-15.5 60q0 64 47 112t127 48q53 0 78.5 -6t35.5 -10v-101h-6q-14 6 -47.5 14.5t-58.5 8.5q-44 0 -66 -18t-22 -48q0 -45 46 -73.5t109 -28.5h74v-94z" arabic-form="final" glyph-name="afii62837" horiz-adv-x="1454" unicode="ﻠﺄ"/><glyph d="M1124 563q0 -127 -53 -233.5t-136 -177.5q-90 -76 -197 -114t-216 -38q-99 0 -185.5 5.5t-100.5 6.5v199h10q30 -8 118 -15.5t160 -7.5q32 0 50 6.5l18 6.5l-539 1280h193l516 -1219q82 34 139 131t57 182v981h166v-993zM655 -423h-336v94h74q-24 13 -39.5 42t-15.5 60 q0 64 47 112t127 48q53 0 78.5 -6t35.5 -10v-101h-6q-14 6 -47.5 14.5t-58.5 8.5q-44 0 -66 -18t-22 -48q0 -45 46 -73.5t109 -28.5h74v-94z" arabic-form="isolated" glyph-name="afii62838" horiz-adv-x="1247" unicode="ﻟﺈ"/><glyph d="M1337 0q-116 0 -200 61.5t-121 184.5q-89 -117 -220 -181.5t-274 -64.5q-99 0 -185.5 5.5t-100.5 6.5v199h10q30 -8 118 -15.5t160 -7.5q32 0 50 6.5l18 6.5l-539 1280h193l516 -1219q82 34 139 131t57 182v981h166v-993q0 -75 8 -133.5t35 -119.5q23 -53 64 -87.5 t102 -34.5h123v-188h-119zM1247 0zM649 -423h-336v94h74q-24 13 -39.5 42t-15.5 60q0 64 47 112t127 48q53 0 78.5 -6t35.5 -10v-101h-6q-14 6 -47.5 14.5t-58.5 8.5q-44 0 -66 -18t-22 -48q0 -45 46 -73.5t109 -28.5h74v-94z" arabic-form="final" glyph-name="afii62839" horiz-adv-x="1454" unicode="ﻠﺈ"/><glyph d="M1124 563q0 -127 -53 -233.5t-136 -177.5q-90 -76 -197 -114t-216 -38q-99 0 -185.5 5.5t-100.5 6.5v199h10q30 -8 118 -15.5t160 -7.5q32 0 50 6.5l18 6.5l-539 1280h193l516 -1219q82 34 139 131t57 182v981h166v-993z" arabic-form="isolated" glyph-name="afii62840" horiz-adv-x="1247" unicode="ﻟﺎ"/><glyph d="M1337 0q-116 0 -200 61.5t-121 184.5q-89 -117 -220 -181.5t-274 -64.5q-99 0 -185.5 5.5t-100.5 6.5v199h10q30 -8 118 -15.5t160 -7.5q32 0 50 6.5l18 6.5l-539 1280h193l516 -1219q82 34 139 131t57 182v981h166v-993q0 -75 8 -133.5t35 -119.5q23 -53 64 -87.5 t102 -34.5h123v-188h-119zM1247 0z" arabic-form="final" glyph-name="afii62841" horiz-adv-x="1454" unicode="ﻠﺎ"/><glyph d="M1055 0h-187q-95 0 -188 26.5t-168 63.5q-83 -39 -164.5 -64.5t-193.5 -25.5h-177v188h181q78 0 127.5 11.5t60.5 13.5q-7 4 -30 18.5t-54 47.5q-32 33 -58 83t-26 113q0 153 91.5 256t236.5 103q138 0 235 -102t97 -255q0 -63 -24.5 -115t-56.5 -85q-31 -33 -52 -47.5 t-29 -18.5q18 -7 75.5 -15t112.5 -8h191v-188zM591 342q34 29 57.5 58.5t23.5 74.5q0 64 -46 116t-120 52q-69 0 -115.5 -50.5t-46.5 -117.5q0 -38 26.5 -72.5t56.5 -59.5q33 -27 54 -39.5t29 -16.5l30.5 17.5t50.5 37.5zM419 1022h-148v148h148v-148zM715 1022h-148v148 h148v-148zM567 1231h-148v148h148v-148z" arabic-form="medial" glyph-name="afii57369" horiz-adv-x="1032" unicode="ڤ"/><glyph d="M1878 0h-186q-95 0 -188 26.5t-169 63.5q-83 -39 -164.5 -64.5t-193.5 -25.5h-156q-365 0 -547 130t-182 372q0 92 8 142l9 56h163v-10q-2 -10 -8 -65t-6 -111q0 -71 28.5 -129.5t95.5 -102.5q72 -48 182.5 -71t256.5 -23h160q78 0 126.5 11l61.5 14l-30.5 19t-53.5 47 q-32 33 -58 83t-26 113q0 152 91 255.5t237 103.5q140 0 236 -103t96 -254q0 -63 -24.5 -115t-56.5 -85q-31 -33 -53.5 -48t-27.5 -18q17 -6 70 -14.5t119 -8.5h190v-188zM1414 342q34 29 57.5 58.5t23.5 74.5q0 64 -46 116t-120 52q-67 0 -114.5 -49.5t-47.5 -118.5 q0 -38 26.5 -72.5t56.5 -59.5q33 -27 54.5 -39.5l28.5 -16.5q6 3 29 16.5t52 38.5zM1255 1024h-148v148h148v-148zM1551 1024h-148v148h148v-148zM1403 1233h-148v148h148v-148z" arabic-form="final" glyph-name="afii57371" horiz-adv-x="1855" unicode="ڤ"/><glyph d="M635 966q53 -78 84 -193t31 -263q0 -127 -54.5 -225t-138.5 -159q-84 -63 -185 -94.5t-198 -31.5h-197v188h199q68 0 140 18t129 53q64 39 98.5 91.5t34.5 116.5q-26 -15 -72 -28t-84 -13q-89 0 -157.5 25t-116.5 72q-46 45 -68.5 101.5t-22.5 118.5q0 143 98.5 259 t219.5 116q73 0 141 -39t119 -113zM565 653q0 28 -12 74.5t-37 94.5q-26 50 -58.5 79t-70.5 29q-64 0 -111 -54t-47 -126q0 -59 55 -97.5t146 -38.5q36 0 71.5 10.5t63.5 28.5zM254 1281h-148v148h148v-148zM550 1281h-148v148h148v-148zM402 1490h-148v148h148v-148z" arabic-form="initial" glyph-name="afii57372" horiz-adv-x="840" unicode="ڤ"/><glyph d="M1086 199q110 23 183 71q68 45 97 103t29 129q0 31 -11 90.5l-16 85.5v10h172l13 -88.5t8 -110.5q0 -242 -181.5 -371.5t-554.5 -129.5q-368 0 -550.5 130t-182.5 371q0 55 8 110.5l13 88.5h172v-10l-16 -85.5t-11 -90.5q0 -71 28.5 -129.5t97.5 -102.5q73 -48 184 -71 t259 -23q149 0 259 23zM745 -214h-148v148h148v-148zM1041 -214h-148v148h148v-148zM893 -423h-148v148h148v-148z" arabic-form="isolated" glyph-name="afii57506" horiz-adv-x="1653" unicode="پ"/><glyph d="M1941 0h-139q-62 0 -136 33t-107 90q-42 -58 -121 -90.5t-189 -32.5h-424q-368 0 -550.5 130t-182.5 372q0 73 8.5 126t12.5 72h172v-10q-4 -15 -15.5 -75.5t-11.5 -100.5q0 -69 29.5 -129t96.5 -103q73 -48 184 -71t259 -23h261h116q140 0 205.5 59t65.5 179 q0 27 -5.5 60t-7.5 46v15h170q3 -18 6.5 -65.5t3.5 -63.5q0 -96 52 -163t153 -67h94v-188zM875 -214h-148v148h148v-148zM1171 -214h-148v148h148v-148zM1023 -423h-148v148h148v-148z" arabic-form="final" glyph-name="afii62958" horiz-adv-x="1919" unicode="پ"/><glyph d="M440 453q0 -213 -101 -333t-278 -120h-84v188h89q102 0 155 73t53 204v252h166v-264zM125 -214h-148v148h148v-148zM421 -214h-148v148h148v-148zM273 -423h-148v148h148v-148z" arabic-form="initial" glyph-name="afii62956" horiz-adv-x="573" unicode="پ"/><glyph d="M741 0h-139q-62 0 -136.5 33t-107.5 90q-35 -59 -105 -91t-136 -32h-140v188h95q90 0 146 62t56 176v121h168v-121q0 -108 56.5 -173t148.5 -65h94v-188zM237 -214h-148v148h148v-148zM533 -214h-148v148h148v-148zM385 -423h-148v148h148v-148z" arabic-form="medial" glyph-name="afii52957" horiz-adv-x="719" unicode="پ"/><glyph d="M1696 467q0 -142 -67 -235.5t-183 -146.5q-113 -51 -270.5 -74t-350.5 -23q-368 0 -550.5 130t-182.5 371q0 79 8 138t9 67h163v-10q-5 -31 -9.5 -86t-4.5 -96q0 -71 28.5 -129.5t97.5 -102.5q73 -48 184 -71t259 -23q348 0 522.5 66.5t174.5 206.5v12q-18 -11 -66 -26 t-90 -15q-168 0 -266 89.5t-98 227.5q0 144 98 259.5t219 115.5q169 0 272 -174.5t103 -470.5zM1511 647q0 28 -12 74.5t-37 94.5q-26 50 -58.5 79t-70.5 29q-73 0 -115 -58t-42 -123q0 -59 53.5 -97t146.5 -38q38 0 76 12t59 27zM1143 1282h-148v148h148v-148zM1439 1282 h-148v148h148v-148zM1291 1491h-148v148h148v-148z" arabic-form="isolated" glyph-name="afii57505" horiz-adv-x="1782" unicode="ڤ"/><glyph d="M1120 561h-30q-204 0 -354.5 -24.5t-264.5 -80.5q-107 -52 -166 -139.5t-59 -205.5q0 -158 114.5 -254.5t294.5 -96.5q136 0 245 31.5t190 83.5h10v-201q-88 -45 -185 -71.5t-258 -26.5q-255 0 -416 146.5t-161 390.5q0 116 56 222.5t179 188.5q101 68 229 104.5 t253 43.5q-122 57 -238 78.5t-278 21.5h-76v186h88q162 0 368 -64.5t386 -176.5h73v-156zM635 127h-148v148h148v-148zM931 127h-148v148h148v-148zM783 -82h-148v148h148v-148z" arabic-form="isolated" glyph-name="afii57507" horiz-adv-x="1247" unicode="چ"/><glyph d="M1456 0h-121q-163 0 -233 73t-70 242v246q-182 -3 -329 -31.5t-247 -81.5q-102 -54 -156 -138t-54 -199q0 -158 114.5 -254.5t294.5 -96.5q136 0 245 31.5t190 83.5h10v-201q-88 -45 -185 -71.5t-258 -26.5q-122 0 -227 35.5t-183 104.5t-122.5 169t-44.5 228 q0 118 56 223t179 188q101 68 229 104.5t253 43.5q-122 57 -238 78.5t-278 21.5h-76v186h88q162 0 368 -64.5t386 -176.5h170v-156h-56v-155q0 -56 5.5 -91t25.5 -67q19 -29 50.5 -44.5t88.5 -15.5h125v-188zM1120 717zM1247 0zM587 132h-148v148h148v-148zM883 132h-148 v148h148v-148zM735 -77h-148v148h148v-148z" arabic-form="final" glyph-name="afii62961" horiz-adv-x="1434" unicode="چ"/><glyph d="M1280 461q-247 -148 -633.5 -304.5t-562.5 -156.5h-107v188h111q139 0 389 85.5t428 177.5q-87 60 -275 119t-388 59h-117v186h127q184 0 403 -70t424 -198l201 102v-188zM873 -148h-148v148h148v-148zM1169 -148h-148v148h148v-148zM1021 -357h-148v148h148v-148z" arabic-form="initial" glyph-name="afii62959" horiz-adv-x="1350" unicode="چ"/><glyph d="M791 217q-220 -97 -410.5 -157t-296.5 -60h-107v188h111q139 0 389 85.5t428 177.5q-87 60 -275 119t-388 59h-117v186h127q184 0 403 -70t424 -198l201 102v-188q-68 -40 -154 -85.5t-180 -88.5q23 -44 67 -71.5t124 -27.5h278v-188h-274q-140 0 -230.5 52.5 t-119.5 164.5zM1350 0zM543 -214h-148v148h148v-148zM839 -214h-148v148h148v-148zM691 -423h-148v148h148v-148z" arabic-form="medial" glyph-name="afii62960" horiz-adv-x="1393" unicode="چ"/><glyph d="M659 186q0 -166 -75.5 -290.5t-226.5 -205.5q-120 -64 -248 -89t-218 -25v188q64 0 173 17.5t194 57.5q115 53 172 131.5t57 183.5q0 86 -33.5 175t-91.5 175v12h193q39 -71 71.5 -160t32.5 -170zM345 762h-148v148h148v-148zM641 762h-148v148h148v-148zM493 971h-148 v148h148v-148z" arabic-form="isolated" glyph-name="afii57508" horiz-adv-x="741" unicode="ژ"/><glyph d="M856 0h-78q-31 0 -69 9.5t-68 25.5q-37 -144 -130.5 -233.5t-207.5 -139.5q-104 -45 -212 -65.5t-200 -20.5v188q64 0 173 17.5t194 57.5q114 53 171.5 129.5t57.5 185.5q0 59 -16 117.5t-36 102.5t-40 77.5t-33 52.5v12h193q6 -11 30 -65l42 -97q38 -88 86 -127t110 -39 h33v-188zM659 186zM741 0zM320 762h-148v148h148v-148zM616 762h-148v148h148v-148zM468 971h-148v148h148v-148z" arabic-form="final" glyph-name="afii62962" horiz-adv-x="854" unicode="ژ"/><glyph d="M1278 188q122 0 172.5 44.5t50.5 109.5q0 45 -41.5 104.5t-161.5 157.5l-274 225q-46 39 -80.5 79.5t-34.5 88.5q0 61 40.5 108.5t180.5 115.5l642 309v-197l-560 -268q-32 -15 -72 -37.5t-40 -38.5q0 -18 42 -53.5l81 -67.5l266 -219q96 -79 137 -153.5t41 -151.5 q0 -69 -23 -134t-68 -109q-51 -50 -125.5 -75.5t-170.5 -25.5h-461q-366 0 -546.5 130t-180.5 372q0 78 9.5 131.5t11.5 66.5h172v-10q-6 -22 -16.5 -79t-10.5 -97q0 -71 28.5 -129.5t96.5 -102.5q67 -45 170.5 -69.5t265.5 -24.5h459z" arabic-form="isolated" glyph-name="afii57567" horiz-adv-x="1892" unicode="ک"/><glyph d="M2003 0h-139q-79 0 -154 28.5t-125 80.5q-51 -56 -126.5 -82.5t-176.5 -26.5h-463q-366 0 -546.5 130t-180.5 372q0 78 9.5 131.5t11.5 66.5h172v-10q-6 -22 -16.5 -79t-10.5 -97q0 -71 28.5 -129.5t96.5 -102.5q67 -45 170.5 -69.5t265.5 -24.5h461q113 0 168 41.5 t55 112.5q0 43 -54.5 105.5t-168.5 156.5l-274 225q-47 39 -81 79.5t-34 88.5q0 64 53 116.5t168 107.5l641 309v-197l-559 -268q-32 -15 -72.5 -37.5t-40.5 -38.5t37.5 -49l85.5 -72l266 -219q109 -89 154 -158.5t45 -146.5v-8.5v-5.5q0 -65 53.5 -103.5t137.5 -38.5h143 v-188zM1892 0z" arabic-form="final" glyph-name="afii62964" horiz-adv-x="1982" unicode="ک"/><glyph d="M862 1333l-559 -268q-32 -15 -72.5 -37.5t-40.5 -38.5t37.5 -49l85.5 -72l267 -219q96 -79 137 -153.5t41 -151.5q0 -69 -23 -134t-68 -109q-51 -50 -125.5 -75.5t-170.5 -25.5h-394v188h392q111 0 167 40.5t56 113.5q0 45 -41.5 104.5t-161.5 157.5l-274 225 q-47 39 -81 79.5t-34 88.5q0 70 56.5 121t164.5 103l641 309v-197z" arabic-form="initial" glyph-name="afii52305" horiz-adv-x="983" unicode="ک"/><glyph d="M1112 0h-139q-79 0 -154 28.5t-125 80.5q-51 -56 -126.5 -82.5t-176.5 -26.5h-414v188h412q112 0 167.5 40.5t55.5 113.5q0 43 -54 105.5t-169 156.5l-274 225q-47 39 -81 79.5t-34 88.5q0 73 61.5 125.5t159.5 98.5l641 309v-197l-559 -268q-32 -15 -72.5 -37.5 t-40.5 -38.5t37.5 -49l85.5 -72l267 -219q112 -93 155 -161t43 -144v-14q0 -65 53.5 -103.5t137.5 -38.5h143v-188zM983 0z" arabic-form="medial" glyph-name="afii52306" horiz-adv-x="1090" unicode="ک"/><glyph d="M1278 188q122 0 172.5 44.5t50.5 109.5q0 45 -41.5 104.5t-161.5 157.5l-274 225q-46 39 -80.5 79.5t-34.5 88.5q0 61 40.5 108.5t180.5 115.5l642 309v-197l-560 -268q-32 -15 -72 -37.5t-40 -38.5q0 -18 42 -53.5l81 -67.5l266 -219q96 -79 137 -153.5t41 -151.5 q0 -69 -23 -134t-68 -109q-51 -50 -125.5 -75.5t-170.5 -25.5h-461q-366 0 -546.5 130t-180.5 372q0 78 9.5 131.5t11.5 66.5h172v-10q-6 -22 -16.5 -79t-10.5 -97q0 -71 28.5 -129.5t96.5 -102.5q67 -45 170.5 -69.5t265.5 -24.5h459zM1733 1630l-811 -405v100l811 406 v-101z" arabic-form="isolated" glyph-name="afii57509" horiz-adv-x="1892" unicode="گ"/><glyph d="M2003 0h-139q-79 0 -154 28.5t-125 80.5q-51 -56 -126.5 -82.5t-176.5 -26.5h-463q-366 0 -546.5 130t-180.5 372q0 78 9.5 131.5t11.5 66.5h172v-10q-6 -22 -16.5 -79t-10.5 -97q0 -71 28.5 -129.5t96.5 -102.5q67 -45 170.5 -69.5t265.5 -24.5h461q111 0 167 40.5 t56 113.5q0 43 -54.5 105.5t-168.5 156.5l-274 225q-47 39 -81 79.5t-34 88.5q0 69 55 120t166 104l641 309v-197l-559 -268q-32 -15 -72.5 -37.5t-40.5 -38.5t37.5 -49l85.5 -72l266 -219q109 -89 154 -158.5t45 -146.5v-8.5v-5.5q0 -65 53.5 -103.5t137.5 -38.5h143v-188z M1733 1630l-811 -405v100l811 406v-101zM1892 0z" arabic-form="final" glyph-name="afii62967" horiz-adv-x="1982" unicode="گ"/><glyph d="M862 1333l-560 -268q-32 -15 -72 -37.5t-40 -38.5q0 -18 42 -53.5l81 -67.5l266 -219q96 -79 137 -153.5t41 -151.5q0 -69 -23 -134t-68 -109q-51 -50 -125.5 -75.5t-170.5 -25.5h-393v188h391q122 0 172.5 44.5t50.5 109.5q0 45 -42 104.5t-161 157.5l-274 225 q-46 38 -80.5 79t-34.5 89q0 61 40.5 109t180.5 115l642 309v-197zM823 1630l-811 -405v100l811 406v-101z" arabic-form="initial" glyph-name="afii62965" horiz-adv-x="983" unicode="گ"/><glyph d="M1112 0h-139q-79 0 -154 28.5t-125 80.5q-51 -56 -126.5 -82.5t-176.5 -26.5h-415v188h413q111 0 167 40.5t56 113.5q0 43 -54.5 105.5t-168.5 156.5l-274 225q-47 39 -81 79.5t-34 88.5q0 69 55 120t166 104l641 309v-197l-559 -268q-32 -15 -72.5 -37.5t-40.5 -38.5 t37.5 -49l85.5 -72l266 -219q109 -89 154 -158.5t45 -146.5v-8.5v-5.5q0 -65 53.5 -103.5t137.5 -38.5h143v-188zM842 1630l-811 -405v100l811 406v-101zM983 0z" arabic-form="medial" glyph-name="afii62966" horiz-adv-x="1090" unicode="گ"/><glyph d="M1698 846h-10q-70 43 -164 75.5t-207 32.5q-94 0 -168 -40t-74 -103q0 -53 106.5 -95l190.5 -73q51 -19 108.5 -46.5t95.5 -56.5q44 -32 68.5 -69t24.5 -90q0 -187 -242 -284t-720 -97q-319 0 -467 106.5t-148 335.5q0 78 9.5 156t11.5 96h172v-10q-3 -15 -15 -99.5 t-12 -140.5q0 -140 102.5 -198t348.5 -58q401 0 597.5 50.5t196.5 140.5q0 46 -106.5 86l-190.5 72q-54 21 -108.5 48t-95.5 59q-42 33 -67.5 74.5t-25.5 94.5q0 130 116 228t294 98q122 0 216.5 -24t162.5 -56v-213z" arabic-form="isolated" glyph-name="afii57555" horiz-adv-x="1786" unicode="ی"/><glyph d="M2064 0h-30q-73 0 -129 23t-103 63q-48 41 -85 91t-68 99l-63 100.5t-65 90.5q-34 39 -73.5 62.5t-87.5 23.5q-77 0 -116.5 -31t-39.5 -63q0 -30 54.5 -75.5l93.5 -77.5q71 -59 109 -110.5t38 -101.5q0 -205 -193.5 -313.5t-598.5 -108.5q-316 0 -465.5 107.5 t-149.5 339.5q0 79 9.5 155t11.5 93h172v-11q-3 -16 -15 -97t-12 -138q0 -139 101 -199.5t350 -60.5q311 0 467.5 54t156.5 171q0 41 -50 82.5l-97 77.5q-83 62 -115.5 112.5t-32.5 102.5q0 102 92 191t230 89q66 0 118.5 -24t94.5 -62q39 -35 79 -90t69 -101l66 -100 t69 -90q39 -41 78.5 -63.5t95.5 -22.5h34v-188z" arabic-form="final" glyph-name="afii52364" horiz-adv-x="2042" unicode="ی"/><glyph d="M696 174l-544 -168v187l155 47q-80 15 -140.5 83.5t-60.5 153.5q0 139 89.5 217t216.5 78q84 0 135.5 -7t73.5 -11v-187h-13q-24 7 -85 15t-103 8q-64 0 -106 -31t-42 -82q0 -63 66 -110.5t182 -61.5l176 55v-186z" arabic-form="isolated" glyph-name="afii52399" horiz-adv-x="782" unicode="ء"/><glyph d="M330 0h-166v1556h166v-1556zM510 1702q-19 -15 -57.5 -34.5t-89.5 -19.5q-39 0 -115.5 31t-114.5 31q-33 0 -79 -25t-68 -39v101q17 14 62.5 35.5t84.5 21.5q35 0 113.5 -30.5t116.5 -30.5q43 0 88.5 23t58.5 34v-98z" arabic-form="isolated" glyph-name="afii52400" horiz-adv-x="494" unicode="آ"/><glyph d="M629 0h-86q-185 0 -282 125.5t-97 327.5v1103h166v-1091q0 -55 9 -102t34 -87q25 -41 62.5 -64.5t103.5 -23.5h90v-188zM494 0zM520 1731q-19 -15 -57.5 -34.5t-89.5 -19.5q-39 0 -115.5 31t-114.5 31q-33 0 -79 -25t-68 -39v101q17 14 62.5 35.5t84.5 21.5 q35 0 113.5 -30.5t116.5 -30.5q43 0 88.5 23t58.5 34v-98z" arabic-form="final" glyph-name="afii62753" horiz-adv-x="606" unicode="آ"/><glyph d="M330 0h-166v1556h166v-1556zM415 1678h-336v94h74q-24 13 -39.5 42t-15.5 60q0 64 47 112t127 48q53 0 78.5 -6t35.5 -10v-101h-6q-14 6 -47.5 14.5t-58.5 8.5q-44 0 -66 -18t-22 -48q0 -45 46 -73.5t109 -28.5h74v-94z" arabic-form="isolated" glyph-name="afii57411" horiz-adv-x="494" unicode="أ"/><glyph d="M629 0h-86q-185 0 -282 125.5t-97 327.5v1103h166v-1091q0 -55 9 -102t34 -87q25 -41 62.5 -64.5t103.5 -23.5h90v-188zM494 0zM455 1678h-336v94h74q-24 13 -39.5 42t-15.5 60q0 64 47 112t127 48q53 0 78.5 -6t35.5 -10v-101h-6q-14 6 -47.5 14.5t-58.5 8.5 q-44 0 -66 -18t-22 -48q0 -45 46 -73.5t109 -28.5h74v-94z" arabic-form="final" glyph-name="afii62754" horiz-adv-x="606" unicode="أ"/><glyph d="M760 186q0 -186 -90 -316t-249 -196q-127 -55 -261 -76.5t-279 -21.5v188q132 0 248.5 16.5t202.5 49.5q116 44 186 121t70 203q-14 -9 -63.5 -25t-92.5 -16q-172 0 -268 91.5t-96 225.5q0 152 98.5 263.5t218.5 111.5q166 0 270.5 -173t104.5 -446zM575 340 q0 28 -12 74.5t-37 94.5q-22 42 -56 74.5t-73 32.5q-69 0 -113 -56.5t-44 -123.5q0 -59 54.5 -97t145.5 -38q43 0 81 13.5t54 25.5zM551 971h-336v94h74q-24 13 -39.5 42t-15.5 60q0 64 47 112t127 48q53 0 78.5 -6t35.5 -10v-101h-6q-14 6 -47.5 14.5t-58.5 8.5 q-44 0 -66 -18t-22 -48q0 -45 46 -73.5t109 -28.5h74v-94z" arabic-form="isolated" glyph-name="afii57412" horiz-adv-x="854" unicode="ؤ"/><glyph d="M932 0h-199q-44 -137 -143.5 -223t-239.5 -133q-127 -43 -252 -55.5t-217 -12.5v188q75 0 182 8t195 31q117 32 188 81t107 120q-147 12 -240.5 57t-149.5 110q-54 62 -74.5 132t-20.5 127q0 150 97.5 262.5t219.5 112.5q166 0 270.5 -173t104.5 -444h172v-188zM299 294 q36 -37 105.5 -67t183.5 -37q-5 200 -58 313t-133 113q-69 0 -113 -56.5t-44 -123.5q0 -29 10 -66t49 -76zM854 0zM565 971h-336v94h74q-24 13 -39.5 42t-15.5 60q0 64 47 112t127 48q53 0 78.5 -6t35.5 -10v-101h-6q-14 6 -47.5 14.5t-58.5 8.5q-44 0 -66 -18t-22 -48 q0 -45 46 -73.5t109 -28.5h74v-94z" arabic-form="final" glyph-name="afii62755" horiz-adv-x="909" unicode="ؤ"/><glyph d="M330 0h-166v1556h166v-1556zM418 -423h-336v94h74q-24 13 -39.5 42t-15.5 60q0 64 47 112t127 48q53 0 78.5 -6t35.5 -10v-101h-6q-14 6 -47.5 14.5t-58.5 8.5q-44 0 -66 -18t-22 -48q0 -45 46 -73.5t109 -28.5h74v-94z" arabic-form="isolated" glyph-name="afii57413" horiz-adv-x="494" unicode="إ"/><glyph d="M629 0h-86q-185 0 -282 125.5t-97 327.5v1103h166v-1091q0 -55 9 -102t34 -87q25 -41 62.5 -64.5t103.5 -23.5h90v-188zM494 0zM514 -423h-336v94h74q-24 13 -39.5 42t-15.5 60q0 64 47 112t127 48q53 0 78.5 -6t35.5 -10v-101h-6q-14 6 -47.5 14.5t-58.5 8.5 q-44 0 -66 -18t-22 -48q0 -45 46 -73.5t109 -28.5h74v-94z" arabic-form="final" glyph-name="afii62756" horiz-adv-x="606" unicode="إ"/><glyph d="M1698 846h-10q-70 43 -164 75.5t-207 32.5q-94 0 -168 -40t-74 -103q0 -53 106.5 -95l190.5 -73q51 -19 108.5 -46.5t95.5 -56.5q44 -32 68.5 -69t24.5 -90q0 -187 -242 -284t-720 -97q-319 0 -467 106.5t-148 335.5q0 78 9.5 156t11.5 96h172v-10q-3 -15 -15 -99.5 t-12 -140.5q0 -140 102.5 -198t348.5 -58q401 0 597.5 50.5t196.5 140.5q0 46 -106.5 86l-190.5 72q-54 21 -108.5 48t-95.5 59q-42 33 -67.5 74.5t-25.5 94.5q0 130 116 228t294 98q122 0 216.5 -24t162.5 -56v-213zM696 867h-336v94h74q-24 13 -39.5 42t-15.5 60 q0 64 47 112t127 48q53 0 78.5 -6t35.5 -10v-101h-6q-14 6 -47.5 14.5t-58.5 8.5q-44 0 -66 -18t-22 -48q0 -45 46 -73.5t109 -28.5h74v-94z" arabic-form="isolated" glyph-name="afii57414" horiz-adv-x="1786" unicode="ئ"/><glyph d="M2064 0h-30q-73 0 -129 23t-103 63q-48 41 -85 91t-68 99l-63 100.5t-65 90.5q-34 39 -73.5 62.5t-87.5 23.5q-77 0 -116.5 -31t-39.5 -63q0 -30 54.5 -75.5l93.5 -77.5q71 -59 109 -110.5t38 -101.5q0 -205 -193.5 -313.5t-598.5 -108.5q-316 0 -465.5 107.5 t-149.5 339.5q0 79 9.5 155t11.5 93h172v-11q-3 -16 -15 -97t-12 -138q0 -139 101 -199.5t350 -60.5q311 0 467.5 54t156.5 171q0 41 -50 82.5l-97 77.5q-83 62 -115.5 112.5t-32.5 102.5q0 102 92 191t230 89q66 0 118.5 -24t94.5 -62q39 -35 79 -90t69 -101l66 -100 t69 -90q39 -41 78.5 -63.5t95.5 -22.5h34v-188zM780 717h-336v94h74q-24 13 -39.5 42t-15.5 60q0 64 47 112t127 48q53 0 78.5 -6t35.5 -10v-101h-6q-14 6 -47.5 14.5t-58.5 8.5q-44 0 -66 -18t-22 -48q0 -45 46 -73.5t109 -28.5h74v-94z" arabic-form="final" glyph-name="afii62759" horiz-adv-x="2042" unicode="ئ"/><glyph d="M440 453q0 -213 -101 -333t-278 -120h-84v188h89q102 0 155 73t53 204v252h166v-264zM492 969h-336v94h74q-24 13 -39.5 42t-15.5 60q0 64 47 112t127 48q53 0 78.5 -6t35.5 -10v-101h-6q-14 6 -47.5 14.5t-58.5 8.5q-44 0 -66 -18t-22 -48q0 -45 46 -73.5t109 -28.5h74 v-94z" arabic-form="initial" glyph-name="afii62757" horiz-adv-x="573" unicode="ئ"/><glyph d="M741 0h-139q-62 0 -136.5 33t-107.5 90q-35 -59 -105 -91t-136 -32h-140v188h95q90 0 146 62t56 176v121h168v-121q0 -108 56.5 -173t148.5 -65h94v-188zM518 717h-336v94h74q-24 13 -39.5 42t-15.5 60q0 64 47 112t127 48q53 0 78.5 -6t35.5 -10v-101h-6 q-14 6 -47.5 14.5t-58.5 8.5q-44 0 -66 -18t-22 -48q0 -45 46 -73.5t109 -28.5h74v-94z" arabic-form="medial" glyph-name="afii62758" horiz-adv-x="719" unicode="ئ"/><glyph d="M330 0h-166v1556h166v-1556z" arabic-form="isolated" glyph-name="afii57415" horiz-adv-x="494" unicode="ا"/><glyph d="M629 0h-86q-185 0 -282 125.5t-97 327.5v1103h166v-1091q0 -55 9 -102t34 -87q25 -41 62.5 -64.5t103.5 -23.5h90v-188zM494 0z" arabic-form="final" glyph-name="afii62760" horiz-adv-x="606" unicode="ا"/><glyph d="M1086 199q110 23 183 71q68 45 97 103t29 129q0 31 -11 90.5l-16 85.5v10h172l13 -88.5t8 -110.5q0 -242 -181.5 -371.5t-554.5 -129.5q-368 0 -550.5 130t-182.5 371q0 55 8 110.5l13 88.5h172v-10l-16 -85.5t-11 -90.5q0 -71 28.5 -129.5t97.5 -102.5q73 -48 184 -71 t259 -23q149 0 259 23zM901 -319h-148v148h148v-148z" arabic-form="isolated" glyph-name="afii57416" horiz-adv-x="1653" unicode="ب"/><glyph d="M1941 0h-139q-62 0 -136 33t-107 90q-42 -58 -121 -90.5t-189 -32.5h-424q-368 0 -550.5 130t-182.5 372q0 73 8.5 126t12.5 72h172v-10q-4 -15 -15.5 -75.5t-11.5 -100.5q0 -69 29.5 -129t96.5 -103q73 -48 184 -71t259 -23h261h116q140 0 205.5 59t65.5 179 q0 27 -5.5 60t-7.5 46v15h170q3 -18 6.5 -65.5t3.5 -63.5q0 -96 52 -163t153 -67h94v-188zM1027 -319h-148v148h148v-148z" arabic-form="final" glyph-name="afii62763" horiz-adv-x="1919" unicode="ب"/><glyph d="M440 453q0 -213 -101 -333t-278 -120h-84v188h89q102 0 155 73t53 204v252h166v-264zM302 -319h-148v148h148v-148z" arabic-form="initial" glyph-name="afii62761" horiz-adv-x="573" unicode="ب"/><glyph d="M741 0h-139q-62 0 -136.5 33t-107.5 90q-35 -59 -105 -91t-136 -32h-140v188h95q90 0 146 62t56 176v121h168v-121q0 -108 56.5 -173t148.5 -65h94v-188zM396 -319h-148v148h148v-148z" arabic-form="medial" glyph-name="afii62762" horiz-adv-x="719" unicode="ب"/><glyph d="M872 403q0 -195 -109.5 -305t-289.5 -110q-161 0 -271 117.5t-110 295.5q0 118 58 204t202 173l68 41l-135 152h233l238 -269q53 -59 84.5 -132.5t31.5 -166.5zM633 230q34 30 54 69t20 104q0 57 -54.5 139t-113.5 148l-21 23l-67 -41q-85 -51 -139 -114.5t-54 -154.5 q0 -89 64.5 -158t150.5 -69q40 0 85 14t75 40zM373 1196h-148v148h148v-148zM641 1196h-148v148h148v-148z" arabic-form="isolated" glyph-name="afii57417" horiz-adv-x="965" unicode="ة"/><glyph d="M1198 0h-86q-90 0 -160.5 34t-119.5 88q-50 55 -75.5 123.5t-25.5 135.5q-52 -49 -135.5 -83t-183.5 -34q-146 0 -238 90t-92 234q0 101 47 175t132 124q83 49 206 76t264 34l168 9v-541q0 -55 9 -102t34 -87q25 -41 62.5 -64.5t103.5 -23.5h90v-188zM731 553v295 q-103 -5 -184 -20t-141 -42q-61 -28 -95.5 -77t-34.5 -119q0 -64 42.5 -109t117.5 -45q77 0 162.5 38t132.5 79zM437 1184h-148v148h148v-148zM705 1184h-148v148h148v-148z" arabic-form="final" glyph-name="afii62764" horiz-adv-x="1176" unicode="ة"/><glyph d="M1086 199q110 23 183 71q68 45 97 103t29 129q0 31 -11 90.5l-16 85.5v10h172l13 -88.5t8 -110.5q0 -242 -181.5 -371.5t-554.5 -129.5q-368 0 -550.5 130t-182.5 371q0 55 8 110.5l13 88.5h172v-10l-16 -85.5t-11 -90.5q0 -71 28.5 -129.5t97.5 -102.5q73 -48 184 -71 t259 -23q149 0 259 23zM769 815h-148v148h148v-148zM1037 815h-148v148h148v-148z" arabic-form="isolated" glyph-name="afii57418" horiz-adv-x="1653" unicode="ت"/><glyph d="M1941 0h-139q-62 0 -136 33t-107 90q-42 -58 -121 -90.5t-189 -32.5h-424q-368 0 -550.5 130t-182.5 372q0 73 8.5 126t12.5 72h172v-10q-4 -15 -15.5 -75.5t-11.5 -100.5q0 -69 29.5 -129t96.5 -103q73 -48 184 -71t259 -23h261h116q140 0 205.5 59t65.5 179 q0 27 -5.5 60t-7.5 46v15h170q3 -18 6.5 -65.5t3.5 -63.5q0 -96 52 -163t153 -67h94v-188zM838 815h-148v148h148v-148zM1106 815h-148v148h148v-148z" arabic-form="final" glyph-name="afii62767" horiz-adv-x="1919" unicode="ت"/><glyph d="M440 453q0 -213 -101 -333t-278 -120h-84v188h89q102 0 155 73t53 204v252h166v-264zM152 970h-148v148h148v-148zM420 970h-148v148h148v-148z" arabic-form="initial" glyph-name="afii62765" horiz-adv-x="573" unicode="ت"/><glyph d="M741 0h-139q-62 0 -136.5 33t-107.5 90q-35 -59 -105 -91t-136 -32h-140v188h95q90 0 146 62t56 176v121h168v-121q0 -108 56.5 -173t148.5 -65h94v-188zM259 815h-148v148h148v-148zM527 815h-148v148h148v-148z" arabic-form="medial" glyph-name="afii62766" horiz-adv-x="719" unicode="ت"/><glyph d="M1086 199q110 23 183 71q68 45 97 103t29 129q0 31 -11 90.5l-16 85.5v10h172l13 -88.5t8 -110.5q0 -242 -181.5 -371.5t-554.5 -129.5q-368 0 -550.5 130t-182.5 371q0 55 8 110.5l13 88.5h172v-10l-16 -85.5t-11 -90.5q0 -71 28.5 -129.5t97.5 -102.5q73 -48 184 -71 t259 -23q149 0 259 23zM749 815h-148v148h148v-148zM1045 815h-148v148h148v-148zM897 1024h-148v148h148v-148z" arabic-form="isolated" glyph-name="afii57419" horiz-adv-x="1653" unicode="ث"/><glyph d="M1941 0h-139q-62 0 -136 33t-107 90q-42 -58 -121 -90.5t-189 -32.5h-424q-368 0 -550.5 130t-182.5 372q0 73 8.5 126t12.5 72h172v-10q-4 -15 -15.5 -75.5t-11.5 -100.5q0 -69 29.5 -129t96.5 -103q73 -48 184 -71t259 -23h261h116q140 0 205.5 59t65.5 179 q0 27 -5.5 60t-7.5 46v15h170q3 -18 6.5 -65.5t3.5 -63.5q0 -96 52 -163t153 -67h94v-188zM840 815h-148v148h148v-148zM1136 815h-148v148h148v-148zM988 1024h-148v148h148v-148z" arabic-form="final" glyph-name="afii62770" horiz-adv-x="1919" unicode="ث"/><glyph d="M440 453q0 -213 -101 -333t-278 -120h-84v188h89q102 0 155 73t53 204v252h166v-264zM152 970h-148v148h148v-148zM448 970h-148v148h148v-148zM300 1179h-148v148h148v-148z" arabic-form="initial" glyph-name="afii62768" horiz-adv-x="573" unicode="ث"/><glyph d="M741 0h-139q-62 0 -136.5 33t-107.5 90q-35 -59 -105 -91t-136 -32h-140v188h95q90 0 146 62t56 176v121h168v-121q0 -108 56.5 -173t148.5 -65h94v-188zM237 770h-148v148h148v-148zM533 770h-148v148h148v-148zM385 979h-148v148h148v-148z" arabic-form="medial" glyph-name="afii62769" horiz-adv-x="719" unicode="ث"/><glyph d="M1120 561h-30q-204 0 -354.5 -24.5t-264.5 -80.5q-107 -52 -166 -139.5t-59 -205.5q0 -158 114.5 -254.5t294.5 -96.5q136 0 245 31.5t190 83.5h10v-201q-88 -45 -185 -71.5t-258 -26.5q-255 0 -416 146.5t-161 390.5q0 116 56 222.5t179 188.5q101 68 229 104.5 t253 43.5q-122 57 -238 78.5t-278 21.5h-76v186h88q162 0 368 -64.5t386 -176.5h73v-156zM758 66h-148v148h148v-148z" arabic-form="isolated" glyph-name="afii57420" horiz-adv-x="1247" unicode="ج"/><glyph d="M1456 0h-121q-163 0 -233 73t-70 242v246q-182 -3 -329 -31.5t-247 -81.5q-102 -54 -156 -138t-54 -199q0 -158 114.5 -254.5t294.5 -96.5q136 0 245 31.5t190 83.5h10v-201q-88 -45 -185 -71.5t-258 -26.5q-122 0 -227 35.5t-183 104.5t-122.5 169t-44.5 228 q0 118 56 223t179 188q101 68 229 104.5t253 43.5q-122 57 -238 78.5t-278 21.5h-76v186h88q162 0 368 -64.5t386 -176.5h170v-156h-56v-155q0 -56 5.5 -91t25.5 -67q19 -29 50.5 -44.5t88.5 -15.5h125v-188zM1120 717zM1247 0zM674 12h-148v148h148v-148z" arabic-form="final" glyph-name="afii62773" horiz-adv-x="1434" unicode="ج"/><glyph d="M1280 461q-247 -148 -633.5 -304.5t-562.5 -156.5h-107v188h111q139 0 389 85.5t428 177.5q-87 60 -275 119t-388 59h-117v186h127q184 0 403 -70t424 -198l201 102v-188zM1016 -207h-148v148h148v-148z" arabic-form="initial" glyph-name="afii62771" horiz-adv-x="1350" unicode="ج"/><glyph d="M791 217q-220 -97 -410.5 -157t-296.5 -60h-107v188h111q139 0 389 85.5t428 177.5q-87 60 -275 119t-388 59h-117v186h127q184 0 403 -70t424 -198l201 102v-188q-68 -40 -154 -85.5t-180 -88.5q23 -44 67 -71.5t124 -27.5h278v-188h-274q-140 0 -230.5 52.5 t-119.5 164.5zM1350 0zM738 -293h-148v148h148v-148z" arabic-form="medial" glyph-name="afii62772" horiz-adv-x="1393" unicode="ج"/><glyph d="M1120 561h-30q-204 0 -354.5 -24.5t-264.5 -80.5q-107 -52 -166 -139.5t-59 -205.5q0 -158 114.5 -254.5t294.5 -96.5q136 0 245 31.5t190 83.5h10v-201q-88 -45 -185 -71.5t-258 -26.5q-255 0 -416 146.5t-161 390.5q0 116 56 222.5t179 188.5q101 68 229 104.5 t253 43.5q-122 57 -238 78.5t-278 21.5h-76v186h88q162 0 368 -64.5t386 -176.5h73v-156z" arabic-form="isolated" glyph-name="afii57421" horiz-adv-x="1247" unicode="ح"/><glyph d="M1456 0h-121q-163 0 -233 73t-70 242v246q-182 -3 -329 -31.5t-247 -81.5q-102 -54 -156 -138t-54 -199q0 -158 114.5 -254.5t294.5 -96.5q136 0 245 31.5t190 83.5h10v-201q-88 -45 -185 -71.5t-258 -26.5q-122 0 -227 35.5t-183 104.5t-122.5 169t-44.5 228 q0 118 56 223t179 188q101 68 229 104.5t253 43.5q-122 57 -238 78.5t-278 21.5h-76v186h88q162 0 368 -64.5t386 -176.5h170v-156h-56v-155q0 -56 5.5 -91t25.5 -67q19 -29 50.5 -44.5t88.5 -15.5h125v-188zM1120 717zM1247 0z" arabic-form="final" glyph-name="afii62776" horiz-adv-x="1434" unicode="ح"/><glyph d="M1280 461q-247 -148 -633.5 -304.5t-562.5 -156.5h-107v188h111q139 0 389 85.5t428 177.5q-87 60 -275 119t-388 59h-117v186h127q184 0 403 -70t424 -198l201 102v-188z" arabic-form="initial" glyph-name="afii62774" horiz-adv-x="1350" unicode="ح"/><glyph d="M791 217q-220 -97 -410.5 -157t-296.5 -60h-107v188h111q139 0 389 85.5t428 177.5q-87 60 -275 119t-388 59h-117v186h127q184 0 403 -70t424 -198l201 102v-188q-68 -40 -154 -85.5t-180 -88.5q23 -44 67 -71.5t124 -27.5h278v-188h-274q-140 0 -230.5 52.5 t-119.5 164.5zM1350 0z" arabic-form="medial" glyph-name="afii62775" horiz-adv-x="1393" unicode="ح"/><glyph d="M1120 561h-30q-204 0 -354.5 -24.5t-264.5 -80.5q-107 -52 -166 -139.5t-59 -205.5q0 -158 114.5 -254.5t294.5 -96.5q136 0 245 31.5t190 83.5h10v-201q-88 -45 -185 -71.5t-258 -26.5q-255 0 -416 146.5t-161 390.5q0 116 56 222.5t179 188.5q101 68 229 104.5 t253 43.5q-122 57 -238 78.5t-278 21.5h-76v186h88q162 0 368 -64.5t386 -176.5h73v-156zM918 1079h-148v148h148v-148z" arabic-form="isolated" glyph-name="afii57422" horiz-adv-x="1247" unicode="خ"/><glyph d="M1456 0h-121q-163 0 -233 73t-70 242v246q-182 -3 -329 -31.5t-247 -81.5q-102 -54 -156 -138t-54 -199q0 -158 114.5 -254.5t294.5 -96.5q136 0 245 31.5t190 83.5h10v-201q-88 -45 -185 -71.5t-258 -26.5q-122 0 -227 35.5t-183 104.5t-122.5 169t-44.5 228 q0 118 56 223t179 188q101 68 229 104.5t253 43.5q-122 57 -238 78.5t-278 21.5h-76v186h88q162 0 368 -64.5t386 -176.5h170v-156h-56v-155q0 -56 5.5 -91t25.5 -67q19 -29 50.5 -44.5t88.5 -15.5h125v-188zM1120 717zM1247 0zM816 1120h-148v148h148v-148z" arabic-form="final" glyph-name="afii62779" horiz-adv-x="1434" unicode="خ"/><glyph d="M1280 461q-247 -148 -633.5 -304.5t-562.5 -156.5h-107v188h111q139 0 389 85.5t428 177.5q-87 60 -275 119t-388 59h-117v186h127q184 0 403 -70t424 -198l201 102v-188zM656 989h-148v148h148v-148z" arabic-form="initial" glyph-name="afii62777" horiz-adv-x="1350" unicode="خ"/><glyph d="M791 217q-220 -97 -410.5 -157t-296.5 -60h-107v188h111q139 0 389 85.5t428 177.5q-87 60 -275 119t-388 59h-117v186h127q184 0 403 -70t424 -198l201 102v-188q-68 -40 -154 -85.5t-180 -88.5q23 -44 67 -71.5t124 -27.5h278v-188h-274q-140 0 -230.5 52.5 t-119.5 164.5zM1350 0zM656 989h-148v148h148v-148z" arabic-form="medial" glyph-name="afii62778" horiz-adv-x="1393" unicode="خ"/><glyph d="M645 665q100 -92 156.5 -177.5t56.5 -163.5q0 -58 -23 -119t-68 -104q-52 -49 -126 -75t-170 -26h-379v188h377q105 0 164 36.5t59 97.5q0 42 -38 93.5t-99 105.5q-61 55 -132 107t-163 113v215h10l184.5 -136t190.5 -155z" arabic-form="isolated" glyph-name="afii57423" horiz-adv-x="958" unicode="د"/><glyph d="M1120 0h-57q-100 0 -175.5 37.5t-121.5 105.5q-64 -71 -138.5 -107t-156.5 -36h-273h-128v188h393q60 0 106 16t72 44q24 27 33.5 56t9.5 61q0 10 -4.5 32t-11.5 49l-156 527h195l135 -477q16 -57 37 -123t39 -99q23 -40 56 -63t85 -23h61v-188z" arabic-form="final" glyph-name="afii62780" horiz-adv-x="1118" unicode="د"/><glyph d="M645 665q100 -92 156.5 -177.5t56.5 -163.5q0 -58 -23 -119t-68 -104q-52 -49 -126 -75t-170 -26h-379v188h377q105 0 164 36.5t59 97.5q0 42 -38 93.5t-99 105.5q-61 55 -132 107t-163 113v215h10l184.5 -136t190.5 -155zM410 1178h-148v148h148v-148z" arabic-form="isolated" glyph-name="afii57424" horiz-adv-x="958" unicode="ذ"/><glyph d="M1120 0h-57q-100 0 -175.5 37.5t-121.5 105.5q-64 -71 -138.5 -107t-156.5 -36h-273h-128v188h393q60 0 106 16t72 44q24 27 33.5 56t9.5 61q0 10 -4.5 32t-11.5 49l-156 527h195l135 -477q16 -57 37 -123t39 -99q23 -40 56 -63t85 -23h61v-188zM642 1206h-148v148h148 v-148z" arabic-form="final" glyph-name="afii62781" horiz-adv-x="1118" unicode="ذ"/><glyph d="M659 186q0 -166 -75.5 -290.5t-226.5 -205.5q-120 -64 -248 -89t-218 -25v188q64 0 173 17.5t194 57.5q115 53 172 131.5t57 183.5q0 86 -33.5 175t-91.5 175v12h193q39 -71 71.5 -160t32.5 -170z" arabic-form="isolated" glyph-name="afii57425" horiz-adv-x="741" unicode="ر"/><glyph d="M856 0h-78q-31 0 -69 9.5t-68 25.5q-37 -144 -130.5 -233.5t-207.5 -139.5q-104 -45 -212 -65.5t-200 -20.5v188q64 0 173 17.5t194 57.5q114 53 171.5 129.5t57.5 185.5q0 59 -16 117.5t-36 102.5t-40 77.5t-33 52.5v12h193q6 -11 30 -65l42 -97q38 -88 86 -127t110 -39 h33v-188zM659 186zM741 0z" arabic-form="final" glyph-name="afii62782" horiz-adv-x="854" unicode="ر"/><glyph d="M659 186q0 -166 -75.5 -290.5t-226.5 -205.5q-120 -64 -248 -89t-218 -25v188q64 0 173 17.5t194 57.5q115 53 172 131.5t57 183.5q0 86 -33.5 175t-91.5 175v12h193q39 -71 71.5 -160t32.5 -170zM484 752h-148v148h148v-148z" arabic-form="isolated" glyph-name="afii57426" horiz-adv-x="741" unicode="ز"/><glyph d="M856 0h-78q-31 0 -69 9.5t-68 25.5q-37 -144 -130.5 -233.5t-207.5 -139.5q-104 -45 -212 -65.5t-200 -20.5v188q64 0 173 17.5t194 57.5q114 53 171.5 129.5t57.5 185.5q0 59 -16 117.5t-36 102.5t-40 77.5t-33 52.5v12h193q6 -11 30 -65l42 -97q38 -88 86 -127t110 -39 h33v-188zM659 186zM741 0zM494 752h-148v148h148v-148z" arabic-form="final" glyph-name="afii62783" horiz-adv-x="854" unicode="ز"/><glyph d="M2374 446q0 -102 -24.5 -186.5t-71.5 -142.5q-50 -61 -121 -92t-162 -31q-77 0 -151.5 27t-110.5 73q-57 -47 -117 -73.5t-166 -26.5q-75 0 -143 19t-105 46q-15 -202 -180.5 -342.5t-407.5 -140.5q-116 0 -214 29t-166 91t-105 161t-37 235q0 100 12.5 198t14.5 111h182 v-16q-11 -37 -27 -127.5t-16 -167.5q0 -155 88.5 -240.5t267.5 -85.5q207 0 314.5 109t107.5 326q0 84 -5 199.5t-7 146.5h178q0 -205 61.5 -284t186.5 -79q110 0 165.5 64.5t55.5 181.5v117h166v-150q0 -104 45 -158.5t115 -54.5q112 0 161.5 65.5t49.5 211.5v258h166v-271 z" arabic-form="isolated" glyph-name="afii57427" horiz-adv-x="2478" unicode="س"/><glyph d="M2654 0h-119q-63 0 -138.5 36.5t-110.5 92.5q-48 -66 -118.5 -100.5t-172.5 -34.5q-77 0 -151.5 27t-110.5 73q-57 -47 -117 -73.5t-166 -26.5q-75 0 -143 19t-105 46q-15 -202 -180.5 -342.5t-407.5 -140.5q-116 0 -214 29t-166 91t-105 161t-37 235q0 100 12.5 198 t14.5 111h182v-16q-11 -37 -27 -127.5t-16 -167.5q0 -155 88.5 -240.5t267.5 -85.5q207 0 314.5 109t107.5 326q0 84 -5 199.5t-7 146.5h178q0 -205 61.5 -284t186.5 -79q110 0 165.5 64.5t55.5 181.5v117h166v-150q0 -104 45 -158.5t115 -54.5q112 0 161.5 65.5t49.5 211.5 v258h166v-260q0 -139 52.5 -204t153.5 -65h74v-188zM2478 0z" arabic-form="final" glyph-name="afii62786" horiz-adv-x="2652" unicode="س"/><glyph d="M1896 446q0 -216 -99.5 -334t-278.5 -118q-77 0 -151.5 27t-111.5 73q-56 -47 -116 -73.5t-166 -26.5q-121 0 -207 40t-133 109q-58 -64 -128 -103.5t-167 -39.5h-361v188h414q67 0 102 21t48 55t13.5 73.5t0.5 100.5v107h166q0 -190 58.5 -276.5t193.5 -86.5 q110 0 165.5 64.5t55.5 181.5v117h166v-150q0 -101 44.5 -157t115.5 -56q109 0 160 65t51 212v258h165v-271z" arabic-form="initial" glyph-name="afii62784" horiz-adv-x="2007" unicode="س"/><glyph d="M1808 129q-51 -71 -123.5 -103t-166.5 -32q-77 0 -151.5 27t-111.5 73q-56 -47 -116 -73.5t-166 -26.5q-121 0 -207 40t-133 109q-67 -74 -136.5 -108.5t-158.5 -34.5h-361v188h353q67 0 111.5 21t68.5 55q26 37 35.5 80.5t9.5 93.5v107h166q0 -189 58 -276t194 -87 q110 0 165.5 64.5t55.5 181.5v117h166v-150q0 -103 44.5 -158t115.5 -55q113 0 161 66t48 211v258h167v-291q0 -109 55.5 -173.5t149.5 -64.5h94v-188h-139q-63 0 -138 36.5t-110 92.5zM2007 0z" arabic-form="medial" glyph-name="afii62785" horiz-adv-x="2173" unicode="س"/><glyph d="M2374 446q0 -102 -24.5 -186.5t-71.5 -142.5q-50 -61 -121 -92t-162 -31q-77 0 -151.5 27t-110.5 73q-57 -47 -117 -73.5t-166 -26.5q-75 0 -143 19t-105 46q-15 -202 -180.5 -342.5t-407.5 -140.5q-116 0 -214 29t-166 91t-105 161t-37 235q0 100 12.5 198t14.5 111h182 v-16q-11 -37 -27 -127.5t-16 -167.5q0 -155 88.5 -240.5t267.5 -85.5q207 0 314.5 109t107.5 326q0 84 -5 199.5t-7 146.5h178q0 -205 61.5 -284t186.5 -79q110 0 165.5 64.5t55.5 181.5v117h166v-150q0 -104 45 -158.5t115 -54.5q112 0 161.5 65.5t49.5 211.5v258h166v-271 zM1356 801h-148v148h148v-148zM1652 801h-148v148h148v-148zM1504 1010h-148v148h148v-148z" arabic-form="isolated" glyph-name="afii57428" horiz-adv-x="2478" unicode="ش"/><glyph d="M2654 0h-119q-63 0 -138.5 36.5t-110.5 92.5q-48 -66 -118.5 -100.5t-172.5 -34.5q-77 0 -151.5 27t-110.5 73q-57 -47 -117 -73.5t-166 -26.5q-75 0 -143 19t-105 46q-15 -202 -180.5 -342.5t-407.5 -140.5q-116 0 -214 29t-166 91t-105 161t-37 235q0 100 12.5 198 t14.5 111h182v-16q-11 -37 -27 -127.5t-16 -167.5q0 -155 88.5 -240.5t267.5 -85.5q207 0 314.5 109t107.5 326q0 84 -5 199.5t-7 146.5h178q0 -205 61.5 -284t186.5 -79q110 0 165.5 64.5t55.5 181.5v117h166v-150q0 -104 45 -158.5t115 -54.5q112 0 161.5 65.5t49.5 211.5 v258h166v-260q0 -139 52.5 -204t153.5 -65h74v-188zM2478 0zM1359 801h-148v148h148v-148zM1655 801h-148v148h148v-148zM1507 1010h-148v148h148v-148z" arabic-form="final" glyph-name="afii62789" horiz-adv-x="2652" unicode="ش"/><glyph d="M1896 446q0 -216 -99.5 -334t-278.5 -118q-77 0 -151.5 27t-111.5 73q-56 -47 -116 -73.5t-166 -26.5q-121 0 -207 40t-133 109q-58 -64 -128 -103.5t-167 -39.5h-361v188h414q67 0 102 21t48 55t13.5 73.5t0.5 100.5v107h166q0 -190 58.5 -276.5t193.5 -86.5 q110 0 165.5 64.5t55.5 181.5v117h166v-150q0 -101 44.5 -157t115.5 -56q109 0 160 65t51 212v258h165v-271zM1206 840h-148v148h148v-148zM1502 840h-148v148h148v-148zM1354 1049h-148v148h148v-148z" arabic-form="initial" glyph-name="afii62787" horiz-adv-x="2007" unicode="ش"/><glyph d="M1808 129q-51 -71 -123.5 -103t-166.5 -32q-77 0 -151.5 27t-111.5 73q-56 -47 -116 -73.5t-166 -26.5q-121 0 -207 40t-133 109q-67 -74 -136.5 -108.5t-158.5 -34.5h-361v188h353q67 0 111.5 21t68.5 55q26 37 35.5 80.5t9.5 93.5v107h166q0 -189 58 -276t194 -87 q110 0 165.5 64.5t55.5 181.5v117h166v-150q0 -103 44.5 -158t115.5 -55q113 0 161 66t48 211v258h167v-291q0 -109 55.5 -173.5t149.5 -64.5h94v-188h-139q-63 0 -138 36.5t-110 92.5zM2007 0zM1196 840h-148v148h148v-148zM1492 840h-148v148h148v-148zM1344 1049h-148 v148h148v-148z" arabic-form="medial" glyph-name="afii62788" horiz-adv-x="2173" unicode="ش"/><glyph d="M2273 408q0 -106 -52 -184.5t-135 -126.5q-82 -48 -189 -72.5t-220 -24.5h-571q-28 -197 -169 -310.5t-362 -113.5q-222 0 -352.5 126.5t-130.5 354.5q0 143 12 229t15 103h182v-16q-12 -48 -27.5 -145t-15.5 -173q0 -147 86.5 -219t228.5 -72q85 0 154 20t117 71 q52 54 77 139.5t25 204.5q0 86 -5 131t-7 59h178v-12q0 -57 18 -107t46 -71q148 251 346.5 433.5t357.5 182.5q169 0 281 -115.5t112 -291.5zM1925 227q107 33 144.5 77.5t37.5 98.5q0 86 -62 156t-167 70q-61 0 -133 -46.5t-148 -117.5q-67 -62 -131 -138.5t-104 -138.5 h174q86 0 204 9.5t185 29.5z" arabic-form="isolated" glyph-name="afii57429" horiz-adv-x="2365" unicode="ص"/><glyph d="M2386 0h-119q-47 0 -105.5 19.5t-103.5 60.5q-50 -35 -146.5 -57.5t-166.5 -22.5h-639q-28 -194 -168 -309t-363 -115q-226 0 -354.5 128.5t-128.5 352.5q0 143 12 228.5t15 103.5h182v-16q-11 -45 -27 -140.5t-16 -177.5q0 -147 86.5 -219t228.5 -72q85 0 154 20t117 71 q52 54 77 139.5t25 204.5q0 76 -4.5 124t-7.5 66h178v-12q0 -57 18 -107t46 -71q153 261 350.5 438.5t353.5 177.5q168 0 280.5 -114t112.5 -293q0 -50 -15.5 -102.5t-45.5 -92.5q26 -13 47.5 -19t52.5 -6h74v-188zM1925 227q105 32 143.5 75.5t38.5 100.5q0 92 -64 159 t-165 67q-61 0 -133 -46.5t-148 -117.5q-67 -62 -131 -138.5t-104 -138.5h174q86 0 204.5 9.5t184.5 29.5zM2365 0z" arabic-form="final" glyph-name="afii62792" horiz-adv-x="2384" unicode="ص"/><glyph d="M1460 408q0 -84 -38.5 -158.5t-115.5 -129.5t-192 -87.5t-272 -32.5h-400q-64 0 -117 19.5t-94 62.5q-38 -42 -90 -62t-118 -20h-46v188h50q67 0 93.5 51t26.5 140v10h168v-10q0 -55 11 -99t36 -67q71 118 157.5 226.5t179.5 192.5q91 83 187 133t181 50 q166 0 279.5 -112.5t113.5 -294.5zM1112 227q101 31 141.5 72.5t40.5 103.5q0 92 -65.5 159t-163.5 67q-61 0 -133 -46.5t-148 -117.5q-67 -62 -131 -138.5t-104 -138.5h174q86 0 204 9.5t185 29.5z" arabic-form="initial" glyph-name="afii62790" horiz-adv-x="1552" unicode="ص"/><glyph d="M1593 0h-139q-49 0 -109 21.5t-100 58.5q-51 -33 -159.5 -56.5t-180.5 -23.5h-463q-64 0 -117 19.5t-94 62.5q-38 -42 -90 -62t-118 -20h-46v188h50q67 0 93.5 51t26.5 140v10h168v-10q0 -58 11 -104t36 -68q72 120 158 228t179 194q89 82 187 134t181 52 q161 0 277 -109.5t116 -297.5q0 -50 -15.5 -102.5t-45.5 -92.5q25 -13 47 -19t53 -6h94v-188zM1098 227q86 24 141 65t55 111q0 86 -62 156t-167 70q-61 0 -133 -46.5t-148 -117.5q-67 -62 -131 -138.5t-104 -138.5h174q75 0 190 9.5t185 29.5zM1552 0z" arabic-form="medial" glyph-name="afii62791" horiz-adv-x="1571" unicode="ص"/><glyph d="M2273 408q0 -106 -52 -184.5t-135 -126.5q-82 -48 -189 -72.5t-220 -24.5h-571q-28 -197 -169 -310.5t-362 -113.5q-222 0 -352.5 126.5t-130.5 354.5q0 143 12 229t15 103h182v-16q-12 -48 -27.5 -145t-15.5 -173q0 -147 86.5 -219t228.5 -72q85 0 154 20t117 71 q52 54 77 139.5t25 204.5q0 86 -5 131t-7 59h178v-12q0 -57 18 -107t46 -71q148 251 346.5 433.5t357.5 182.5q169 0 281 -115.5t112 -291.5zM1925 227q107 33 144.5 77.5t37.5 98.5q0 86 -62 156t-167 70q-61 0 -133 -46.5t-148 -117.5q-67 -62 -131 -138.5t-104 -138.5 h174q86 0 204 9.5t185 29.5zM1776 1063h-148v148h148v-148z" arabic-form="isolated" glyph-name="afii57430" horiz-adv-x="2365" unicode="ض"/><glyph d="M2386 0h-119q-47 0 -105.5 19.5t-103.5 60.5q-50 -35 -146.5 -57.5t-166.5 -22.5h-639q-28 -194 -168 -309t-363 -115q-226 0 -354.5 128.5t-128.5 352.5q0 143 12 228.5t15 103.5h182v-16q-11 -45 -27 -140.5t-16 -177.5q0 -147 86.5 -219t228.5 -72q85 0 154 20t117 71 q52 54 77 139.5t25 204.5q0 76 -4.5 124t-7.5 66h178v-12q0 -57 18 -107t46 -71q153 261 350.5 438.5t353.5 177.5q168 0 280.5 -114t112.5 -293q0 -50 -15.5 -102.5t-45.5 -92.5q26 -13 47.5 -19t52.5 -6h74v-188zM1925 227q105 32 143.5 75.5t38.5 100.5q0 92 -64 159 t-165 67q-61 0 -133 -46.5t-148 -117.5q-67 -62 -131 -138.5t-104 -138.5h174q86 0 204.5 9.5t184.5 29.5zM2365 0zM1942 1024h-148v148h148v-148z" arabic-form="final" glyph-name="afii62795" horiz-adv-x="2384" unicode="ض"/><glyph d="M1460 408q0 -84 -38.5 -158.5t-115.5 -129.5t-192 -87.5t-272 -32.5h-400q-64 0 -117 19.5t-94 62.5q-38 -42 -90 -62t-118 -20h-46v188h50q67 0 93.5 51t26.5 140v10h168v-10q0 -55 11 -99t36 -67q71 118 157.5 226.5t179.5 192.5q91 83 187 133t181 50 q166 0 279.5 -112.5t113.5 -294.5zM1112 227q101 31 141.5 72.5t40.5 103.5q0 92 -65.5 159t-163.5 67q-61 0 -133 -46.5t-148 -117.5q-67 -62 -131 -138.5t-104 -138.5h174q86 0 204 9.5t185 29.5zM601 939h-148v148h148v-148z" arabic-form="initial" glyph-name="afii62793" horiz-adv-x="1552" unicode="ض"/><glyph d="M1593 0h-139q-49 0 -109 21.5t-100 58.5q-51 -33 -159.5 -56.5t-180.5 -23.5h-463q-64 0 -117 19.5t-94 62.5q-38 -42 -90 -62t-118 -20h-46v188h50q67 0 93.5 51t26.5 140v10h168v-10q0 -58 11 -104t36 -68q72 120 158 228t179 194q89 82 187 134t181 52 q161 0 277 -109.5t116 -297.5q0 -50 -15.5 -102.5t-45.5 -92.5q25 -13 47 -19t53 -6h94v-188zM1098 227q86 24 141 65t55 111q0 86 -62 156t-167 70q-61 0 -133 -46.5t-148 -117.5q-67 -62 -131 -138.5t-104 -138.5h174q75 0 190 9.5t185 29.5zM1552 0zM601 939h-148v148 h148v-148z" arabic-form="medial" glyph-name="afii62794" horiz-adv-x="1571" unicode="ض"/><glyph d="M1329 408q0 -84 -39 -158.5t-116 -129.5t-192.5 -87.5t-272.5 -32.5h-729v188h196l11.5 9t24.5 23q15 16 25.5 29t10.5 27v1280h166v-1079q118 142 260 240t260 98q166 0 280.5 -111.5t114.5 -295.5zM1163 403q0 97 -69 161.5t-162 64.5q-61 0 -133 -46.5t-148 -117.5 q-67 -62 -131 -138.5t-104 -138.5h174q86 0 204.5 9.5t185.5 29.5q83 24 133 65t50 111z" arabic-form="isolated" glyph-name="afii57431" horiz-adv-x="1380" unicode="ط"/><glyph d="M1462 0h-139q-52 0 -109.5 20.5t-97.5 59.5q-59 -34 -129 -57t-174 -23h-833v188h196l11.5 9t24.5 23q15 16 25.5 29t10.5 27v1280h166v-1079q118 142 260 240t260 98q162 0 278.5 -110.5t116.5 -296.5q0 -63 -20.5 -117.5t-40.5 -77.5q25 -13 47 -19t53 -6h94v-188z M979 227q100 31 141 73.5t41 102.5q0 86 -62 156t-167 70q-61 0 -133 -46.5t-148 -117.5q-67 -62 -131 -138.5t-104 -138.5h174q86 0 204 9.5t185 29.5zM1380 0z" arabic-form="final" glyph-name="afii62798" horiz-adv-x="1442" unicode="ط"/><glyph d="M1329 408q0 -84 -39 -158.5t-116 -129.5t-192.5 -87.5t-272.5 -32.5h-729v188h196l11.5 9t24.5 23q15 16 25.5 29t10.5 27v1280h166v-1079q118 142 260 240t260 98q166 0 280.5 -111.5t114.5 -295.5zM1163 403q0 97 -69 161.5t-162 64.5q-61 0 -133 -46.5t-148 -117.5 q-67 -62 -131 -138.5t-104 -138.5h174q86 0 204.5 9.5t185.5 29.5q83 24 133 65t50 111z" arabic-form="initial" glyph-name="afii62796" horiz-adv-x="1380" unicode="ط"/><glyph d="M1462 0h-139q-52 0 -109.5 20.5t-97.5 59.5q-59 -34 -129 -57t-174 -23h-833v188h196l11.5 9t24.5 23q15 16 25.5 29t10.5 27v1280h166v-1079q118 142 260 240t260 98q162 0 278.5 -110.5t116.5 -296.5q0 -63 -20.5 -117.5t-40.5 -77.5q25 -13 47 -19t53 -6h94v-188z M979 227q100 31 141 73.5t41 102.5q0 86 -62 156t-167 70q-61 0 -133 -46.5t-148 -117.5q-67 -62 -131 -138.5t-104 -138.5h174q86 0 204 9.5t185 29.5zM1380 0z" arabic-form="medial" glyph-name="afii62797" horiz-adv-x="1442" unicode="ط"/><glyph d="M1329 408q0 -84 -39 -158.5t-116 -129.5t-192.5 -87.5t-272.5 -32.5h-729v188h196l11.5 9t24.5 23q15 16 25.5 29t10.5 27v1280h166v-1079q118 142 260 240t260 98q166 0 280.5 -111.5t114.5 -295.5zM1163 403q0 97 -69 161.5t-162 64.5q-61 0 -133 -46.5t-148 -117.5 q-67 -62 -131 -138.5t-104 -138.5h174q86 0 204.5 9.5t185.5 29.5q83 24 133 65t50 111zM824 1063h-148v148h148v-148z" arabic-form="isolated" glyph-name="afii57432" horiz-adv-x="1380" unicode="ظ"/><glyph d="M1462 0h-139q-52 0 -109.5 20.5t-97.5 59.5q-59 -34 -129 -57t-174 -23h-833v188h196l11.5 9t24.5 23q15 16 25.5 29t10.5 27v1280h166v-1079q118 142 260 240t260 98q162 0 278.5 -110.5t116.5 -296.5q0 -63 -20.5 -117.5t-40.5 -77.5q25 -13 47 -19t53 -6h94v-188z M979 227q100 31 141 73.5t41 102.5q0 86 -62 156t-167 70q-61 0 -133 -46.5t-148 -117.5q-67 -62 -131 -138.5t-104 -138.5h174q86 0 204 9.5t185 29.5zM1380 0zM824 1063h-148v148h148v-148z" arabic-form="final" glyph-name="afii62801" horiz-adv-x="1442" unicode="ظ"/><glyph d="M1329 408q0 -84 -39 -158.5t-116 -129.5t-192.5 -87.5t-272.5 -32.5h-729v188h196l11.5 9t24.5 23q15 16 25.5 29t10.5 27v1280h166v-1079q118 142 260 240t260 98q166 0 280.5 -111.5t114.5 -295.5zM1163 403q0 97 -69 161.5t-162 64.5q-61 0 -133 -46.5t-148 -117.5 q-67 -62 -131 -138.5t-104 -138.5h174q86 0 204.5 9.5t185.5 29.5q83 24 133 65t50 111zM824 1063h-148v148h148v-148z" arabic-form="initial" glyph-name="afii62799" horiz-adv-x="1380" unicode="ظ"/><glyph d="M1462 0h-139q-52 0 -109.5 20.5t-97.5 59.5q-59 -34 -129 -57t-174 -23h-833v188h196l11.5 9t24.5 23q15 16 25.5 29t10.5 27v1280h166v-1079q118 142 260 240t260 98q162 0 278.5 -110.5t116.5 -296.5q0 -63 -20.5 -117.5t-40.5 -77.5q25 -13 47 -19t53 -6h94v-188z M979 227q100 31 141 73.5t41 102.5q0 86 -62 156t-167 70q-61 0 -133 -46.5t-148 -117.5q-67 -62 -131 -138.5t-104 -138.5h174q86 0 204 9.5t185 29.5zM1380 0zM824 1063h-148v148h148v-148z" arabic-form="medial" glyph-name="afii62800" horiz-adv-x="1442" unicode="ظ"/><glyph d="M1094 -319q-76 -47 -193.5 -76t-238.5 -29q-274 0 -427 131t-153 346q0 119 54 210.5t151 152.5q-40 23 -88.5 93t-48.5 153q0 175 111.5 284t289.5 109q73 0 137.5 -12.5t75.5 -14.5v-188h-10q-26 7 -84.5 18.5t-110.5 11.5q-118 0 -181 -59.5t-63 -153.5q0 -53 36 -103 t73 -69l477 170v-174l-424 -149q-115 -40 -172 -113.5t-57 -163.5q0 -132 110 -213.5t301 -81.5q105 0 230 41.5t194 92.5h11v-213z" arabic-form="isolated" glyph-name="afii57433" horiz-adv-x="1241" unicode="ع"/><glyph d="M1118 -322q-74 -45 -207.5 -73.5t-248.5 -28.5q-252 0 -411 127.5t-159 339.5q0 65 22.5 126t68.5 111q40 46 94 79t108 57l-37 33q-108 96 -148 162.5t-40 127.5q0 60 39 104.5t98 74.5q54 28 130 43.5t134 15.5q63 0 133 -14t130 -43q61 -30 100 -75t39 -110 q0 -72 -31 -129t-75 -97t-97 -70t-96 -48l-33 -14l49 -43q72 -64 152.5 -105t185.5 -41h203v-188h-207q-63 0 -121 19.5t-115 55.5q-51 32 -107.5 80l-107.5 95l-67 61q-106 -49 -172 -113.5t-66 -154.5q0 -126 107.5 -203.5t293.5 -77.5q114 0 247.5 40t201.5 89h10v-213z M793 692q0 43 -53 68.5t-179 25.5q-120 0 -175.5 -26.5t-55.5 -65.5q0 -24 45 -75t104 -103l45 -39l23 8q134 55 190 101.5t56 105.5z" arabic-form="final" glyph-name="afii62804" horiz-adv-x="1200" unicode="ع"/><glyph d="M1137 162q-289 -78 -479.5 -120t-331.5 -42h-346v188h423q-85 40 -149 129.5t-64 198.5q0 188 127.5 305t319.5 117q120 0 227.5 -23t173.5 -59v-213h-10q-66 48 -165 80.5t-218 32.5q-131 0 -210 -69t-79 -175q0 -90 72.5 -167t189.5 -114q91 13 260 56t259 69v-194z" arabic-form="initial" glyph-name="afii62802" horiz-adv-x="1214" unicode="ع"/><glyph d="M1012 0h-189q-96 0 -178.5 39t-150.5 92q-69 -54 -150 -92.5t-180 -38.5h-187v188h191q64 0 109.5 13t78.5 32q-13 9 -53.5 40.5t-93.5 83.5q-56 53 -102 116.5t-46 114.5q0 66 44.5 112.5t109.5 76.5q71 32 146.5 44.5t132.5 12.5q64 0 138.5 -13t140.5 -41 q67 -29 111 -74t44 -114q0 -54 -49 -119t-100 -113q-61 -57 -99.5 -86l-50.5 -38q15 -9 70 -28.5t120 -19.5h193v-188zM628 408q54 40 94 76t40 59q0 32 -27.5 51.5t-68.5 30.5q-42 11 -91.5 14.5t-80.5 3.5q-124 0 -195.5 -27t-71.5 -71q0 -23 43.5 -63t90.5 -73 q53 -39 87 -60.5l46 -29.5q13 7 49 30t85 59z" arabic-form="medial" glyph-name="afii62803" horiz-adv-x="989" unicode="ع"/><glyph d="M1094 -319q-76 -47 -193.5 -76t-238.5 -29q-274 0 -427 131t-153 346q0 119 54 210.5t151 152.5q-40 23 -88.5 93t-48.5 153q0 175 111.5 284t289.5 109q73 0 137.5 -12.5t75.5 -14.5v-188h-10q-26 7 -84.5 18.5t-110.5 11.5q-118 0 -181 -59.5t-63 -153.5q0 -53 36 -103 t73 -69l477 170v-174l-424 -149q-115 -40 -172 -113.5t-57 -163.5q0 -132 110 -213.5t301 -81.5q105 0 230 41.5t194 92.5h11v-213zM625 1237h-148v148h148v-148z" arabic-form="isolated" glyph-name="afii57434" horiz-adv-x="1241" unicode="غ"/><glyph d="M1118 -322q-74 -45 -207.5 -73.5t-248.5 -28.5q-252 0 -411 127.5t-159 339.5q0 65 22.5 126t68.5 111q40 46 94 79t108 57l-37 33q-108 96 -148 162.5t-40 127.5q0 60 39 104.5t98 74.5q54 28 130 43.5t134 15.5q63 0 133 -14t130 -43q61 -30 100 -75t39 -110 q0 -72 -31 -129t-75 -97t-97 -70t-96 -48l-33 -14l49 -43q72 -64 152.5 -105t185.5 -41h203v-188h-207q-63 0 -121 19.5t-115 55.5q-51 32 -107.5 80l-107.5 95l-67 61q-106 -49 -172 -113.5t-66 -154.5q0 -126 107.5 -203.5t293.5 -77.5q114 0 247.5 40t201.5 89h10v-213z M793 692q0 43 -53 68.5t-179 25.5q-120 0 -175.5 -26.5t-55.5 -65.5q0 -24 45 -75t104 -103l45 -39l23 8q134 55 190 101.5t56 105.5zM627 1196h-148v148h148v-148z" arabic-form="final" glyph-name="afii62807" horiz-adv-x="1200" unicode="غ"/><glyph d="M1137 162q-289 -78 -479.5 -120t-331.5 -42h-346v188h423q-85 40 -149 129.5t-64 198.5q0 188 127.5 305t319.5 117q120 0 227.5 -23t173.5 -59v-213h-10q-66 48 -165 80.5t-218 32.5q-131 0 -210 -69t-79 -175q0 -90 72.5 -167t189.5 -114q91 13 260 56t259 69v-194z M738 1112h-148v148h148v-148z" arabic-form="initial" glyph-name="afii62805" horiz-adv-x="1214" unicode="غ"/><glyph d="M1012 0h-189q-96 0 -178.5 39t-150.5 92q-69 -54 -150 -92.5t-180 -38.5h-187v188h191q64 0 109.5 13t78.5 32q-13 9 -53.5 40.5t-93.5 83.5q-56 53 -102 116.5t-46 114.5q0 66 44.5 112.5t109.5 76.5q71 32 146.5 44.5t132.5 12.5q64 0 138.5 -13t140.5 -41 q67 -29 111 -74t44 -114q0 -54 -49 -119t-100 -113q-61 -57 -99.5 -86l-50.5 -38q15 -9 70 -28.5t120 -19.5h193v-188zM628 408q54 40 94 76t40 59q0 32 -27.5 51.5t-68.5 30.5q-42 11 -91.5 14.5t-80.5 3.5q-124 0 -195.5 -27t-71.5 -71q0 -23 43.5 -63t90.5 -73 q53 -39 87 -60.5l46 -29.5q13 7 49 30t85 59zM569 1023h-148v148h148v-148z" arabic-form="medial" glyph-name="afii62806" horiz-adv-x="989" unicode="غ"/><glyph d="M1696 467q0 -142 -67 -235.5t-183 -146.5q-113 -51 -270.5 -74t-350.5 -23q-368 0 -550.5 130t-182.5 371q0 79 8 138t9 67h163v-10q-5 -31 -9.5 -86t-4.5 -96q0 -71 28.5 -129.5t97.5 -102.5q73 -48 184 -71t259 -23q348 0 522.5 66.5t174.5 206.5v12q-18 -11 -66 -26 t-90 -15q-168 0 -266 89.5t-98 227.5q0 144 98 259.5t219 115.5q169 0 272 -174.5t103 -470.5zM1511 647q0 28 -12 74.5t-37 94.5q-26 50 -58.5 79t-70.5 29q-73 0 -115 -58t-42 -123q0 -59 53.5 -97t146.5 -38q38 0 76 12t59 27zM1264 1319h-148v148h148v-148z" arabic-form="isolated" glyph-name="afii57441" horiz-adv-x="1782" unicode="ف"/><glyph d="M1878 0h-186q-95 0 -188 26.5t-169 63.5q-83 -39 -164.5 -64.5t-193.5 -25.5h-156q-365 0 -547 130t-182 372q0 92 8 142l9 56h163v-10q-2 -10 -8 -65t-6 -111q0 -71 28.5 -129.5t95.5 -102.5q72 -48 182.5 -71t256.5 -23h160q78 0 126.5 11l61.5 14l-30.5 19t-53.5 47 q-32 33 -58 83t-26 113q0 152 91 255.5t237 103.5q140 0 236 -103t96 -254q0 -63 -24.5 -115t-56.5 -85q-31 -33 -53.5 -48t-27.5 -18q17 -6 70 -14.5t119 -8.5h190v-188zM1414 342q34 29 57.5 58.5t23.5 74.5q0 64 -46 116t-120 52q-67 0 -114.5 -49.5t-47.5 -118.5 q0 -38 26.5 -72.5t56.5 -59.5q33 -27 54.5 -39.5l28.5 -16.5q6 3 29 16.5t52 38.5zM1399 1024h-148v148h148v-148z" arabic-form="final" glyph-name="afii62810" horiz-adv-x="1855" unicode="ف"/><glyph d="M635 966q53 -78 84 -193t31 -263q0 -127 -54.5 -225t-138.5 -159q-84 -63 -185 -94.5t-198 -31.5h-197v188h199q68 0 140 18t129 53q64 39 98.5 91.5t34.5 116.5q-26 -15 -72 -28t-84 -13q-89 0 -157.5 25t-116.5 72q-46 45 -68.5 101.5t-22.5 118.5q0 143 98.5 259 t219.5 116q73 0 141 -39t119 -113zM565 653q0 28 -12 74.5t-37 94.5q-26 50 -58.5 79t-70.5 29q-64 0 -111 -54t-47 -126q0 -59 55 -97.5t146 -38.5q36 0 71.5 10.5t63.5 28.5zM386 1281h-148v148h148v-148z" arabic-form="initial" glyph-name="afii62808" horiz-adv-x="840" unicode="ف"/><glyph d="M1055 0h-187q-95 0 -188 26.5t-168 63.5q-83 -39 -164.5 -64.5t-193.5 -25.5h-177v188h181q78 0 127.5 11.5t60.5 13.5q-7 4 -30 18.5t-54 47.5q-32 33 -58 83t-26 113q0 153 91.5 256t236.5 103q138 0 235 -102t97 -255q0 -63 -24.5 -115t-56.5 -85q-31 -33 -52 -47.5 t-29 -18.5q18 -7 75.5 -15t112.5 -8h191v-188zM591 342q34 29 57.5 58.5t23.5 74.5q0 64 -46 116t-120 52q-69 0 -115.5 -50.5t-46.5 -117.5q0 -38 26.5 -72.5t56.5 -59.5q33 -27 54 -39.5t29 -16.5l30.5 17.5t50.5 37.5zM590 1024h-148v148h148v-148z" arabic-form="medial" glyph-name="afii62809" horiz-adv-x="1032" unicode="ف"/><glyph d="M1696 518q0 -143 -70 -273.5t-193 -229.5q-125 -101 -276.5 -156.5t-331.5 -55.5q-368 0 -550.5 130.5t-182.5 371.5q0 101 7.5 148.5t9.5 56.5h163v-10q-2 -16 -8 -68t-6 -115q0 -70 29 -129t97 -103t173 -68.5t270 -24.5q164 0 295 49t220 126q90 77 136 165t46 168v12 q-17 -10 -62.5 -25.5t-93.5 -15.5q-89 0 -157 25t-116 72q-46 45 -68.5 101.5t-22.5 118.5q0 146 99 260.5t218 114.5q166 0 270.5 -171t104.5 -474zM1511 698q0 28 -12 74.5t-37 94.5q-26 50 -58.5 79t-70.5 29q-74 0 -115.5 -55.5t-41.5 -124.5q0 -59 54.5 -97.5 t145.5 -38.5q46 0 84 14.5t51 24.5zM1456 1370h-147v148h147v-148zM1188 1370h-148v148h148v-148z" arabic-form="isolated" glyph-name="afii57442" horiz-adv-x="1782" unicode="ق"/><glyph d="M1843 0h-147q-18 -132 -85 -215.5t-181 -130.5q-112 -45 -262 -61.5t-343 -16.5q-368 0 -550.5 130t-182.5 372q0 100 7.5 147.5t9.5 57.5h163v-11q-3 -18 -8.5 -75t-5.5 -107q0 -69 29.5 -129t96.5 -103q73 -48 184 -71t259 -23q365 0 520 55.5t175 180.5h-58 q-81 0 -163.5 16.5t-148.5 55.5t-107 103.5t-41 160.5q0 145 98.5 260t218.5 115q146 0 249 -150.5t118 -372.5h155v-188zM1304 213q53 -15 107.5 -20t101.5 -5q-14 156 -65.5 245t-114.5 89q-72 0 -114.5 -56t-42.5 -124q0 -52 38 -83t90 -46zM1215 969h-148v148h148v-148z M1483 969h-148v148h148v-148z" arabic-form="final" glyph-name="afii62813" horiz-adv-x="1821" unicode="ق"/><glyph d="M635 966q53 -78 84 -193t31 -263q0 -127 -54.5 -225t-138.5 -159q-84 -63 -185 -94.5t-198 -31.5h-197v188h199q68 0 140 18t129 53q64 39 98.5 91.5t34.5 116.5q-26 -15 -72 -28t-84 -13q-89 0 -157.5 25t-116.5 72q-46 45 -68.5 101.5t-22.5 118.5q0 143 98.5 259 t219.5 116q73 0 141 -39t119 -113zM565 653q0 28 -12 74.5t-37 94.5q-26 50 -58.5 79t-70.5 29q-64 0 -111 -54t-47 -126q0 -59 55 -97.5t146 -38.5q36 0 71.5 10.5t63.5 28.5zM293 1281h-148v148h148v-148zM561 1281h-148v148h148v-148z" arabic-form="initial" glyph-name="afii62811" horiz-adv-x="840" unicode="ق"/><glyph d="M1055 0h-187q-95 0 -188 26.5t-168 63.5q-83 -39 -164.5 -64.5t-193.5 -25.5h-177v188h181q78 0 127.5 11.5t60.5 13.5q-7 4 -30 18.5t-54 47.5q-32 33 -58 83t-26 113q0 153 91.5 256t236.5 103q138 0 235 -102t97 -255q0 -63 -24.5 -115t-56.5 -85q-31 -33 -52 -47.5 t-29 -18.5q18 -7 75.5 -15t112.5 -8h191v-188zM591 342q34 29 57.5 58.5t23.5 74.5q0 64 -46 116t-120 52q-69 0 -115.5 -50.5t-46.5 -117.5q0 -38 26.5 -72.5t56.5 -59.5q33 -27 54 -39.5t29 -16.5l30.5 17.5t50.5 37.5zM445 1024h-148v148h148v-148zM713 1024h-148v148 h148v-148z" arabic-form="medial" glyph-name="afii62812" horiz-adv-x="1032" unicode="ق"/><glyph d="M1362 453q0 -222 -103 -337.5t-276 -115.5h-514q-74 0 -144 12t-121 45q-52 34 -82 95t-30 157q0 39 3.5 75.5t4.5 45.5h168v-10q-1 -8 -5.5 -35.5t-4.5 -73.5q0 -69 57 -96t154 -27h518q59 0 101 24.5t65 63.5q22 36 32.5 84t10.5 105v1091h166v-1103zM924 735 q0 -85 -101 -135.5t-262 -50.5v94q116 0 193 21t77 61q0 18 -19.5 30t-55.5 21l-76 19q-53 12 -85 45t-32 88q0 70 69.5 113.5t201.5 43.5v-90q-93 0 -138 -17.5t-45 -47.5q0 -18 20 -31.5t56 -21.5l84 -21q45 -10 79 -37t34 -84z" arabic-form="isolated" glyph-name="afii57443" horiz-adv-x="1485" unicode="ك"/><glyph d="M1661 0h-139q-61 0 -139.5 38t-112.5 93q-50 -64 -119.5 -97.5t-167.5 -33.5h-514q-74 0 -144 12t-121 45q-52 34 -82 95t-30 157q0 39 3.5 76t4.5 45h168v-10q-2 -15 -6 -39t-4 -70q0 -69 56.5 -96t154.5 -27h518q59 0 101 24.5t65 63.5q22 36 32.5 84t10.5 105v1091 h166v-1097q0 -120 61 -195.5t144 -75.5h94v-188zM924 735q0 -85 -101 -135.5t-262 -50.5v94q116 0 193 21t77 61q0 18 -19.5 30t-55.5 21l-76 19q-53 12 -85 45t-32 88q0 70 69.5 113.5t201.5 43.5v-90q-93 0 -138 -17.5t-45 -47.5q0 -18 20 -31.5t56 -21.5l84 -21 q45 -10 79 -37t34 -84zM1485 0z" arabic-form="final" glyph-name="afii62816" horiz-adv-x="1638" unicode="ك"/><glyph d="M862 1333l-559 -268q-32 -15 -72.5 -37.5t-40.5 -38.5t37.5 -49l85.5 -72l267 -219q96 -79 137 -153.5t41 -151.5q0 -69 -23 -134t-68 -109q-51 -50 -125.5 -75.5t-170.5 -25.5h-394v188h392q111 0 167 40.5t56 113.5q0 45 -41.5 104.5t-161.5 157.5l-274 225 q-47 39 -81 79.5t-34 88.5q0 70 56.5 121t164.5 103l641 309v-197z" arabic-form="initial" glyph-name="afii57410" horiz-adv-x="983" unicode="ك"/><glyph d="M1112 0h-139q-79 0 -154 28.5t-125 80.5q-51 -56 -126.5 -82.5t-176.5 -26.5h-414v188h412q112 0 167.5 40.5t55.5 113.5q0 43 -54 105.5t-169 156.5l-274 225q-47 39 -81 79.5t-34 88.5q0 73 61.5 125.5t159.5 98.5l641 309v-197l-559 -268q-32 -15 -72.5 -37.5 t-40.5 -38.5t37.5 -49l85.5 -72l267 -219q112 -93 155 -161t43 -144v-14q0 -65 53.5 -103.5t137.5 -38.5h143v-188zM983 0z" arabic-form="medial" glyph-name="afii62815" horiz-adv-x="1090" unicode="ك"/><glyph d="M1202 440q0 -212 -158.5 -332t-443.5 -120q-277 0 -392.5 100.5t-115.5 341.5q0 78 10 161l11 91h172v-10q-3 -14 -15 -100t-12 -140q0 -77 13.5 -123t47.5 -75q36 -30 103.5 -44t179.5 -14q114 0 196.5 24t134.5 63q54 41 78.5 89t24.5 101v1103h166v-1116z" arabic-form="isolated" glyph-name="afii57444" horiz-adv-x="1325" unicode="ل"/><glyph d="M1503 0h-139q-37 0 -81.5 13.5t-80.5 35.5v-51q0 -204 -154 -313t-448 -109q-277 0 -392.5 97.5t-115.5 338.5q0 78 9.5 158t11.5 94h172v-10q-5 -24 -16 -106.5t-11 -133.5q0 -72 13.5 -116.5t47.5 -73.5q39 -32 108 -46t175 -14q205 0 319.5 65t114.5 181v1546h166 v-1130q0 -112 57.5 -175t149.5 -63h94v-188zM1325 0z" arabic-form="final" glyph-name="afii62819" horiz-adv-x="1481" unicode="ل"/><glyph d="M442 453q0 -217 -101.5 -335t-277.5 -118h-83v188h88q59 0 101 24.5t64 63.5q22 36 32.5 84t10.5 105v1091h166v-1103z" arabic-form="initial" glyph-name="afii62817" horiz-adv-x="575" unicode="ل"/><glyph d="M741 0h-139q-62 0 -136.5 33t-107.5 90q-35 -59 -105 -91t-136 -32h-140v188h95q90 0 146 62t56 176v1128h168v-1128q0 -109 55.5 -173.5t149.5 -64.5h94v-188zM575 0z" arabic-form="medial" glyph-name="afii62818" horiz-adv-x="719" unicode="ل"/><glyph d="M983 655q57 -57 90 -138.5t33 -178.5q0 -153 -92.5 -253.5t-233.5 -100.5q-67 0 -123.5 20t-100.5 51q-43 31 -71.5 65.5t-44.5 67.5q-101 -272 -246.5 -414t-351.5 -198v207q159 37 252 131.5t152 226.5q39 89 74 204.5t78 204.5q49 106 123.5 164t183.5 58 q80 0 150 -29.5t128 -87.5zM940 328q0 36 -11.5 80.5t-38.5 85.5q-27 38 -66 63t-97 25q-79 0 -127.5 -47t-48.5 -121q0 -101 60 -173.5t157 -72.5q80 0 126 46t46 114z" arabic-form="isolated" glyph-name="afii57445" horiz-adv-x="1210" unicode="م"/><glyph d="M1191 67q-36 32 -61 64.5t-47 67.5q-26 -84 -106.5 -149.5t-198.5 -65.5q-67 0 -123.5 20t-100.5 51q-43 31 -71.5 65.5t-44.5 67.5q-94 -257 -241 -406t-357 -206v207q152 36 245 125t159 235q39 89 74 204t78 204q49 105 124 163t182 58t203 -57t150 -160l68 -126.5 t71 -119.5q38 -55 78.5 -88t83.5 -33h73v-188h-73q-46 0 -89 19t-76 48zM940 328q0 36 -11.5 80.5t-38.5 85.5q-27 38 -66 63t-97 25q-81 0 -128.5 -48t-47.5 -120q0 -103 60.5 -174.5t156.5 -71.5q81 0 126.5 47t45.5 113zM1106 338zM1210 0z" arabic-form="final" glyph-name="afii62822" horiz-adv-x="1407" unicode="م"/><glyph d="M942 338q0 -153 -92.5 -253.5t-233.5 -100.5q-88 0 -172 40.5t-139 116.5q-51 -71 -119.5 -106t-175.5 -35h-33v188h37q99 0 150 62t57 174q8 152 94 250t226 98q78 0 149.5 -30t128.5 -87q58 -58 90.5 -138.5t32.5 -178.5zM776 328q0 36 -11.5 80.5t-38.5 85.5 q-27 38 -66 63t-97 25q-52 0 -84.5 -16t-55.5 -44q-18 -22 -27 -55.5t-9 -67.5q0 -40 14 -79t42 -74q29 -35 67.5 -56.5t93.5 -21.5q81 0 126.5 47t45.5 113z" arabic-form="initial" glyph-name="afii62820" horiz-adv-x="1044" unicode="م"/><glyph d="M817 53q-39 -32 -84 -50.5t-113 -18.5q-102 0 -184.5 46.5t-130.5 110.5q-39 -62 -114 -101.5t-206 -39.5h-8v188h33q94 0 146.5 54.5t64.5 179.5q7 75 27 134t60 111q38 48 97.5 76.5t140.5 28.5q121 0 215.5 -67.5t155.5 -202.5q63 -139 140.5 -226.5t138.5 -87.5h69 v-188h-65q-75 0 -144.5 44.5t-136.5 152.5q-15 -37 -41 -77t-61 -67zM776 326q0 104 -59 180t-150 76q-85 0 -132.5 -46.5t-47.5 -123.5q0 -98 62.5 -171t156.5 -73q76 0 123 46t47 112zM942 338zM1044 0z" arabic-form="medial" glyph-name="afii62821" horiz-adv-x="1243" unicode="م"/><glyph d="M1264 530q0 -144 -47 -247.5t-126 -168.5q-78 -64 -182 -96t-229 -32q-119 0 -226.5 31t-187.5 97q-81 67 -127.5 170t-46.5 246q0 101 12.5 199t14.5 111h182v-17q-12 -39 -27.5 -129.5t-15.5 -165.5q0 -160 124 -257t294 -97t296 95.5t126 258.5q0 75 -15.5 165.5 t-27.5 129.5v17h182q2 -13 14.5 -111t12.5 -199zM754 977h-148v147h148v-147z" arabic-form="isolated" glyph-name="afii57446" horiz-adv-x="1356" unicode="ن"/><glyph d="M1565 0h-140q-37 0 -82 13t-81 38q0 -216 -156 -345.5t-426 -129.5q-124 0 -233.5 28.5t-186.5 88.5q-79 62 -123.5 160t-44.5 239q0 100 12 191t15 118h182v-16q-11 -36 -27 -128.5t-16 -166.5q0 -154 116 -240t302 -86q181 0 301.5 88t120.5 238q0 114 -14 195.5 t-17 97.5v18h199q0 -91 61 -152t143 -61h95v-188zM754 569h-148v148h148v-148zM1356 0z" arabic-form="final" glyph-name="afii62825" horiz-adv-x="1542" unicode="ن"/><glyph d="M440 453q0 -213 -101 -333t-278 -120h-84v188h89q102 0 155 73t53 204v252h166v-264zM332 968h-148v148h148v-148z" arabic-form="initial" glyph-name="afii62823" horiz-adv-x="573" unicode="ن"/><glyph d="M741 0h-139q-62 0 -136.5 33t-107.5 90q-35 -59 -105 -91t-136 -32h-140v188h95q90 0 146 62t56 176v121h168v-121q0 -108 56.5 -173t148.5 -65h94v-188zM392 813h-148v148h148v-148z" arabic-form="medial" glyph-name="afii62824" horiz-adv-x="719" unicode="ن"/><glyph d="M872 403q0 -195 -109.5 -305t-289.5 -110q-161 0 -271 117.5t-110 295.5q0 118 58 204t202 173l68 41l-135 152h233l238 -269q53 -59 84.5 -132.5t31.5 -166.5zM633 230q34 30 54 69t20 104q0 57 -54.5 139t-113.5 148l-21 23l-67 -41q-85 -51 -139 -114.5t-54 -154.5 q0 -89 64.5 -158t150.5 -69q40 0 85 14t75 40z" arabic-form="isolated" glyph-name="afii57447" horiz-adv-x="965" unicode="ه"/><glyph d="M1198 0h-86q-90 0 -160.5 34t-119.5 88q-50 55 -75.5 123.5t-25.5 135.5q-52 -49 -135.5 -83t-183.5 -34q-146 0 -238 90t-92 234q0 101 47 175t132 124q83 49 206 76t264 34l168 9v-541q0 -55 9 -102t34 -87q25 -41 62.5 -64.5t103.5 -23.5h90v-188zM731 553v295 q-103 -5 -184 -20t-141 -42q-61 -28 -95.5 -77t-34.5 -119q0 -64 42.5 -109t117.5 -45q77 0 162.5 38t132.5 79z" arabic-form="final" glyph-name="afii62828" horiz-adv-x="1176" unicode="ه"/><glyph d="M1286 344q0 -170 -93.5 -257t-252.5 -87h-963v188h248q-16 37 -31.5 95.5t-15.5 107.5q0 187 93 289t243 102q149 0 242.5 -100.5t93.5 -290.5q0 -53 -9.5 -106t-29.5 -97h127q76 0 129 42t53 112q0 93 -43.5 169t-148.5 196q-111 126 -182 167t-179 41h-153v189h151 q113 0 229 -69.5t255 -229.5q119 -137 178 -240.5t59 -220.5zM684 391q0 96 -46 149.5t-124 53.5q-79 0 -124.5 -52.5t-45.5 -150.5q0 -96 46 -149.5t124 -53.5q79 0 124.5 52.5t45.5 150.5z" arabic-form="initial" glyph-name="afii57470" horiz-adv-x="1376" unicode="ه"/><glyph d="M1149 0h-94q-171 0 -353 -112.5t-337 -311.5h-154v430q-19 -3 -46 -4.5t-44 -1.5h-144v188h138h14.5t27.5 2q14 1 30 2t24 3v225q0 178 89.5 286.5t231.5 108.5q117 0 197 -87.5t80 -227.5q0 -134 -115 -256.5t-323 -198.5v-201q146 170 330 257t362 87h86v-188zM545 320 q46 36 75 77t29 99q0 53 -29 92t-79 39q-77 0 -123.5 -57.5t-46.5 -153.5v-185q37 12 83.5 33t90.5 56z" arabic-form="final" glyph-name="afii62827" horiz-adv-x="1126" unicode="ھ"/><glyph d="M760 186q0 -186 -90 -316t-249 -196q-127 -55 -261 -76.5t-279 -21.5v188q132 0 248.5 16.5t202.5 49.5q116 44 186 121t70 203q-14 -9 -63.5 -25t-92.5 -16q-172 0 -268 91.5t-96 225.5q0 152 98.5 263.5t218.5 111.5q166 0 270.5 -173t104.5 -446zM575 340 q0 28 -12 74.5t-37 94.5q-22 42 -56 74.5t-73 32.5q-69 0 -113 -56.5t-44 -123.5q0 -59 54.5 -97t145.5 -38q43 0 81 13.5t54 25.5z" arabic-form="isolated" glyph-name="afii57448" horiz-adv-x="854" unicode="و"/><glyph d="M932 0h-199q-44 -137 -143.5 -223t-239.5 -133q-127 -43 -252 -55.5t-217 -12.5v188q75 0 182 8t195 31q117 32 188 81t107 120q-147 12 -240.5 57t-149.5 110q-54 62 -74.5 132t-20.5 127q0 150 97.5 262.5t219.5 112.5q166 0 270.5 -173t104.5 -444h172v-188zM299 294 q36 -37 105.5 -67t183.5 -37q-5 200 -58 313t-133 113q-69 0 -113 -56.5t-44 -123.5q0 -29 10 -66t49 -76zM854 0z" arabic-form="final" glyph-name="afii62829" horiz-adv-x="909" unicode="و"/><glyph d="M1698 846h-10q-70 43 -164 75.5t-207 32.5q-94 0 -168 -40t-74 -103q0 -53 106.5 -95l190.5 -73q51 -19 108.5 -46.5t95.5 -56.5q44 -32 68.5 -69t24.5 -90q0 -187 -242 -284t-720 -97q-319 0 -467 106.5t-148 335.5q0 78 9.5 156t11.5 96h172v-10q-3 -15 -15 -99.5 t-12 -140.5q0 -140 102.5 -198t348.5 -58q401 0 597.5 50.5t196.5 140.5q0 46 -106.5 86l-190.5 72q-54 21 -108.5 48t-95.5 59q-42 33 -67.5 74.5t-25.5 94.5q0 130 116 228t294 98q122 0 216.5 -24t162.5 -56v-213z" arabic-form="isolated" glyph-name="afii57449" horiz-adv-x="1786" unicode="ى"/><glyph d="M2064 0h-30q-73 0 -129 23t-103 63q-48 41 -85 91t-68 99l-63 100.5t-65 90.5q-34 39 -73.5 62.5t-87.5 23.5q-77 0 -116.5 -31t-39.5 -63q0 -30 54.5 -75.5l93.5 -77.5q71 -59 109 -110.5t38 -101.5q0 -205 -193.5 -313.5t-598.5 -108.5q-316 0 -465.5 107.5 t-149.5 339.5q0 79 9.5 155t11.5 93h172v-11q-3 -16 -15 -97t-12 -138q0 -139 101 -199.5t350 -60.5q311 0 467.5 54t156.5 171q0 41 -50 82.5l-97 77.5q-83 62 -115.5 112.5t-32.5 102.5q0 102 92 191t230 89q66 0 118.5 -24t94.5 -62q39 -35 79 -90t69 -101l66 -100 t69 -90q39 -41 78.5 -63.5t95.5 -22.5h34v-188z" arabic-form="final" glyph-name="afii62830" horiz-adv-x="2042" unicode="ى"/><glyph d="M1698 846h-10q-70 43 -164 75.5t-207 32.5q-94 0 -168 -40t-74 -103q0 -53 106.5 -95l190.5 -73q51 -19 108.5 -46.5t95.5 -56.5q44 -32 68.5 -69t24.5 -90q0 -187 -242 -284t-720 -97q-319 0 -467 106.5t-148 335.5q0 78 9.5 156t11.5 96h172v-10q-3 -15 -15 -99.5 t-12 -140.5q0 -140 102.5 -198t348.5 -58q401 0 597.5 50.5t196.5 140.5q0 46 -106.5 86l-190.5 72q-54 21 -108.5 48t-95.5 59q-42 33 -67.5 74.5t-25.5 94.5q0 130 116 228t294 98q122 0 216.5 -24t162.5 -56v-213zM685 -291h-148v148h148v-148zM953 -291h-148v148h148 v-148z" arabic-form="isolated" glyph-name="afii57450" horiz-adv-x="1786" unicode="ي"/><glyph d="M2064 0h-30q-73 0 -129 23t-103 63q-48 41 -85 91t-68 99l-63 100.5t-65 90.5q-34 39 -73.5 62.5t-87.5 23.5q-77 0 -116.5 -31t-39.5 -63q0 -30 53.5 -60l94.5 -53q72 -40 109.5 -83.5t37.5 -98.5q0 -165 -183.5 -248.5t-608.5 -83.5q-293 0 -454 115t-161 344 q0 50 6.5 104.5t7.5 65.5h173v-10q-1 -5 -11 -62t-10 -96q0 -131 115 -202t336 -71q322 0 473 36t151 100q0 37 -47 65.5t-100 55.5q-68 35 -108 78.5t-40 105.5q0 103 91.5 191.5t230.5 88.5q66 0 118.5 -24t94.5 -62q39 -35 79 -90t69 -101l66 -100t69 -90 q39 -41 78.5 -63.5t95.5 -22.5h34v-188zM510 -276h147v-148h-147v148zM778 -276h148v-148h-148v148z" arabic-form="final" glyph-name="afii62833" horiz-adv-x="2042" unicode="ي"/><glyph d="M440 453q0 -213 -101 -333t-278 -120h-84v188h89q102 0 155 73t53 204v252h166v-264zM130 -310h-148v148h148v-148zM398 -310h-148v148h148v-148z" arabic-form="initial" glyph-name="afii62831" horiz-adv-x="573" unicode="ي"/><glyph d="M741 0h-139q-62 0 -136.5 33t-107.5 90q-35 -59 -105 -91t-136 -32h-140v188h95q90 0 146 62t56 176v121h168v-121q0 -108 56.5 -173t148.5 -65h94v-188zM181 -310h-148v148h148v-148zM449 -310h-148v148h148v-148z" arabic-form="medial" glyph-name="afii62832" horiz-adv-x="719" unicode="ی"/><glyph d="M872 403q0 -195 -109.5 -305t-289.5 -110q-161 0 -271 117.5t-110 295.5q0 118 58 204t202 173l68 41l-135 152h233l238 -269q53 -59 84.5 -132.5t31.5 -166.5zM633 230q34 30 54 69t20 104q0 57 -54.5 139t-113.5 148l-21 23l-67 -41q-85 -51 -139 -114.5t-54 -154.5 q0 -89 64.5 -158t150.5 -69q40 0 85 14t75 40zM424 1117h-336v94h74q-24 13 -39.5 42t-15.5 60q0 64 47 112t127 48q53 0 78.5 -6t35.5 -10v-101h-6q-14 6 -47.5 14.5t-58.5 8.5q-44 0 -66 -18t-22 -48q0 -45 46 -73.5t109 -28.5h74v-94z" arabic-form="isolated" glyph-name="Ufba4" horiz-adv-x="965" unicode="ۀ"/><glyph d="M1198 0h-86q-90 0 -160.5 34t-119.5 88q-50 55 -75.5 123.5t-25.5 135.5q-52 -49 -135.5 -83t-183.5 -34q-146 0 -238 90t-92 234q0 101 47 175t132 124q83 49 206 76t264 34l168 9v-541q0 -55 9 -102t34 -87q25 -41 62.5 -64.5t103.5 -23.5h90v-188zM731 553v295 q-103 -5 -184 -20t-141 -42q-61 -28 -95.5 -77t-34.5 -119q0 -64 42.5 -109t117.5 -45q77 0 162.5 38t132.5 79zM474 1167h-336v94h74q-24 13 -39.5 42t-15.5 60q0 64 47 112t127 48q53 0 78.5 -6t35.5 -10v-101h-6q-14 6 -47.5 14.5t-58.5 8.5q-44 0 -66 -18t-22 -48 q0 -45 46 -73.5t109 -28.5h74v-94z" arabic-form="final" glyph-name="Ufba5" horiz-adv-x="1176" unicode="ۀ"/><glyph d="M440 453q0 -213 -101 -333t-278 -120h-84v188h89q102 0 155 73t53 204v252h166v-264zM167 -318h-148v148h148v-148zM435 -318h-148v148h148v-148z" arabic-form="initial" glyph-name="uniFBFE" horiz-adv-x="573" unicode="ی"/><glyph d="M1086 199q110 23 183 71q68 45 97 103t29 129q0 31 -11 90.5l-16 85.5v10h172l13 -88.5t8 -110.5q0 -242 -181.5 -371.5t-554.5 -129.5q-368 0 -550.5 130t-182.5 371q0 55 8 110.5l13 88.5h172v-10l-16 -85.5t-11 -90.5q0 -71 28.5 -129.5t97.5 -102.5q73 -48 184 -71 t259 -23q149 0 259 23zM1093 981q0 -89 -88 -133q-67 -33 -160 -33h-289v92h82q21 16 21 24v500h83v-397q104 113 190 113q71 0 116 -47t45 -119zM1009 979q0 32 -22.5 54.5t-55.5 22.5q-72 0 -179 -149h48q209 0 209 72z" arabic-form="isolated" glyph-name="uni0679" horiz-adv-x="1653" unicode="ٹ"/><glyph d="M1941 0h-139q-62 0 -136 33t-107 90q-42 -58 -121 -90.5t-189 -32.5h-424q-368 0 -550.5 130t-182.5 372q0 73 8.5 126t12.5 72h172v-10q-4 -15 -15.5 -75.5t-11.5 -100.5q0 -69 29.5 -129t96.5 -103q73 -48 184 -71t259 -23h261h116q140 0 205.5 59t65.5 179 q0 27 -5.5 60t-7.5 46v15h170q3 -18 6.5 -65.5t3.5 -63.5q0 -96 52 -163t153 -67h94v-188zM1193 981q0 -89 -88 -133q-67 -33 -160 -33h-289v92h82q21 16 21 24v500h83v-397q104 113 190 113q71 0 116 -47t45 -119zM1109 979q0 32 -22.5 54.5t-55.5 22.5q-72 0 -179 -149h48 q209 0 209 72z" arabic-form="final" glyph-name="unifb67" horiz-adv-x="1919" unicode="ٹ"/><glyph d="M440 453q0 -213 -101 -333t-278 -120h-84v188h89q102 0 155 73t53 204v252h166v-264zM581 981q0 -89 -88 -133q-67 -33 -160 -33h-289v92h82q21 16 21 24v500h83v-397q104 113 190 113q71 0 116 -47t45 -119zM497 979q0 32 -22.5 54.5t-55.5 22.5q-72 0 -179 -149h48 q209 0 209 72z" arabic-form="initial" glyph-name="unifb68" horiz-adv-x="573" unicode="ٹ"/><glyph d="M741 0h-139q-62 0 -136.5 33t-107.5 90q-35 -59 -105 -91t-136 -32h-140v188h95q90 0 146 62t56 176v121h168v-121q0 -108 56.5 -173t148.5 -65h94v-188zM621 981q0 -89 -88 -133q-67 -33 -160 -33h-289v92h82q21 16 21 24v500h83v-397q104 113 190 113q71 0 116 -47 t45 -119zM537 979q0 32 -22.5 54.5t-55.5 22.5q-72 0 -179 -149h48q209 0 209 72z" arabic-form="medial" glyph-name="unifb69" horiz-adv-x="719" unicode="ٹ"/><glyph d="M645 665q100 -92 156.5 -177.5t56.5 -163.5q0 -58 -23 -119t-68 -104q-52 -49 -126 -75t-170 -26h-379v188h377q105 0 164 36.5t59 97.5q0 42 -38 93.5t-99 105.5q-61 55 -132 107t-163 113v215h10l184.5 -136t190.5 -155zM721 1281q0 -89 -88 -133q-67 -33 -160 -33 h-289v92h82q21 16 21 24v500h83v-397q104 113 190 113q71 0 116 -47t45 -119zM637 1279q0 32 -22.5 54.5t-55.5 22.5q-72 0 -179 -149h48q209 0 209 72z" arabic-form="isolated" glyph-name="uni0688" horiz-adv-x="958" unicode="ڈ"/><glyph d="M1120 0h-57q-100 0 -175.5 37.5t-121.5 105.5q-64 -71 -138.5 -107t-156.5 -36h-273h-128v188h393q60 0 106 16t72 44q24 27 33.5 56t9.5 61q0 10 -4.5 32t-11.5 49l-156 527h195l135 -477q16 -57 37 -123t39 -99q23 -40 56 -63t85 -23h61v-188zM861 1281q0 -89 -88 -133 q-67 -33 -160 -33h-289v92h82q21 16 21 24v500h83v-397q104 113 190 113q71 0 116 -47t45 -119zM777 1279q0 32 -22.5 54.5t-55.5 22.5q-72 0 -179 -149h48q209 0 209 72z" arabic-form="final" glyph-name="unifb89" horiz-adv-x="1118" unicode="ڈ"/><glyph d="M659 186q0 -166 -75.5 -290.5t-226.5 -205.5q-120 -64 -248 -89t-218 -25v188q64 0 173 17.5t194 57.5q115 53 172 131.5t57 183.5q0 86 -33.5 175t-91.5 175v12h193q39 -71 71.5 -160t32.5 -170zM741 981q0 -89 -88 -133q-67 -33 -160 -33h-289v92h82q21 16 21 24v500 h83v-397q104 113 190 113q71 0 116 -47t45 -119zM657 979q0 32 -22.5 54.5t-55.5 22.5q-72 0 -179 -149h48q209 0 209 72z" arabic-form="isolated" glyph-name="uni0691" horiz-adv-x="741" unicode="ڑ"/><glyph d="M856 0h-78q-31 0 -69 9.5t-68 25.5q-37 -144 -130.5 -233.5t-207.5 -139.5q-104 -45 -212 -65.5t-200 -20.5v188q64 0 173 17.5t194 57.5q114 53 171.5 129.5t57.5 185.5q0 59 -16 117.5t-36 102.5t-40 77.5t-33 52.5v12h193q6 -11 30 -65l42 -97q38 -88 86 -127t110 -39 h33v-188zM659 186zM741 0zM741 981q0 -89 -88 -133q-67 -33 -160 -33h-289v92h82q21 16 21 24v500h83v-397q104 113 190 113q71 0 116 -47t45 -119zM657 979q0 32 -22.5 54.5t-55.5 22.5q-72 0 -179 -149h48q209 0 209 72z" arabic-form="final" glyph-name="unifb8d" horiz-adv-x="854" unicode="ڑ"/><glyph d="M1264 530q0 -144 -47 -247.5t-126 -168.5q-78 -64 -182 -96t-229 -32q-119 0 -226.5 31t-187.5 97q-81 67 -127.5 170t-46.5 246q0 101 12.5 199t14.5 111h182v-17q-12 -39 -27.5 -129.5t-15.5 -165.5q0 -160 124 -257t294 -97t296 95.5t126 258.5q0 75 -15.5 165.5 t-27.5 129.5v17h182q2 -13 14.5 -111t12.5 -199z" arabic-form="isolated" glyph-name="uni06ba" horiz-adv-x="1356" unicode="ں"/><glyph d="M1565 0h-140q-37 0 -82 13t-81 38q0 -216 -156 -345.5t-426 -129.5q-124 0 -233.5 28.5t-186.5 88.5q-79 62 -123.5 160t-44.5 239q0 100 12 191t15 118h182v-16q-11 -36 -27 -128.5t-16 -166.5q0 -154 116 -240t302 -86q181 0 301.5 88t120.5 238q0 114 -14 195.5 t-17 97.5v18h199q0 -91 61 -152t143 -61h95v-188zM1356 0z" arabic-form="final" glyph-name="unifb9f" horiz-adv-x="1542" unicode="ں"/><glyph d="M1088 0q-251 0 -302 206q-20 80 -40 114q-33 55 -92 55q-83 0 -192 -183q-87 -148 -167 -368h-195v10q163 363 241 482q148 223 311 223q217 0 293 -242q21 -67 48 -88t95 -21v-188z" arabic-form="final" glyph-name="uni06c1" horiz-adv-x="1066" unicode="ہ"/><glyph d="M440 453q0 -198 -89 -318q-99 -135 -290 -135h-84v188h89q208 0 208 277v252h166v-264zM272 -231h-125v125q0 39 32 70q36 36 93 36v-49q-72 0 -72 -57h72v-125z" arabic-form="initial" glyph-name="unifba8" horiz-adv-x="573" unicode="ہ"/><glyph d="M1010 0q-75 0 -163.5 94t-140.5 94q-147 0 -249 -398h-145q-12 109 -25 311q-10 -13 -27 -27q-55 -46 -74 -55q-38 -19 -106 -19h-103v188h95q94 0 133 41q26 27 52 115l110 373h151l-65 -201q-32 -106 -45 -216q-11 -92 10 -256q42 150 123 231q77 77 173 77 q88 0 176 -82t120 -82v-188z" arabic-form="medial" glyph-name="unifba9" horiz-adv-x="988" unicode="ہ"/><glyph d="M1193 -300h-733q-441 0 -441 189q0 72 85 167q140 158 170 203l97 198q62 113 154 113q98 0 199 -182v-188q-83 129 -103 156q-45 57 -78 57q-31 0 -68 -86q-55 -131 -86 -177q-23 -35 -106 -122q-58 -62 -58 -94q0 -46 173 -46h795v-188z" arabic-form="isolated" glyph-name="uni06d2" horiz-adv-x="1172" unicode="ے"/><glyph d="M956 -419h-496q-441 0 -441 189q0 74 75 136.5t194 91.5q82 20 160 57l157 76q121 57 351 57v-188q-240 0 -313 -26q-81 -32 -219 -76q-199 -44 -199 -83q0 -46 173 -46h558v-188z" arabic-form="final" glyph-name="unifbaf" horiz-adv-x="932" unicode="ے"/><glyph d="M1193 -300h-733q-441 0 -441 189q0 72 85 167q140 158 170 203l97 198q62 113 154 113q98 0 199 -182v-188q-83 129 -103 156q-45 57 -78 57q-31 0 -68 -86q-55 -131 -86 -177q-23 -35 -106 -122q-58 -62 -58 -94q0 -46 173 -46h795v-188zM704 797h-336v94h74 q-24 13 -39.5 42t-15.5 60q0 64 47 112t127 48q53 0 78.5 -6t35.5 -10v-101h-6q-14 6 -47.5 14.5t-58.5 8.5q-44 0 -66 -18t-22 -48q0 -45 46 -73.5t109 -28.5h74v-94z" arabic-form="isolated" glyph-name="uni06d3" horiz-adv-x="1172" unicode="ۓ"/><glyph d="M956 -419h-496q-441 0 -441 189q0 74 75 136.5t194 91.5q82 20 160 57l157 76q121 57 351 57v-188q-240 0 -313 -26q-81 -32 -219 -76q-199 -44 -199 -83q0 -46 173 -46h558v-188zM704 517h-336v94h74q-24 13 -39.5 42t-15.5 60q0 64 47 112t127 48q53 0 78.5 -6 t35.5 -10v-101h-6q-14 6 -47.5 14.5t-58.5 8.5q-44 0 -66 -18t-22 -48q0 -45 46 -73.5t109 -28.5h74v-94z" arabic-form="final" glyph-name="unifbb1" horiz-adv-x="932" unicode="ۓ"/><glyph d="M872 403q0 -195 -109.5 -305t-289.5 -110q-161 0 -271 117.5t-110 295.5q0 118 58 204t202 173l68 41l-135 152h233l238 -269q53 -59 84.5 -132.5t31.5 -166.5zM633 230q34 30 54 69t20 104q0 57 -54.5 139t-113.5 148l-21 23l-67 -41q-85 -51 -139 -114.5t-54 -154.5 q0 -89 64.5 -158t150.5 -69q40 0 85 14t75 40z" arabic-form="isolated" glyph-name="unifba6" horiz-adv-x="965" unicode="ہ"/><glyph d="M256 0v1536h1536v-1536h-1536zM384 128h1280v1280h-1280v-1280z" glyph-name=".notdef" horiz-adv-x="2048"/><glyph glyph-name=".null"/><glyph glyph-name="nonmarkingreturn" horiz-adv-x="640"/><glyph glyph-name="space" horiz-adv-x="640"/><glyph glyph-name="space" horiz-adv-x="640"/><glyph d="M452 1489l-28 -1079h-166l-30 1079h224zM442 0h-204v211h204v-211z" glyph-name="exclam" horiz-adv-x="680" unicode="!"/><glyph d="M708 1556l-43 -579h-132l-43 579h218zM332 1556l-43 -579h-132l-43 579h218z" glyph-name="quotedbl" horiz-adv-x="822" unicode="&quot;"/><glyph d="M1348 932h-293l-92 -376h268v-135h-303l-105 -421h-129l105 421h-270l-105 -421h-129l105 421h-258v135h293l92 376h-268v135h303l105 422h129l-105 -422h270l105 422h129l-105 -422h258v-135zM929 934h-274l-94 -380h274z" glyph-name="numbersign" horiz-adv-x="1490" unicode="#"/><glyph d="M1024 380q0 -147 -112.5 -252.5t-283.5 -126.5v-362h-114v357q-108 1 -217.5 25t-190.5 64v202h15q79 -59 178 -96t215 -47v432l-61 14.5t-61 16.5q-150 41 -214.5 124t-64.5 204q0 142 111 247t290 122v272h114v-270q91 -3 188.5 -25.5t159.5 -49.5v-198h-15 q-70 48 -153.5 84t-179.5 44v-430q33 -7 61.5 -14.5t49.5 -12.5q136 -32 210.5 -111t74.5 -213zM514 746v414q-90 -8 -151 -58.5t-61 -140.5q0 -89 44.5 -137.5t167.5 -77.5zM835 354q0 94 -48 139t-159 68v-415q102 12 154.5 61.5t52.5 146.5z" glyph-name="dollar" horiz-adv-x="1118" unicode="$"/><glyph d="M807 1076q0 -225 -90.5 -333.5t-261.5 -108.5q-174 0 -263.5 110t-89.5 331q0 224 91 333t262 109q174 0 263 -110t89 -331zM1473 1489l-780 -1489h-165l780 1489h165zM1897 413q0 -225 -90.5 -333.5t-261.5 -108.5q-174 0 -263.5 110t-89.5 331q0 224 91 333t262 109 q174 0 263 -110t89 -331zM629 1076q0 152 -35.5 230t-138.5 78t-139 -79t-36 -230q0 -150 34 -229t141 -79q103 0 138.5 79t35.5 230zM1719 413q0 152 -35.5 230t-138.5 78t-139 -79t-36 -230q0 -150 34 -229t141 -79q103 0 138.5 79t35.5 230z" glyph-name="percent" horiz-adv-x="2000" unicode="%"/><glyph d="M1445 0h-256l-204 213q-102 -130 -209.5 -187t-243.5 -57q-202 0 -333.5 121.5t-131.5 318.5q0 86 24 153t64 121q39 52 90 91.5t98 68.5q-101 68 -151 143t-50 189q0 71 28.5 131.5t74.5 106.5q48 47 124.5 77t167.5 30q166 0 271 -87.5t105 -221.5q0 -49 -12.5 -101.5 t-45.5 -101.5t-86.5 -92t-142.5 -75l352 -362q14 82 17 178.5t3 251.5h195v-96q0 -96 -24.5 -216.5t-80.5 -228.5zM898 301l-460 471q-25 -16 -50 -38t-55 -66q-24 -35 -42.5 -91.5t-18.5 -119.5q0 -142 84.5 -233.5t228.5 -91.5q96 0 173 40.5t140 128.5zM532 912 q56 19 92.5 51t56.5 70q18 35 27 74t9 84q0 97 -56.5 150t-131.5 53q-89 0 -140 -60t-51 -150q0 -40 7.5 -68.5t31.5 -66.5q21 -31 58.5 -66t96.5 -71z" glyph-name="ampersand" horiz-adv-x="1380" unicode="&amp;"/><glyph d="M327 1556l-43 -579h-136l-43 579h222z" glyph-name="quotesingle" horiz-adv-x="432" unicode="'"/><glyph d="M710 -412h-229q-174 207 -273.5 438t-99.5 546q0 308 98.5 542.5t274.5 441.5h229v-10q-81 -73 -154.5 -168.5t-136.5 -222.5q-60 -123 -97.5 -271t-37.5 -312q0 -171 36.5 -313t98.5 -270q60 -123 137 -222.5t154 -168.5v-10z" glyph-name="parenleft" horiz-adv-x="784" unicode="("/><glyph d="M676 572q0 -309 -99 -543t-274 -441h-229v10q77 69 155 169.5t136 221.5q62 129 98.5 272.5t36.5 310.5q0 165 -37 312t-98 271t-138 223t-153 168v10h229q174 -207 273.5 -440t99.5 -544z" glyph-name="parenright" horiz-adv-x="784" unicode=")"/><glyph d="M1007 887l-65 -110l-327 217l7 -364h-125l6 364l-325 -218l-66 110l354 207l-354 207l66 110l326 -219l-7 365h125l-8 -365l328 218l65 -110l-354 -205z" glyph-name="asterisk" horiz-adv-x="1118" unicode="*"/><glyph d="M1333 572h-505v-505h-166v505h-505v160h505v505h166v-505h505v-160z" glyph-name="plus" horiz-adv-x="1490" unicode="+"/><glyph d="M500 285l-280 -655h-146l176 655h250z" glyph-name="comma" horiz-adv-x="620" unicode=","/><glyph d="M654 561h-564v181h564v-181z" glyph-name="hyphen" horiz-adv-x="744" unicode="-"/><glyph d="M654 561h-564v181h564v-181z" glyph-name="hyphen" horiz-adv-x="744" unicode="­"/><glyph d="M429 0h-239v285h239v-285z" glyph-name="period" horiz-adv-x="620" unicode="."/><glyph d="M728 1556l-583 -1880h-169l580 1880h172z" glyph-name="slash" horiz-adv-x="783" unicode="/"/><glyph d="M1035 745q0 -401 -116.5 -588.5t-359.5 -187.5q-246 0 -361 191t-115 583q0 403 116.5 589.5t359.5 186.5q246 0 361 -193t115 -581zM779 291q29 74 41 187t12 267q0 153 -12 266t-42 188q-30 76 -82.5 115.5t-136.5 39.5q-83 0 -136.5 -39.5t-84.5 -117.5 q-30 -76 -41 -192t-11 -262q0 -156 9.5 -261t41.5 -188q29 -77 82.5 -118.5t139.5 -41.5q83 0 136.5 39.5t83.5 117.5z" glyph-name="zero" horiz-adv-x="1118" unicode="0"/><glyph d="M952 0h-726v152h270v998h-270v136q153 0 225.5 43.5t81.5 164.5h155v-1342h264v-152z" glyph-name="one" horiz-adv-x="1118" unicode="1"/><glyph d="M1028 0h-919v209l187 180t172 179q170 187 232 299.5t62 232.5q0 62 -19.5 109t-53.5 78q-35 30 -81 45t-101 15q-53 0 -107.5 -13.5t-104.5 -33.5q-42 -17 -81 -41t-63 -41h-11v212q62 31 172.5 60.5t209.5 29.5q208 0 326 -110.5t118 -299.5q0 -87 -20.5 -161 t-56.5 -137q-37 -65 -89 -129t-110 -126q-94 -102 -209.5 -212l-184.5 -174h732v-171z" glyph-name="two" horiz-adv-x="1118" unicode="2"/><glyph d="M511 1347q-54 0 -108 -13t-106 -34q-48 -20 -83.5 -42t-63.5 -41h-12v211q65 35 176.5 63.5t212.5 28.5t176.5 -20.5t136.5 -63.5q66 -48 99.5 -116t33.5 -159q0 -123 -81 -216t-194 -118v-14q47 -9 100.5 -31t99.5 -65t75 -110.5t29 -164.5q0 -101 -34.5 -185.5 t-97.5 -149.5q-65 -68 -157 -103t-209 -35q-112 0 -222 27t-185 65v211h14q63 -46 169 -88t212 -42q61 0 122.5 19.5t102.5 63.5q40 44 61 97t21 134t-23.5 133t-65.5 82t-99.5 41.5t-124.5 11.5h-85v166h66q135 0 219.5 64t84.5 186q0 56 -22 96.5t-56 64.5q-38 26 -84 36 t-98 10z" glyph-name="three" horiz-adv-x="1118" unicode="3"/><glyph d="M1067 512h-177v-512h-192v512h-658v210l666 767h184v-817h177v-160zM698 672v582l-502 -582h502z" glyph-name="four" horiz-adv-x="1118" unicode="4"/><glyph d="M1011 474q0 -108 -34.5 -200t-96.5 -159q-63 -68 -156.5 -107t-209.5 -39q-107 0 -210.5 23.5t-179.5 61.5v211h14q23 -17 66 -38.5t95 -40.5q59 -21 108 -32.5t110 -11.5q60 0 117 21.5t98 69.5q37 44 56.5 103t19.5 139q0 79 -21.5 130t-62.5 84q-43 38 -105.5 53.5 t-139.5 15.5q-81 0 -163 -12.5t-131 -23.5v767h817v-175h-624v-396q36 4 71 6t64 2q114 0 193 -19t152 -74q74 -56 113.5 -140t39.5 -219z" glyph-name="five" horiz-adv-x="1118" unicode="5"/><glyph d="M1051 483q0 -115 -38 -212t-102 -162q-67 -69 -150 -104.5t-183 -35.5q-101 0 -183.5 34t-145.5 101q-77 81 -120.5 216.5t-43.5 333.5q0 194 40 350.5t123 272.5q81 113 209 176.5t296 63.5q50 0 93 -5t76 -16v-191h-9q-27 15 -78 27.5t-109 12.5q-186 0 -300.5 -125.5 t-135.5 -372.5q71 50 146 77t164 27q87 0 152.5 -17.5t136.5 -70.5q82 -62 122 -157t40 -223zM848 475q0 92 -24 154t-78 106q-39 32 -88.5 42t-101.5 10q-70 0 -136 -21t-130 -61q-2 -22 -3 -42.5t-1 -51.5q0 -155 30.5 -250t75.5 -144q43 -47 88.5 -66t98.5 -19 q120 0 194.5 86t74.5 257z" glyph-name="six" horiz-adv-x="1118" unicode="6"/><glyph d="M1044 1266l-644 -1266h-213l682 1314h-770v175h945v-223z" glyph-name="seven" horiz-adv-x="1118" unicode="7"/><glyph d="M811 1142q0 100 -67 167t-186 67q-109 0 -178.5 -60t-69.5 -162q0 -74 35.5 -125t106.5 -92q31 -17 94.5 -47t115.5 -47q87 67 118 137.5t31 161.5zM839 396q0 92 -36 146t-139 110q-34 19 -90.5 41l-127.5 52q-83 -55 -127 -135.5t-44 -183.5q0 -135 81.5 -223 t204.5 -88q126 0 202 75.5t76 205.5zM559 -34q-111 0 -202 33t-155 95q-63 60 -95.5 142.5t-32.5 174.5q0 121 64.5 222.5t187.5 161.5v6q-110 64 -163 140t-53 190q0 168 127 280t322 112q203 0 325.5 -106.5t122.5 -272.5q0 -100 -58.5 -198t-168.5 -153v-6 q130 -61 197 -148t67 -224q0 -191 -138.5 -320t-346.5 -129z" glyph-name="eight" horiz-adv-x="1118" unicode="8"/><glyph d="M832 877q0 152 -28 247.5t-77 147.5q-44 48 -89 66t-99 18q-123 0 -196 -88t-73 -255q0 -94 24 -155t78 -105q38 -31 86 -41.5t103 -10.5q64 0 138 22.5t129 59.5q1 15 2.5 39.5t1.5 54.5zM67 1005q0 115 37.5 210t102.5 164q62 66 151.5 103t181.5 37q103 0 186.5 -34.5 t144.5 -99.5q77 -82 119.5 -215t42.5 -336q0 -185 -41.5 -350.5t-122.5 -274.5q-86 -116 -206.5 -177t-297.5 -61q-40 0 -85 4.5t-84 16.5v191h10q25 -14 78 -27t108 -13q196 0 308 129t127 369q-80 -54 -152.5 -79t-157.5 -25q-83 0 -151 18t-137 70q-80 61 -121 154.5 t-41 225.5z" glyph-name="nine" horiz-adv-x="1118" unicode="9"/><glyph d="M482 832h-239v285h239v-285zM482 0h-239v285h239v-285z" glyph-name="colon" horiz-adv-x="724" unicode=":"/><glyph d="M482 832h-239v285h239v-285zM548 285l-280 -655h-146l176 655h250z" glyph-name="semicolon" horiz-adv-x="724" unicode=";"/><glyph d="M482 832h-239v285h239v-285zM548 285l-280 -655h-146l176 655h250z" glyph-name="semicolon" horiz-adv-x="724" unicode=";"/><glyph d="M1275 79l-1074 513v120l1074 513v-178l-833 -395l833 -395v-178z" glyph-name="less" horiz-adv-x="1490" unicode="&lt;"/><glyph d="M1298 782h-1106v160h1106v-160zM1298 362h-1106v160h1106v-160z" glyph-name="equal" horiz-adv-x="1490" unicode="="/><glyph d="M1289 592l-1074 -513v178l833 395l-833 395v178l1074 -513v-120z" glyph-name="greater" horiz-adv-x="1490" unicode="&gt;"/><glyph d="M912 1139q0 -98 -32.5 -174.5t-86.5 -134.5t-122.5 -107t-144.5 -95v-228h-179v305l130.5 81.5t116.5 88.5q54 51 84 111.5t30 137.5q0 113 -71 168.5t-185 55.5q-100 0 -188.5 -33.5t-143.5 -69.5h-11v204q67 27 169 48.5t193 21.5q205 0 323 -104.5t118 -275.5zM542 0 h-204v211h204v-211z" glyph-name="question" horiz-adv-x="970" unicode="?"/><glyph d="M1739 663q0 -139 -38 -268.5t-109 -237.5h-421l-25 116q-67 -57 -123.5 -90.5t-153.5 -33.5q-154 0 -252 123.5t-98 358.5t120.5 366t275.5 131q72 0 124 -18t105 -48v48h159v-842h227q38 71 54.5 184t16.5 205q0 327 -166.5 526.5t-478.5 199.5q-296 0 -488.5 -215.5 t-192.5 -522.5q0 -330 187 -534.5t489 -204.5q81 0 170.5 11t169.5 35v-142q-84 -20 -170.5 -28t-170.5 -8q-354 0 -586 243t-232 630q0 367 239.5 619t583.5 252q368 0 576 -237.5t208 -617.5zM1142 408v518q-56 29 -103 41.5t-98 12.5q-113 0 -182 -84.5t-69 -261.5 q0 -160 52 -245t166 -85q61 0 120.5 29t113.5 75z" glyph-name="at" horiz-adv-x="1862" unicode="@"/><glyph d="M-10 0l502 1489h244l502 -1489h-209l-135 416h-569l-135 -416h-200zM839 585l-230 702l-229 -702h459z" glyph-name="A" horiz-adv-x="1228" unicode="A"/><glyph d="M1161 457q0 -111 -42 -196t-113 -140q-84 -66 -180 -93.5t-248 -27.5h-427v1489h395q159 0 238.5 -10.5t152.5 -49.5q80 -43 117 -112.5t37 -163.5q0 -105 -55.5 -188t-153.5 -130v-8q133 -36 206 -131.5t73 -238.5zM885 1125q0 54 -18 93.5t-58 62.5q-48 27 -107 33 t-163 6h-190v-436h225q93 0 137 9.5t91 39.5q45 29 64 76t19 116zM955 449q0 84 -24 138.5t-97 92.5q-47 25 -102.5 32t-157.5 7h-225v-550h161q130 0 205 12t132 51q56 39 82 88.5t26 128.5z" glyph-name="B" horiz-adv-x="1207" unicode="B"/><glyph d="M733 -27q-146 0 -268.5 49t-211.5 146t-138 242t-49 333q0 187 47.5 326t138.5 242q89 100 211 152.5t273 52.5q75 0 140.5 -11t121.5 -28q48 -15 98.5 -37.5t99.5 -49.5v-239h-16q-26 24 -67 58t-100 67q-57 31 -124 51t-155 20q-95 0 -180 -39t-149 -115 q-63 -76 -98 -191t-35 -259q0 -153 37 -263.5t101 -186.5q62 -74 146 -111.5t178 -37.5q86 0 159 21t130 53q55 31 95 63.5t63 55.5h15v-236l-92.5 -44t-105.5 -41q-65 -21 -120.5 -32t-144.5 -11z" glyph-name="C" horiz-adv-x="1230" unicode="C"/><glyph d="M1325 743q0 -204 -82.5 -368t-221.5 -256q-113 -71 -229.5 -95t-297.5 -24h-343v1489h339q210 0 329.5 -31.5t203.5 -86.5q144 -95 223 -252.5t79 -375.5zM1119 746q0 172 -57 293.5t-169 189.5q-79 48 -169 69t-224 21h-151v-1149h151q132 0 231 21t181 78 q103 70 155 186.5t52 290.5z" glyph-name="D" horiz-adv-x="1389" unicode="D"/><glyph d="M151 0v1489h931v-176h-733v-408h683v-176h-683v-553h733v-176h-931z" glyph-name="E" horiz-adv-x="1149" unicode="E"/><glyph d="M1042 1313h-693v-420h664v-176h-664v-717h-198v1489h891v-176z" glyph-name="F" horiz-adv-x="1068" unicode="F"/><glyph d="M774 -29q-158 0 -289 48t-225 146q-94 99 -144 245t-50 336q0 180 50.5 322.5t144.5 243.5q91 98 224 151t291 53q75 0 144 -11t132 -30q50 -15 111.5 -41.5t99.5 -45.5v-239h-17q-37 33 -76.5 62.5t-111.5 63.5q-60 30 -138 50t-168 20q-215 0 -347.5 -162t-132.5 -431 q0 -150 35 -262t101 -190q64 -77 154.5 -117.5t203.5 -40.5q84 0 167 12t140 36v385h-344v174h540v-650q-38 -17 -101.5 -43t-118.5 -41q-73 -22 -132 -33t-143 -11z" glyph-name="G" horiz-adv-x="1367" unicode="G"/><glyph d="M1232 0h-198v729h-685v-729h-198v1489h198v-584h685v584h198v-1489z" glyph-name="H" horiz-adv-x="1383" unicode="H"/><glyph d="M671 0h-578v152h190v1185h-190v152h578v-152h-190v-1185h190v-152z" glyph-name="I" horiz-adv-x="764" unicode="I"/><glyph d="M712 387q0 -196 -119.5 -302t-320.5 -106q-48 0 -128.5 8.5t-134.5 20.5v189h11q41 -14 101.5 -31t123.5 -17q92 0 146.5 21t80.5 60q27 40 34.5 98t7.5 134v869h-315v158h513v-1102z" glyph-name="J" horiz-adv-x="853" unicode="J"/><glyph d="M1236 0h-257l-543 693l-87 -98v-595h-198v1489h198v-685l610 685h241l-616 -665z" glyph-name="K" horiz-adv-x="1204" unicode="K"/><glyph d="M1014 0h-863v1489h198v-1313h665v-176z" glyph-name="L" horiz-adv-x="1019" unicode="L"/><glyph d="M1427 0h-198v1283l-388 -873h-120l-385 873v-1283h-185v1489h270l372 -829l359 829h275v-1489z" glyph-name="M" horiz-adv-x="1578" unicode="M"/><glyph d="M1216 0h-222l-658 1284v-1284h-185v1489h281l599 -1179v1179h185v-1489z" glyph-name="N" horiz-adv-x="1367" unicode="N"/><glyph d="M1204 1318q85 -98 132 -243t47 -331q0 -181 -46 -327t-133 -245q-91 -104 -212.5 -153.5t-267.5 -49.5q-151 0 -272 51t-208 152q-86 99 -132 244t-46 328q0 188 46.5 330t132.5 244q86 99 207.5 150.5t271.5 51.5q152 0 274 -53t206 -149zM1177 744q0 148 -32 262 t-90 189q-59 77 -142.5 115.5t-187.5 38.5q-108 0 -188.5 -37.5t-142.5 -116.5q-59 -76 -90.5 -191t-31.5 -260q0 -293 123 -448.5t330 -155.5t329.5 155.5t122.5 448.5z" glyph-name="O" horiz-adv-x="1449" unicode="O"/><glyph d="M1091 1040q0 -97 -34.5 -183.5t-95.5 -147.5q-77 -76 -181 -115t-263 -39h-168v-555h-198v1489h374q132 0 225 -22t164 -71q83 -57 130 -144.5t47 -211.5zM885 1035q0 77 -26.5 134t-80.5 93q-47 31 -109.5 44t-155.5 13h-164v-595h135q120 0 194 19.5t123 69.5 q44 45 64 98t20 124z" glyph-name="P" horiz-adv-x="1129" unicode="P"/><glyph d="M1388 -364q-54 -14 -113.5 -21t-118.5 -7q-167 0 -271.5 94t-114.5 268h-25h-21q-151 0 -272.5 51.5t-207.5 150.5t-132 244t-46 328q0 188 46.5 330t132.5 244q86 99 207.5 150.5t271.5 51.5q152 0 274 -53t206 -149q85 -98 132 -243t47 -331q0 -289 -113 -477 t-309 -255q5 -56 19.5 -100.5t37.5 -70.5q27 -31 65.5 -45.5t105.5 -14.5q40 0 94 12.5t78 22.5h27v-180zM1177 744q0 148 -32 262t-90 189q-59 77 -142.5 115.5t-187.5 38.5q-108 0 -188.5 -37.5t-142.5 -116.5q-59 -76 -90.5 -191t-31.5 -260q0 -293 123 -449t330 -156 t329.5 156t122.5 449z" glyph-name="Q" horiz-adv-x="1449" unicode="Q"/><glyph d="M1304 0h-257l-472 592h-226v-592h-198v1489h384q128 0 214.5 -14t164.5 -65q78 -50 123.5 -129t45.5 -196q0 -164 -83 -274t-226 -163zM876 1070q0 65 -23 115.5t-71 82.5q-42 28 -98 39.5t-139 11.5h-196v-562h174q85 0 153 15t116 62q43 42 63.5 100t20.5 136z" glyph-name="R" horiz-adv-x="1271" unicode="R"/><glyph d="M566 -27q-162 0 -275.5 33.5t-213.5 82.5v248h14q98 -92 222 -142.5t239 -50.5q164 0 248 68.5t84 180.5q0 89 -44 145t-140 83q-69 20 -126 33t-143 35q-77 20 -138 51t-108 81q-46 49 -71.5 115.5t-25.5 153.5q0 181 141 303.5t360 122.5q125 0 236.5 -25t206.5 -71 v-237h-15q-71 65 -182 113.5t-233 48.5q-138 0 -223 -64.5t-85 -169.5q0 -95 50 -151t145 -82q63 -17 154 -38.5t151 -39.5q154 -47 225 -142t71 -234q0 -87 -35.5 -172t-99.5 -144q-72 -65 -162.5 -100t-226.5 -35z" glyph-name="S" horiz-adv-x="1141" unicode="S"/><glyph d="M499 0v1313h-500v176h1198v-176h-500v-1313h-198z" glyph-name="T" horiz-adv-x="1196" unicode="T"/><glyph d="M671 -31q-131 0 -229 34.5t-167 102.5q-78 78 -110 186.5t-32 267.5v929h198v-929q0 -103 13 -173.5t51 -126.5q40 -60 108.5 -91t167.5 -31q93 0 165 31t112 91q37 57 50.5 126t13.5 169v934h198v-929q0 -155 -31.5 -266t-110.5 -188q-71 -69 -165.5 -103t-231.5 -34z" glyph-name="U" horiz-adv-x="1343" unicode="U"/><glyph d="M1230 1489l-512 -1489h-214l-512 1489h212l412 -1236l412 1236h202z" glyph-name="V" horiz-adv-x="1222" unicode="V"/><glyph d="M1821 1489l-374 -1489h-223l-303 1236l-296 -1236h-218l-381 1489h203l300 -1238l298 1238h201l301 -1250l298 1250h194z" glyph-name="W" horiz-adv-x="1847" unicode="W"/><glyph d="M1181 0h-227l-363 596l-369 -596h-214l473 745l-459 744h226l356 -585l361 585h215l-466 -734z" glyph-name="X" horiz-adv-x="1189" unicode="X"/><glyph d="M1193 1489l-503 -830v-659h-198v638l-503 851h220l384 -657l390 657h210z" glyph-name="Y" horiz-adv-x="1180" unicode="Y"/><glyph d="M1100 0h-1040v184l797 1129h-761v176h984v-179l-806 -1134h826v-176z" glyph-name="Z" horiz-adv-x="1145" unicode="Z"/><glyph d="M686 -392h-520v1948h520v-143h-345v-1662h345v-143z" glyph-name="bracketleft" horiz-adv-x="784" unicode="["/><glyph d="M804 -324h-169l-583 1880h172z" glyph-name="backslash" horiz-adv-x="783" unicode="\"/><glyph d="M618 -392h-520v143h345v1662h-345v143h520v-1948z" glyph-name="bracketright" horiz-adv-x="784" unicode="]"/><glyph d="M1357 684h-198l-415 625l-414 -627h-197l549 807h126z" glyph-name="asciicircum" horiz-adv-x="1490" unicode="^"/><glyph d="M1134 -300h-1150v130h1150v-130z" glyph-name="underscore" horiz-adv-x="1118" unicode="_"/><glyph d="M670 1302h-149l-273 374h243z" glyph-name="grave" horiz-adv-x="1118" unicode="`"/><glyph d="M760 275v310q-67 -6 -169.5 -16.5t-165.5 -29.5q-75 -23 -124 -70.5t-49 -132.5q0 -96 54 -145t158 -49q89 0 161 38.5t135 94.5zM760 119l-61.5 -47.5t-74.5 -48.5q-50 -26 -96.5 -40t-130.5 -14q-69 0 -131 26t-109 73q-45 46 -72 113.5t-27 142.5q0 116 49 197.5 t155 129.5q94 43 222 59.5t276 24.5v36q0 66 -20 106.5t-56 62.5q-36 23 -88 30.5t-107 7.5q-65 0 -153 -19.5t-176 -56.5h-11v191q52 15 149 33t192 18q115 0 194 -18t142 -65q61 -46 91 -119t30 -178v-764h-187v119z" glyph-name="a" horiz-adv-x="1075" unicode="a"/><glyph d="M879 562q0 200 -61 303.5t-196 103.5q-77 0 -155.5 -36t-142.5 -91v-640q71 -35 126 -49.5t121 -14.5q144 0 226 102t82 322zM1073 577q0 -274 -133 -441t-333 -167q-91 0 -155.5 22.5t-127.5 60.5l-12 -52h-176v1556h188v-556q71 64 154 106t188 42q189 0 298 -151.5 t109 -419.5z" glyph-name="b" horiz-adv-x="1132" unicode="b"/><glyph d="M580 -25q-115 0 -211 35.5t-165 107.5t-107 181.5t-38 257.5q0 147 39.5 254t105.5 180t164.5 112.5t211.5 39.5q92 0 177.5 -26t152.5 -60v-211h-11q-20 17 -51.5 39t-76.5 45q-39 20 -92 35t-102 15q-146 0 -234.5 -110.5t-88.5 -312.5q0 -198 85.5 -308.5 t237.5 -110.5q92 0 175 38t147 98h11v-211l-70 -31.5t-76 -27.5q-48 -14 -86 -21.5t-98 -7.5z" glyph-name="c" horiz-adv-x="945" unicode="c"/><glyph d="M996 0h-188v114q-44 -37 -76 -61t-75 -44q-40 -19 -83 -29.5t-100 -10.5q-91 0 -168.5 38t-131.5 111q-55 74 -85 182.5t-30 249.5q0 147 38 254.5t105 187.5q61 73 147.5 114.5t181.5 41.5q84 0 146 -18.5t131 -57.5v484h188v-1556zM808 272v644q-70 34 -125.5 47 t-120.5 13q-145 0 -227 -108.5t-82 -313.5q0 -197 63 -301.5t202 -104.5q74 0 149 33.5t141 90.5z" glyph-name="d" horiz-adv-x="1132" unicode="d"/><glyph d="M621 -26q-267 0 -414.5 150.5t-147.5 427.5q0 273 143 434.5t374 161.5q104 0 184 -30t140 -94t92 -156.5t32 -226.5v-102h-774q0 -195 98 -298t271 -103q62 0 121.5 14t107.5 36q51 23 86 44.5t58 40.5h11v-205l-82 -32.5t-88 -30.5q-55 -15 -99.5 -23t-112.5 -8z M841 683q-2 76 -18 131t-46 93q-33 42 -84.5 64t-127.5 22q-75 0 -127.5 -22.5t-95.5 -65.5q-42 -44 -64 -97.5t-28 -124.5h591z" glyph-name="e" horiz-adv-x="1078" unicode="e"/><glyph d="M724 1376h-10q-25 9 -72 17.5t-84 8.5q-119 0 -169.5 -53.5t-50.5 -193.5v-38h311v-156h-305v-961h-188v961h-127v156h127v37q0 202 97 307t278 105q52 0 102 -5.5t91 -12.5v-172z" glyph-name="f" horiz-adv-x="652" unicode="f"/><glyph d="M808 303v613q-70 34 -129.5 48.5t-118.5 14.5q-143 0 -225 -105t-82 -301q0 -186 62.5 -283t202.5 -97q73 0 150.5 29t139.5 81zM176 -179q19 -8 56 -21.5t84 -25.5q52 -13 96 -21t96 -8q87 0 147.5 23t94.5 64q32 41 45 95t13 123v98q-76 -66 -149 -97.5t-183 -31.5 q-191 0 -304 142t-113 408q0 139 39 246.5t105 182.5q63 72 149 111t178 39q87 0 150.5 -20.5t127.5 -58.5l11 48h177v-990q0 -284 -124 -417t-379 -133q-82 0 -167.5 13t-159.5 35v196h10z" glyph-name="g" horiz-adv-x="1132" unicode="g"/><glyph d="M1014 0h-188v636q0 77 -7.5 143.5t-28.5 106.5q-23 42 -64 62.5t-112 20.5q-70 0 -144.5 -37.5t-145.5 -97.5v-834h-188v1556h188v-563q84 75 166 115t173 40q165 0 258 -108.5t93 -314.5v-725z" glyph-name="h" horiz-adv-x="1142" unicode="h"/><glyph d="M328 0h-188v1117h188v-1117zM341 1304h-214v195h214v-195z" glyph-name="i" horiz-adv-x="468" unicode="i"/><glyph d="M441 -32q0 -191 -102.5 -291t-282.5 -100q-31 0 -69.5 3t-76.5 9v168h11q22 -5 48.5 -9.5t50.5 -4.5q75 0 123.5 18.5t72.5 58.5q22 36 29.5 91t7.5 134v916h-202v156h390v-1149zM442 1304h-214v195h214v-195z" glyph-name="j" horiz-adv-x="577" unicode="j"/><glyph d="M1062 0h-247l-417 539l-74 -72v-467h-188v1556h188v-911l442 472h234l-459 -467z" glyph-name="k" horiz-adv-x="1020" unicode="k"/><glyph d="M328 0h-188v1556h188v-1556z" glyph-name="l" horiz-adv-x="468" unicode="l"/><glyph d="M1404 0v646q0 77 -6 142.5t-25 102.5q-20 40 -57 59t-100 19q-58 0 -124.5 -35.5t-137.5 -102.5l2.5 -40.5t1.5 -55.5v-735h-188v646q0 77 -6 142.5t-25 102.5q-20 40 -57 59t-100 19q-61 0 -128 -38t-130 -97v-834h-188v1117h188v-124q74 74 146.5 114.5t159.5 40.5 q99 0 175.5 -45t116.5 -148q85 95 166 144t176 49q72 0 131 -22.5t103 -72.5q45 -51 69.5 -127t24.5 -191v-735h-188z" glyph-name="m" horiz-adv-x="1720" unicode="m"/><glyph d="M1014 0h-188v636q0 77 -7.5 143.5t-28.5 106.5q-23 42 -64 62.5t-112 20.5q-70 0 -144.5 -37.5t-145.5 -97.5v-834h-188v1117h188v-124q84 75 166 115t173 40q165 0 258 -108.5t93 -314.5v-725z" glyph-name="n" horiz-adv-x="1142" unicode="n"/><glyph d="M1055 558q0 -282 -136 -435.5t-362 -153.5q-233 0 -366.5 158.5t-133.5 430.5q0 280 137.5 435t362.5 155q226 0 362 -154.5t136 -435.5zM861 558q0 217 -79 322.5t-225 105.5q-147 0 -226.5 -105.5t-79.5 -322.5q0 -210 79.5 -318.5t226.5 -108.5q145 0 224.5 106.5 t79.5 320.5z" glyph-name="o" horiz-adv-x="1112" unicode="o"/><glyph d="M1073 588q0 -279 -133.5 -444.5t-337.5 -165.5q-83 0 -147 19t-131 59v-468h-188v1529h188v-117q70 63 155.5 105.5t186.5 42.5q192 0 299.5 -152t107.5 -408zM879 567q0 191 -61 296.5t-198 105.5q-80 0 -154.5 -35.5t-141.5 -91.5v-633q74 -36 126.5 -49t120.5 -13 q146 0 227 107t81 313z" glyph-name="p" horiz-adv-x="1132" unicode="p"/><glyph d="M996 -412h-188v534q-82 -75 -160 -109.5t-173 -34.5q-190 0 -303 152.5t-113 424.5q0 144 39.5 254.5t104.5 185.5q62 73 148 113t179 40q86 0 149 -20t129 -59l12 48h176v-1529zM808 280v636q-71 35 -127 49t-120 14q-148 0 -228 -107t-80 -308q0 -196 64 -301.5 t199 -105.5q79 0 154 34t138 89z" glyph-name="q" horiz-adv-x="1132" unicode="q"/><glyph d="M728 915h-10q-21 6 -44.5 7.5t-56.5 1.5q-76 0 -151 -33t-142 -98v-793h-188v1117h188v-166q103 91 179.5 128.5t148.5 37.5q29 0 43.5 -1.5t32.5 -4.5v-196z" glyph-name="r" horiz-adv-x="738" unicode="r"/><glyph d="M438 -27q-112 0 -209.5 30t-161.5 64v211h10q24 -19 56.5 -42t86.5 -48q48 -22 105.5 -39t119.5 -17q45 0 96 10.5t76 26.5q35 23 50.5 49t15.5 78q0 67 -36.5 101t-129.5 57q-36 9 -94 21t-107 26q-128 37 -186 114.5t-58 187.5q0 151 114 246t303 95q93 0 187 -23 t158 -58v-201h-10q-72 57 -160.5 90t-178.5 33q-93 0 -157 -39t-64 -118q0 -70 38 -104.5t122 -56.5q42 -11 93.5 -21.5t108.5 -24.5q124 -31 186.5 -103t62.5 -196q0 -72 -28.5 -136.5t-83.5 -110.5q-60 -50 -135.5 -76t-189.5 -26z" glyph-name="s" horiz-adv-x="914" unicode="s"/><glyph d="M474 -22q-154 0 -240 87.5t-86 276.5v619h-127v156h127v321h188v-321h346v-156h-346v-531q0 -85 3 -131t23 -86q17 -35 55 -52.5t103 -17.5q46 0 89 13.5t62 22.5h11v-169q-53 -15 -107.5 -23.5t-100.5 -8.5z" glyph-name="t" horiz-adv-x="685" unicode="t"/><glyph d="M1006 0h-188v124q-87 -76 -165 -115.5t-174 -39.5q-73 0 -137.5 24t-112.5 76t-74.5 131t-26.5 192v725h188v-636q0 -89 6.5 -147.5t29.5 -102.5q23 -43 62.5 -63t113.5 -20q69 0 147 39t143 96v834h188v-1117z" glyph-name="u" horiz-adv-x="1142" unicode="u"/><glyph d="M1014 1117l-421 -1117h-169l-418 1117h203l306 -862l303 862h196z" glyph-name="v" horiz-adv-x="1020" unicode="v"/><glyph d="M1490 1117l-283 -1117h-174l-273 861l-271 -861h-173l-286 1117h196l197 -865l265 865h155l272 -865l186 865h189z" glyph-name="w" horiz-adv-x="1520" unicode="w"/><glyph d="M1004 0h-231l-271 422l-279 -422h-213l388 554l-384 563h231l269 -418l276 418h214l-386 -550z" glyph-name="x" horiz-adv-x="1014" unicode="x"/><glyph d="M1014 1117l-601 -1529h-201l200 466l-406 1063h203l305 -827l304 827h196z" glyph-name="y" horiz-adv-x="1020" unicode="y"/><glyph d="M870 0h-821v139l584 823h-560v155h786v-134l-587 -826h598v-157z" glyph-name="z" horiz-adv-x="910" unicode="z"/><glyph d="M886 -392h-116q-179 0 -280.5 98.5t-101.5 288.5v149q0 69 -13 139t-50 120t-96.5 75.5t-147.5 25.5h-21v156h21q88 0 147.5 25.5t96.5 75.5t50 120t13 139v149q0 190 101.5 288.5t280.5 98.5h116v-138h-80q-59 0 -102 -12t-74 -41q-32 -30 -47.5 -83t-15.5 -130v-175 q0 -82 -19 -138t-56 -105q-33 -44 -86 -80.5t-110 -59.5v-24q57 -23 109.5 -59.5t86.5 -80.5q37 -49 56 -105t19 -138v-175q0 -77 15.5 -130t47.5 -83q30 -29 73.5 -41t102.5 -12h80v-138z" glyph-name="braceleft" horiz-adv-x="984" unicode="{"/><glyph d="M475 -392h-167v1948h167v-1948z" glyph-name="bar" horiz-adv-x="783" unicode="|"/><glyph d="M924 504h-21q-88 0 -147.5 -25.5t-96.5 -75.5t-50 -120t-13 -139v-149q0 -190 -101.5 -288.5t-280.5 -98.5h-116v138h80q59 0 102 12t74 41q32 30 47.5 83t15.5 130v175q0 82 19 138t56 105q33 44 86 80.5t110 59.5v24q-57 23 -110 59.5t-86 80.5q-37 49 -56 105t-19 138 v175q0 77 -15.5 130t-47.5 83q-31 29 -74 41t-102 12h-80v138h116q179 0 280.5 -98.5t101.5 -288.5v-149q0 -69 13 -139t50 -120t96.5 -75.5t147.5 -25.5h21v-156z" glyph-name="braceright" horiz-adv-x="984" unicode="}"/><glyph d="M1356 927q-2 -102 -21 -196.5t-60 -169.5q-41 -73 -102 -119t-159 -46q-57 0 -102.5 15.5t-80.5 40.5t-67 60t-57 65l-53 67t-51 60q-27 28 -56 45t-66 17q-50 0 -83 -26.5t-55 -78.5q-21 -50 -29.5 -120t-11.5 -146h-168q2 104 21.5 199t58.5 167q40 76 106 120.5 t156 44.5q60 0 105.5 -16t80.5 -41t64.5 -57t57.5 -67l52.5 -66t51.5 -61q29 -30 58.5 -46t62.5 -16q50 0 84.5 28t53.5 76q20 50 29.5 117.5t11.5 149.5h168z" glyph-name="asciitilde" horiz-adv-x="1490" unicode="~"/><glyph d="M-10 0l502 1489h244l502 -1489h-209l-135 416h-569l-135 -416h-200zM839 585l-230 702l-229 -702h459zM913 1657h-201v195h201v-195zM500 1657h-201v195h201v-195z" glyph-name="Adieresis" horiz-adv-x="1228" unicode="Ä"/><glyph d="M874.5 1532q-45.5 -69 -116.5 -107l480 -1425h-209l-135 416h-569l-135 -416h-200l479 1422q-72 40 -116.5 108.5t-44.5 154.5q0 128 89 214.5t217 86.5q129 0 217.5 -86t88.5 -215q0 -84 -45.5 -153zM839 584l-230 705l-229 -705h459zM773 1683q0 73 -44 121.5 t-115 48.5q-70 0 -114.5 -48.5t-44.5 -121.5q0 -74 45 -122.5t114 -48.5t114 48.5t45 122.5z" glyph-name="Aring" horiz-adv-x="1228" unicode="Å"/><glyph d="M733 -27q-146 0 -268.5 49t-211.5 146t-138 242t-49 333q0 187 47.5 326t138.5 242q89 100 211 152.5t273 52.5q75 0 140.5 -11t121.5 -28q48 -15 98.5 -37.5t99.5 -49.5v-239h-16q-26 24 -67 58t-100 67q-57 31 -124 51t-155 20q-95 0 -180 -39t-149 -115 q-63 -76 -98 -191t-35 -259q0 -153 37 -263.5t101 -186.5q62 -74 146 -111.5t178 -37.5q86 0 159 21t130 53q55 31 95 63.5t63 55.5h15v-236l-92.5 -44t-105.5 -41q-8 -3 -23 -7.5t-21 -5.5q1 -15 3 -39t2 -53q0 -149 -82 -241.5t-227 -92.5q-37 0 -87 6t-90 18v160h9 q24 -11 63 -22.5t79 -11.5q94 0 138 39.5t44 126.5q0 18 -0.5 38t-1.5 45q-18 -1 -33.5 -2t-37.5 -1z" glyph-name="Ccedilla" horiz-adv-x="1230" unicode="Ç"/><glyph d="M151 0v1489h931v-176h-733v-408h683v-176h-683v-553h733v-176h-931zM920 2049l-273 -374h-149l179 374h243z" glyph-name="Eacute" horiz-adv-x="1149" unicode="É"/><glyph d="M1216 0h-222l-658 1284v-1284h-185v1489h281l599 -1179v1179h185v-1489zM1110 1985q-10 -156 -74.5 -234t-171.5 -78q-52 0 -96 19t-86 59q-44 41 -76 62.5t-63 21.5q-49 0 -68.5 -45t-23.5 -121h-140q7 154 76 232.5t169 78.5q51 0 94 -19.5t86 -57.5q43 -39 77.5 -59.5 t63.5 -20.5q47 0 68.5 45t24.5 117h140z" glyph-name="Ntilde" horiz-adv-x="1367" unicode="Ñ"/><glyph d="M1204 1318q85 -98 132 -243t47 -331q0 -181 -46 -327t-133 -245q-91 -104 -212.5 -153.5t-267.5 -49.5q-151 0 -272 51t-208 152q-86 99 -132 244t-46 328q0 188 46.5 330t132.5 244q86 99 207.5 150.5t271.5 51.5q152 0 274 -53t206 -149zM1177 744q0 148 -32 262 t-90 189q-59 77 -142.5 115.5t-187.5 38.5q-108 0 -188.5 -37.5t-142.5 -116.5q-59 -76 -90.5 -191t-31.5 -260q0 -293 123 -448.5t330 -155.5t329.5 155.5t122.5 448.5zM1027 1677h-201v195h201v-195zM614 1677h-201v195h201v-195z" glyph-name="Odieresis" horiz-adv-x="1449" unicode="Ö"/><glyph d="M671 -31q-131 0 -229 34.5t-167 102.5q-78 78 -110 186.5t-32 267.5v929h198v-929q0 -103 13 -173.5t51 -126.5q40 -60 108.5 -91t167.5 -31q93 0 165 31t112 91q37 57 50.5 126t13.5 169v934h198v-929q0 -155 -31.5 -266t-110.5 -188q-71 -69 -165.5 -103t-231.5 -34z M1004 1677h-201v195h201v-195zM591 1677h-201v195h201v-195z" glyph-name="Udieresis" horiz-adv-x="1343" unicode="Ü"/><glyph d="M760 275v310q-67 -6 -169.5 -16.5t-165.5 -29.5q-75 -23 -124 -70.5t-49 -132.5q0 -96 54 -145t158 -49q89 0 161 38.5t135 94.5zM760 119l-61.5 -47.5t-74.5 -48.5q-50 -26 -96.5 -40t-130.5 -14q-69 0 -131 26t-109 73q-45 46 -72 113.5t-27 142.5q0 116 49 197.5 t155 129.5q94 43 222 59.5t276 24.5v36q0 66 -20 106.5t-56 62.5q-36 23 -88 30.5t-107 7.5q-65 0 -153 -19.5t-176 -56.5h-11v191q52 15 149 33t192 18q115 0 194 -18t142 -65q61 -46 91 -119t30 -178v-764h-187v119zM837 1676l-273 -374h-149l179 374h243z" glyph-name="aacute" horiz-adv-x="1075" unicode="á"/><glyph d="M760 275v310q-67 -6 -169.5 -16.5t-165.5 -29.5q-75 -23 -124 -70.5t-49 -132.5q0 -96 54 -145t158 -49q89 0 161 38.5t135 94.5zM760 119l-61.5 -47.5t-74.5 -48.5q-50 -26 -96.5 -40t-130.5 -14q-69 0 -131 26t-109 73q-45 46 -72 113.5t-27 142.5q0 116 49 197.5 t155 129.5q94 43 222 59.5t276 24.5v36q0 66 -20 106.5t-56 62.5q-36 23 -88 30.5t-107 7.5q-65 0 -153 -19.5t-176 -56.5h-11v191q52 15 149 33t192 18q115 0 194 -18t142 -65q61 -46 91 -119t30 -178v-764h-187v119zM668 1302h-149l-273 374h243z" glyph-name="agrave" horiz-adv-x="1075" unicode="à"/><glyph d="M760 275v310q-67 -6 -169.5 -16.5t-165.5 -29.5q-75 -23 -124 -70.5t-49 -132.5q0 -96 54 -145t158 -49q89 0 161 38.5t135 94.5zM760 119l-61.5 -47.5t-74.5 -48.5q-50 -26 -96.5 -40t-130.5 -14q-69 0 -131 26t-109 73q-45 46 -72 113.5t-27 142.5q0 116 49 197.5 t155 129.5q94 43 222 59.5t276 24.5v36q0 66 -20 106.5t-56 62.5q-36 23 -88 30.5t-107 7.5q-65 0 -153 -19.5t-176 -56.5h-11v191q52 15 149 33t192 18q115 0 194 -18t142 -65q61 -46 91 -119t30 -178v-764h-187v119zM876 1297h-159l-185 256l-184 -256h-155l228 379h227z" glyph-name="acircumflex" horiz-adv-x="1075" unicode="â"/><glyph d="M760 275v310q-67 -6 -169.5 -16.5t-165.5 -29.5q-75 -23 -124 -70.5t-49 -132.5q0 -96 54 -145t158 -49q89 0 161 38.5t135 94.5zM760 119l-61.5 -47.5t-74.5 -48.5q-50 -26 -96.5 -40t-130.5 -14q-69 0 -131 26t-109 73q-45 46 -72 113.5t-27 142.5q0 116 49 197.5 t155 129.5q94 43 222 59.5t276 24.5v36q0 66 -20 106.5t-56 62.5q-36 23 -88 30.5t-107 7.5q-65 0 -153 -19.5t-176 -56.5h-11v191q52 15 149 33t192 18q115 0 194 -18t142 -65q61 -46 91 -119t30 -178v-764h-187v119zM835 1304h-201v195h201v-195zM422 1304h-201v195h201 v-195z" glyph-name="adieresis" horiz-adv-x="1075" unicode="ä"/><glyph d="M760 275v310q-67 -6 -169.5 -16.5t-165.5 -29.5q-75 -23 -124 -70.5t-49 -132.5q0 -96 54 -145t158 -49q89 0 161 38.5t135 94.5zM760 119l-61.5 -47.5t-74.5 -48.5q-50 -26 -96.5 -40t-130.5 -14q-69 0 -131 26t-109 73q-45 46 -72 113.5t-27 142.5q0 116 49 197.5 t155 129.5q94 43 222 59.5t276 24.5v36q0 66 -20 106.5t-56 62.5q-36 23 -88 30.5t-107 7.5q-65 0 -153 -19.5t-176 -56.5h-11v191q52 15 149 33t192 18q115 0 194 -18t142 -65q61 -46 91 -119t30 -178v-764h-187v119zM933 1632q-10 -156 -74.5 -234t-171.5 -78 q-52 0 -96 19t-86 59q-44 41 -76 62.5t-63 21.5q-49 0 -68.5 -45t-23.5 -121h-140q7 154 76 232.5t169 78.5q51 0 94 -19.5t86 -57.5q43 -39 77.5 -59.5t63.5 -20.5q47 0 68.5 45t24.5 117h140z" glyph-name="atilde" horiz-adv-x="1075" unicode="ã"/><glyph d="M760 275v310q-67 -6 -169.5 -16.5t-165.5 -29.5q-75 -23 -124 -70.5t-49 -132.5q0 -96 54 -145t158 -49q89 0 161 38.5t135 94.5zM760 119l-61.5 -47t-74.5 -49q-50 -26 -96.5 -40t-130.5 -14q-69 0 -131 26t-109 73q-46 46 -72.5 113.5t-26.5 142.5q0 116 49 197.5 t155 129.5q94 43 222 59.5t276 24.5v36q0 66 -20 106.5t-56 62.5q-36 23 -88 30.5t-107 7.5q-52 0 -104.5 -10t-86.5 -19q-46 -12 -82 -25.5l-56 -21.5h-11v191q47 14 117.5 27t159.5 19q-90 36 -148 110t-58 172q0 128 89 214.5t217 86.5q129 0 217.5 -86t88.5 -215 q0 -99 -60.5 -176t-157.5 -111q86 -12 146.5 -39t99.5 -68q43 -46 65 -109.5t22 -153.5v-764h-187v119zM685 1420q0 73 -44 121.5t-115 48.5q-70 0 -114.5 -48.5t-44.5 -121.5q0 -74 45 -123t114 -49t114 49t45 123z" glyph-name="aring" horiz-adv-x="1075" unicode="å"/><glyph d="M580 -25q-115 0 -211 35.5t-165 107.5t-107 181.5t-38 257.5q0 147 39.5 254t105.5 180t164.5 112.5t211.5 39.5q92 0 177.5 -26t152.5 -60v-211h-11q-20 17 -51.5 39t-76.5 45q-39 20 -92 35t-102 15q-146 0 -234.5 -110.5t-88.5 -312.5q0 -198 85.5 -308.5 t237.5 -110.5q92 0 175 38t147 98h11v-211l-65 -29t-68 -26q1 -16 3 -42t2 -55q0 -149 -82 -241.5t-227 -92.5q-37 0 -87 6t-90 18v160h9q24 -11 63 -22.5t79 -11.5q94 0 138 39.5t44 126.5q0 18 -0.5 38.5t-1.5 45.5q-13 0 -22.5 -1t-24.5 -1z" glyph-name="ccedilla" horiz-adv-x="945" unicode="ç"/><glyph d="M621 -26q-267 0 -414.5 150.5t-147.5 427.5q0 273 143 434.5t374 161.5q104 0 184 -30t140 -94t92 -156.5t32 -226.5v-102h-774q0 -195 98 -298t271 -103q62 0 121.5 14t107.5 36q51 23 86 44.5t58 40.5h11v-205l-82 -32.5t-88 -30.5q-55 -15 -99.5 -23t-112.5 -8z M841 683q-2 76 -18 131t-46 93q-33 42 -84.5 64t-127.5 22q-75 0 -127.5 -22.5t-95.5 -65.5q-42 -44 -64 -97.5t-28 -124.5h591zM889 1676l-273 -374h-149l179 374h243z" glyph-name="eacute" horiz-adv-x="1078" unicode="é"/><glyph d="M621 -26q-267 0 -414.5 150.5t-147.5 427.5q0 273 143 434.5t374 161.5q104 0 184 -30t140 -94t92 -156.5t32 -226.5v-102h-774q0 -195 98 -298t271 -103q62 0 121.5 14t107.5 36q51 23 86 44.5t58 40.5h11v-205l-82 -32.5t-88 -30.5q-55 -15 -99.5 -23t-112.5 -8z M841 683q-2 76 -18 131t-46 93q-33 42 -84.5 64t-127.5 22q-75 0 -127.5 -22.5t-95.5 -65.5q-42 -44 -64 -97.5t-28 -124.5h591zM685 1302h-149l-273 374h243z" glyph-name="egrave" horiz-adv-x="1078" unicode="è"/><glyph d="M621 -26q-267 0 -414.5 150.5t-147.5 427.5q0 273 143 434.5t374 161.5q104 0 184 -30t140 -94t92 -156.5t32 -226.5v-102h-774q0 -195 98 -298t271 -103q62 0 121.5 14t107.5 36q51 23 86 44.5t58 40.5h11v-205l-82 -32.5t-88 -30.5q-55 -15 -99.5 -23t-112.5 -8z M841 683q-2 76 -18 131t-46 93q-33 42 -84.5 64t-127.5 22q-75 0 -127.5 -22.5t-95.5 -65.5q-42 -44 -64 -97.5t-28 -124.5h591zM915 1297h-159l-185 256l-184 -256h-155l228 379h227z" glyph-name="ecircumflex" horiz-adv-x="1078" unicode="ê"/><glyph d="M621 -26q-267 0 -414.5 150.5t-147.5 427.5q0 273 143 434.5t374 161.5q104 0 184 -30t140 -94t92 -156.5t32 -226.5v-102h-774q0 -195 98 -298t271 -103q62 0 121.5 14t107.5 36q51 23 86 44.5t58 40.5h11v-205l-82 -32.5t-88 -30.5q-55 -15 -99.5 -23t-112.5 -8z M841 683q-2 76 -18 131t-46 93q-33 42 -84.5 64t-127.5 22q-75 0 -127.5 -22.5t-95.5 -65.5q-42 -44 -64 -97.5t-28 -124.5h591zM880 1304h-201v195h201v-195zM467 1304h-201v195h201v-195z" glyph-name="edieresis" horiz-adv-x="1078" unicode="ë"/><glyph d="M328 0h-188v1117h188v-1117zM542 1676l-273 -374h-149l179 374h243z" glyph-name="iacute" horiz-adv-x="468" unicode="í"/><glyph d="M328 0h-188v1117h188v-1117zM421 1302h-149l-273 374h243z" glyph-name="igrave" horiz-adv-x="468" unicode="ì"/><glyph d="M328 0h-188v1117h188v-1117zM521 1297h-151l-139 263l-138 -263h-147l174 379h227z" glyph-name="icircumflex" horiz-adv-x="468" unicode="î"/><glyph d="M328 0h-188v1117h188v-1117zM506 1304h-189v195h189v-195zM151 1304h-189v195h189v-195z" glyph-name="idieresis" horiz-adv-x="468" unicode="ï"/><glyph d="M1014 0h-188v636q0 77 -7.5 143.5t-28.5 106.5q-23 42 -64 62.5t-112 20.5q-70 0 -144.5 -37.5t-145.5 -97.5v-834h-188v1117h188v-124q84 75 166 115t173 40q165 0 258 -108.5t93 -314.5v-725zM978 1632q-10 -156 -74.5 -234t-171.5 -78q-52 0 -96 19t-86 59 q-44 41 -76 62.5t-63 21.5q-49 0 -68.5 -45t-23.5 -121h-140q7 154 76 232.5t169 78.5q51 0 94 -19.5t86 -57.5q43 -39 77.5 -59.5t63.5 -20.5q47 0 68.5 45t24.5 117h140z" glyph-name="ntilde" horiz-adv-x="1142" unicode="ñ"/><glyph d="M1055 558q0 -282 -136 -435.5t-362 -153.5q-233 0 -366.5 158.5t-133.5 430.5q0 280 137.5 435t362.5 155q226 0 362 -154.5t136 -435.5zM861 558q0 217 -79 322.5t-225 105.5q-147 0 -226.5 -105.5t-79.5 -322.5q0 -210 79.5 -318.5t226.5 -108.5q145 0 224.5 106.5 t79.5 320.5zM868 1676l-273 -374h-149l179 374h243z" glyph-name="oacute" horiz-adv-x="1112" unicode="ó"/><glyph d="M1055 558q0 -282 -136 -435.5t-362 -153.5q-233 0 -366.5 158.5t-133.5 430.5q0 280 137.5 435t362.5 155q226 0 362 -154.5t136 -435.5zM861 558q0 217 -79 322.5t-225 105.5q-147 0 -226.5 -105.5t-79.5 -322.5q0 -210 79.5 -318.5t226.5 -108.5q145 0 224.5 106.5 t79.5 320.5zM667 1302h-149l-273 374h243z" glyph-name="ograve" horiz-adv-x="1112" unicode="ò"/><glyph d="M1055 558q0 -282 -136 -435.5t-362 -153.5q-233 0 -366.5 158.5t-133.5 430.5q0 280 137.5 435t362.5 155q226 0 362 -154.5t136 -435.5zM861 558q0 217 -79 322.5t-225 105.5q-147 0 -226.5 -105.5t-79.5 -322.5q0 -210 79.5 -318.5t226.5 -108.5q145 0 224.5 106.5 t79.5 320.5zM900 1297h-159l-185 256l-184 -256h-155l228 379h227z" glyph-name="ocircumflex" horiz-adv-x="1112" unicode="ô"/><glyph d="M1055 558q0 -282 -136 -435.5t-362 -153.5q-233 0 -366.5 158.5t-133.5 430.5q0 280 137.5 435t362.5 155q226 0 362 -154.5t136 -435.5zM861 558q0 217 -79 322.5t-225 105.5q-147 0 -226.5 -105.5t-79.5 -322.5q0 -210 79.5 -318.5t226.5 -108.5q145 0 224.5 106.5 t79.5 320.5zM864 1304h-201v195h201v-195zM451 1304h-201v195h201v-195z" glyph-name="odieresis" horiz-adv-x="1112" unicode="ö"/><glyph d="M1055 558q0 -282 -136 -435.5t-362 -153.5q-233 0 -366.5 158.5t-133.5 430.5q0 280 137.5 435t362.5 155q226 0 362 -154.5t136 -435.5zM861 558q0 217 -79 322.5t-225 105.5q-147 0 -226.5 -105.5t-79.5 -322.5q0 -210 79.5 -318.5t226.5 -108.5q145 0 224.5 106.5 t79.5 320.5zM957 1632q-10 -156 -74.5 -234t-171.5 -78q-52 0 -96 19t-86 59q-44 41 -76 62.5t-63 21.5q-49 0 -68.5 -45t-23.5 -121h-140q7 154 76 232.5t169 78.5q51 0 94 -19.5t86 -57.5q43 -39 77.5 -59.5t63.5 -20.5q47 0 68.5 45t24.5 117h140z" glyph-name="otilde" horiz-adv-x="1112" unicode="õ"/><glyph d="M1006 0h-188v124q-87 -76 -165 -115.5t-174 -39.5q-73 0 -137.5 24t-112.5 76t-74.5 131t-26.5 192v725h188v-636q0 -89 6.5 -147.5t29.5 -102.5q23 -43 62.5 -63t113.5 -20q69 0 147 39t143 96v834h188v-1117zM868 1676l-273 -374h-149l179 374h243z" glyph-name="uacute" horiz-adv-x="1142" unicode="ú"/><glyph d="M1006 0h-188v124q-87 -76 -165 -115.5t-174 -39.5q-73 0 -137.5 24t-112.5 76t-74.5 131t-26.5 192v725h188v-636q0 -89 6.5 -147.5t29.5 -102.5q23 -43 62.5 -63t113.5 -20q69 0 147 39t143 96v834h188v-1117zM687 1302h-149l-273 374h243z" glyph-name="ugrave" horiz-adv-x="1142" unicode="ù"/><glyph d="M1006 0h-188v124q-87 -76 -165 -115.5t-174 -39.5q-73 0 -137.5 24t-112.5 76t-74.5 131t-26.5 192v725h188v-636q0 -89 6.5 -147.5t29.5 -102.5q23 -43 62.5 -63t113.5 -20q69 0 147 39t143 96v834h188v-1117zM908 1297h-159l-185 256l-184 -256h-155l228 379h227z" glyph-name="ucircumflex" horiz-adv-x="1142" unicode="û"/><glyph d="M1006 0h-188v124q-87 -76 -165 -115.5t-174 -39.5q-73 0 -137.5 24t-112.5 76t-74.5 131t-26.5 192v725h188v-636q0 -89 6.5 -147.5t29.5 -102.5q23 -43 62.5 -63t113.5 -20q69 0 147 39t143 96v834h188v-1117zM879 1304h-201v195h201v-195zM466 1304h-201v195h201v-195z" glyph-name="udieresis" horiz-adv-x="1142" unicode="ü"/><glyph d="M983 1034l-363 5l5 -904h-132l5 904l-363 -5v129l363 -5l-5 398h132l-5 -398l363 5v-129z" glyph-name="dagger" horiz-adv-x="1118" unicode="†"/><glyph d="M863 1135q0 -160 -110 -270t-271 -110q-159 0 -270 109t-111 271q0 160 110 270t271 110t271 -110t110 -270zM706 1135q0 96 -64 162t-160 66t-160 -66t-64 -162q0 -98 65.5 -163t158.5 -65q96 0 160 66.5t64 161.5z" glyph-name="degree" horiz-adv-x="964" unicode="°"/><glyph d="M557 2q-215 25 -329 169t-114 386q0 238 118 386t325 172v360h114v-359q87 -3 167.5 -26.5t136.5 -52.5v-200h-10q-62 51 -132 89t-162 51v-836q49 5 98.5 23t83.5 38q36 21 64 41.5t48 37.5h10v-198q-65 -30 -135.5 -53.5t-168.5 -28.5v-362h-114v363zM557 146v825 q-116 -21 -183 -125.5t-67 -288.5q0 -188 68.5 -289.5t181.5 -121.5z" glyph-name="cent" horiz-adv-x="1118" unicode="¢"/><glyph d="M1031 0h-942v207q111 33 156.5 128t45.5 278h-161v138h161v320q0 201 116 324t301 123q97 0 166 -15.5t127 -32.5v-206h-10q-58 41 -129 64t-135 23q-123 0 -183.5 -77t-60.5 -222v-301h364v-138h-364v-61q0 -117 -58.5 -212.5t-163.5 -157.5v-11h770v-171z" glyph-name="sterling" horiz-adv-x="1118" unicode="£"/><glyph d="M759 401q24 35 37.5 67.5t13.5 86.5q0 49 -14.5 85t-39.5 59q-24 23 -56 38.5t-74 28.5l-77 22.5t-99 30.5q-20 -12 -41.5 -30t-47.5 -51q-20 -26 -36.5 -70t-16.5 -89q0 -81 38 -129t146 -81l77.5 -23.5l97.5 -30.5q19 12 44 33t48 53zM182 -133q26 -13 64.5 -29 t74.5 -28q47 -15 87 -22.5t101 -7.5q114 0 190.5 46.5t76.5 137.5q0 54 -18.5 87.5t-59.5 59.5q-42 25 -103.5 42.5l-134.5 38.5q-88 25 -146.5 51t-105.5 69q-45 41 -67 95t-22 126q0 94 49 178.5t150 146.5v7q-91 50 -130.5 121t-39.5 161q0 168 128 270t352 102 q85 0 157 -13t161 -44v-194h-10q-90 45 -167.5 66t-161.5 21q-112 0 -189.5 -45.5t-77.5 -133.5q0 -57 20.5 -93t59.5 -59q39 -24 99.5 -43t137.5 -39q184 -50 262.5 -128.5t78.5 -212.5q0 -108 -54.5 -189t-144.5 -135v-7q87 -46 128.5 -116t41.5 -164q0 -74 -31.5 -145 t-89.5 -119q-62 -53 -148.5 -82t-209.5 -29q-79 0 -157 14t-161 44v194h10z" glyph-name="section" horiz-adv-x="1118" unicode="§"/><glyph d="M817 662q0 -145 -103.5 -248t-248.5 -103t-248 103t-103 248t103 248t248 103t248.5 -103t103.5 -248z" glyph-name="bullet" horiz-adv-x="931" unicode="•"/><glyph d="M982 -363h-140v1722h-187v-1722h-140v956q-206 5 -332 129t-126 328q0 207 130 323t373 116h422v-1852z" glyph-name="paragraph" horiz-adv-x="1118" unicode="¶"/><glyph d="M1068 481q0 -218 -135 -361.5t-351 -143.5q-25 0 -62.5 3t-59.5 7v166h10q28 -8 59 -12.5t61 -4.5q77 0 131.5 27.5t87.5 74.5q35 51 49.5 111t14.5 141q0 169 -103 248.5t-304 79.5v157q152 0 233.5 57.5t81.5 190.5q0 33 -10 68.5t-34 63.5q-24 29 -62 46.5t-97 17.5 q-53 0 -96 -14.5t-81 -54.5q-36 -37 -56.5 -103t-20.5 -160v-1086h-188v1080q0 130 34 218t95 150q60 60 142.5 89t174.5 29q168 0 279.5 -85t111.5 -240q0 -112 -71 -201t-184 -121v-9q164 -37 257 -147t93 -282z" glyph-name="germandbls" horiz-adv-x="1123" unicode="ß"/><glyph d="M1816 655q0 -358 -253.5 -611.5t-611.5 -253.5t-611.5 253.5t-253.5 611.5t253.5 611t611.5 253t611.5 -253t253.5 -611zM1701 655q0 313 -219.5 533.5t-529.5 220.5t-529.5 -220.5t-219.5 -533.5t219.5 -534t529.5 -221t529.5 221t219.5 534zM1448 215h-227l-283 355 h-123v-355h-165v915h279q94 0 148.5 -7t110.5 -39q60 -34 87 -82t27 -123q0 -100 -55.5 -164t-144.5 -100zM1120 868q0 37 -12 64t-42 46q-25 16 -56 21.5t-80 5.5h-115v-309h98q48 0 90 9.5t68 32.5t37.5 53t11.5 77z" glyph-name="registered" horiz-adv-x="1902" unicode="®"/><glyph d="M1816 655q0 -358 -253.5 -611.5t-611.5 -253.5t-611.5 253.5t-253.5 611.5t253.5 611t611.5 253t611.5 -253t253.5 -611zM1701 655q0 313 -219.5 533.5t-529.5 220.5t-529.5 -220.5t-219.5 -533.5t219.5 -534t529.5 -221t529.5 221t219.5 534zM1274 255 q-67 -30 -134 -52.5t-158 -22.5q-209 0 -330 123.5t-121 356.5q0 230 125 356.5t326 126.5q83 0 159 -22t133 -51v-181h-16q-43 38 -119 72.5t-153 34.5q-123 0 -196.5 -82t-73.5 -254q0 -162 70 -247.5t200 -85.5q84 0 159 36.5t113 70.5h16v-179z" glyph-name="copyright" horiz-adv-x="1902" unicode="©"/><glyph d="M1634 785h-124v616h-20l-204 -453h-85l-206 460h-25v-623h-123v704h238l161 -382l161 382h227v-704zM692 1372h-229v-587h-127v587h-229v117h585v-117z" glyph-name="trademark" horiz-adv-x="1794" unicode="™"/><glyph d="M871 1676l-273 -374h-149l179 374h243z" glyph-name="acute" horiz-adv-x="1118" unicode="´"/><glyph d="M867 1304h-201v195h201v-195zM454 1304h-201v195h201v-195z" glyph-name="dieresis" horiz-adv-x="1118" unicode="¨"/><glyph d="M1298 362h-568l-105 -335h-153l105 335h-385v156h434l84 268h-518v156h566l105 335h153l-105 -335h387v-156h-436l-83 -268h519v-156z" glyph-name="notequal" horiz-adv-x="1490" unicode="≠"/><glyph d="M1802 0h-912v557h-505l-217 -557h-207l603 1489h1238v-176h-716v-408h666v-176h-666v-553h716v-176zM890 723v601h-194l-245 -601h439z" glyph-name="AE" horiz-adv-x="1870" unicode="Æ"/><glyph d="M1383 744q0 -368 -180 -571.5t-479 -203.5q-110 0 -204.5 29t-171.5 82l-132 -196h-148l189 278q-90 99 -140.5 245t-50.5 337q0 368 180.5 572t477.5 204q114 0 203.5 -27.5t169.5 -82.5l115 171h148l-171 -251q91 -100 142.5 -243.5t51.5 -342.5zM995 1260 q-52 44 -120 66.5t-150 22.5q-208 0 -331.5 -154t-123.5 -451q0 -135 26 -239.5t73 -180.5zM1179 744q0 138 -27.5 246t-73.5 179l-628 -937q57 -46 120.5 -69t154.5 -23q206 0 330 155.5t124 448.5z" glyph-name="Oslash" horiz-adv-x="1449" unicode="Ø"/><glyph d="M1752 663q0 -229 -113.5 -367.5t-316.5 -138.5q-127 0 -234 80.5t-168 218.5q-77 -153 -176.5 -226t-236.5 -73q-182 0 -289.5 137t-107.5 348q0 236 117.5 371t312.5 135q127 0 234 -80.5t168 -218.5q75 150 177 224.5t236 74.5q182 0 289.5 -137t107.5 -348zM873 729 q-60 117 -144.5 175.5t-174.5 58.5q-131 0 -202.5 -82t-71.5 -239q0 -142 62.5 -220.5t167.5 -78.5q85 0 143 37.5t124 153.5q25 44 49.5 92t46.5 103zM1582 663q0 144 -63 221.5t-167 77.5q-88 0 -145 -39t-123 -152q-33 -55 -52.5 -97.5l-42.5 -97.5q58 -116 143.5 -175 t175.5 -59q131 0 202.5 81.5t71.5 239.5z" glyph-name="infinity" horiz-adv-x="1862" unicode="∞"/><glyph d="M1328 159h-1166v158h500v422h-500v158h500v505h166v-505h500v-158h-500v-422h500v-158z" glyph-name="plusminus" horiz-adv-x="1490" unicode="±"/><glyph d="M1275 305l-1074 483v120l1074 483v-181l-812 -362l812 -362v-181zM1275 0h-1074v160h1074v-160z" glyph-name="lessequal" horiz-adv-x="1490" unicode="≤"/><glyph d="M1289 788l-1074 -483v181l812 362l-812 362v181l1074 -483v-120zM1289 0h-1074v160h1074v-160z" glyph-name="greaterequal" horiz-adv-x="1490" unicode="≥"/><glyph d="M1059 1489l-408 -811v-100h342v-138h-340v-440h-188v440h-340v138h342v79l-411 832h210l294 -639l298 639h201z" glyph-name="yen" horiz-adv-x="1118" unicode="¥"/><glyph d="M1027 0h-172v116h-6q-60 -63 -120.5 -98t-150.5 -35q-92 0 -145 35t-109 97v-527h-188v1529h188v-842q42 -50 105 -80.5t149 -30.5q90 0 151.5 29t109.5 82v842h188v-1117z" glyph-name="mu1" horiz-adv-x="1163" unicode="µ"/><glyph d="M1033 837q0 -68 -7.5 -153.5t-25.5 -170.5t-48 -170t-74 -153q-82 -123 -178.5 -172t-205.5 -49q-190 0 -308.5 123.5t-118.5 331.5q0 228 130.5 372.5t326.5 144.5q87 0 163 -26t151 -91q2 26 2.5 53t0.5 58q0 216 -75 317.5t-221 101.5q-79 0 -165 -31t-162 -87h-13 v194q79 44 179.5 66.5t187.5 22.5q140 0 236.5 -56t155.5 -177q41 -86 55 -191t14 -258zM832 678q-56 46 -129 73.5t-143 27.5q-134 0 -213.5 -89t-79.5 -263q0 -146 63.5 -222t169.5 -76q143 0 230 143t102 406z" glyph-name="partialdiff" horiz-adv-x="1118" unicode="∂"/><glyph d="M1228 -189h-1102v191l626 668l-616 631v188h1053v-176h-807l601 -598v-72l-628 -656h873v-176z" glyph-name="summation" horiz-adv-x="1303" unicode="∑"/><glyph d="M1237 1489v-1678h-198v1502h-685v-1502h-198v1678h1081z" glyph-name="product" horiz-adv-x="1393" unicode="∏"/><glyph d="M1018 0h-188v955h-506v-955h-188v1117h882v-1117z" glyph-name="pi1" horiz-adv-x="1154"/><glyph d="M1048 1369h-10q-29 10 -80.5 18.5t-80.5 8.5q-127 0 -175.5 -59.5t-48.5 -211.5v-1123q0 -210 -105.5 -317.5t-283.5 -107.5q-48 0 -94 4.5t-96 14.5v178h10q38 -11 82 -19t75 -8q127 0 175.5 59.5t48.5 211.5v1123q0 210 105 317.5t284 107.5q58 0 105 -5.5t89 -13.5 v-178z" glyph-name="integral" horiz-adv-x="1118" unicode="∫"/><glyph d="M874 566h-166v91l-51 -38.5t-63 -37.5q-41 -19 -80.5 -29.5t-109.5 -10.5q-124 0 -207 83.5t-83 214.5q0 104 43 169.5t123 103.5q75 36 189 51t239 21v19q0 52 -16.5 84t-48.5 50q-29 17 -72 22.5t-89 5.5q-78 0 -158.5 -23.5t-119.5 -37.5h-15v170q44 13 131.5 29 t162.5 16q192 0 291.5 -76.5t99.5 -248.5v-628zM708 802v243q-65 -4 -151 -12t-137 -23q-60 -17 -97 -55.5t-37 -105.5q0 -75 44 -114t131 -39q76 0 136.5 33t110.5 73z" glyph-name="ordfeminine" horiz-adv-x="1010" unicode="ª"/><glyph d="M926 1030q0 -234 -117 -362t-303 -128q-193 0 -307 131.5t-114 358.5q0 233 117 361.5t304 128.5t303.5 -127t116.5 -363zM746 1030q0 173 -64.5 256.5t-175.5 83.5t-176 -82.5t-65 -257.5q0 -169 64 -254.5t177 -85.5q111 0 175.5 85.5t64.5 254.5z" glyph-name="ordmasculine" horiz-adv-x="1010" unicode="º"/><glyph d="M1403 0h-559v387q61 38 120.5 83.5t99.5 101.5q45 62 68.5 133t23.5 188q0 95 -26.5 179t-80.5 145q-53 61 -136 96.5t-190 35.5q-109 0 -191 -35t-140 -98q-53 -58 -81.5 -144.5t-28.5 -178.5q0 -109 26.5 -187.5t70.5 -134.5q45 -57 104 -101.5t119 -82.5v-387h-559 v174h393v124q-73 42 -138 101.5t-115 134.5q-50 76 -78.5 166.5t-28.5 192.5q0 139 43.5 250t128.5 198q81 83 204 131t271 48t268 -46.5t203 -131.5q82 -84 125 -198.5t43 -250.5q0 -103 -27.5 -193.5t-74.5 -164.5t-111 -134t-139 -103v-124h393v-174z" glyph-name="Ohm" horiz-adv-x="1438" unicode="Ω"/><glyph d="M817 298q-19 54 -29 119.5t-10 140.5q-95 -3 -189.5 -8.5t-169.5 -26.5q-74 -20 -121 -66t-47 -127q0 -95 56 -141.5t167 -46.5q91 0 184 44t159 112zM1340 138q65 0 125.5 14.5t106.5 35.5q51 23 86 44.5t58 40.5h11v-205l-82.5 -32.5t-88.5 -30.5q-55 -15 -99.5 -23 t-114.5 -8q-161 0 -276 52t-189 155l-64.5 -59.5t-91.5 -68.5q-65 -38 -134.5 -60t-179.5 -22q-146 0 -247.5 97t-101.5 249q0 129 53 204t150 117q92 39 231.5 52t293.5 16v58q0 65 -21.5 108t-60.5 67q-36 22 -87.5 31.5t-116.5 9.5q-81 0 -176.5 -26.5t-152.5 -51.5h-15 v191q49 14 151.5 33.5t193.5 19.5q160 0 260 -48t153 -136q66 81 165 133.5t217 52.5q224 0 338.5 -134.5t114.5 -372.5v-82h-788q0 -114 30 -195.5t83 -132.5q53 -50 120 -71.5t146 -21.5zM1567 703q-5 59 -20.5 112.5t-47.5 92.5q-31 38 -85 61.5t-127 23.5 q-78 0 -129.5 -21.5t-94.5 -62.5q-40 -38 -64.5 -92.5t-34.5 -113.5h603z" glyph-name="ae" horiz-adv-x="1802" unicode="æ"/><glyph d="M1055 558q0 -282 -136 -435t-362 -153q-79 0 -145 20.5t-124 56.5l-123 -194h-124l168 261q-72 76 -112 187t-40 257q0 280 137.5 434.5t362.5 154.5q75 0 142 -20t124 -57l108 170h125l-152 -236q71 -77 111 -186t40 -260zM735 932q-34 26 -78 40t-100 14 q-147 0 -228 -107.5t-81 -320.5q0 -97 14.5 -169.5t43.5 -126.5zM864 558q0 99 -14.5 173t-42.5 125l-429 -669q38 -29 79.5 -42.5t99.5 -13.5q145 0 226 106.5t81 320.5z" glyph-name="oslash" horiz-adv-x="1112" unicode="ø"/><glyph d="M632 1278h-204v211h204v-211zM861 40q-79 -30 -167 -50t-195 -20q-205 0 -323 104.5t-118 275.5q0 94 30 168t89 141q53 59 122.5 106.5l144.5 95.5v228h179v-305l-131.5 -81t-115.5 -89q-51 -48 -82.5 -109t-31.5 -140q0 -113 71 -168.5t185 -55.5q99 0 191 34.5 t141 68.5h11v-204z" glyph-name="questiondown" horiz-adv-x="970" unicode="¿"/><glyph d="M442 1278h-204v211h204v-211zM452 0h-224l28 1079h166z" glyph-name="exclamdown" horiz-adv-x="680" unicode="¡"/><glyph d="M1323 57h-171v545h-995v160h1166v-705z" glyph-name="logicalnot" horiz-adv-x="1490" unicode="¬"/><glyph d="M1554 1789l-790 -1940h-104l-342 993h-237v139h393l265 -797l653 1605h162z" glyph-name="radical" horiz-adv-x="1490" unicode="√"/><glyph d="M1087 1320h-10q-27 10 -78.5 23.5t-89.5 13.5q-112 0 -162 -60.5t-72 -213.5l-29 -199h292v-138h-310l-70 -511q-32 -231 -137 -334t-286 -103q-39 0 -86.5 4.5t-97.5 13.5v181h10q28 -10 77.5 -23.5t90.5 -13.5q112 0 163 61t71 213l72 512h-178v138h196l27 198 q17 123 54 206.5t92 136.5q52 49 125.5 71.5t151.5 22.5q50 0 91 -4.5t93 -13.5v-181z" glyph-name="florin" horiz-adv-x="1118" unicode="ƒ"/><glyph d="M1298 1104q-19 -195 -100.5 -293.5t-235.5 -98.5q-69 0 -136.5 37t-120.5 83q-28 24 -90.5 65t-105.5 41q-72 0 -105 -47t-59 -172h-155q21 181 104 279t233 98q66 0 134.5 -36.5t122.5 -82.5q36 -30 94.5 -68.5t101.5 -38.5q69 0 106 53.5t55 180.5h157zM1299 588 q-23 -185 -102.5 -282t-235.5 -97q-66 0 -134.5 37t-122.5 83q-37 31 -95 68.5t-101 37.5q-72 0 -107.5 -55.5t-53.5 -177.5h-157q17 192 102 291.5t234 99.5q71 0 138.5 -37.5t118.5 -81.5q31 -26 90 -66.5t106 -40.5q70 0 104 50t59 171h157z" glyph-name="approxequal" horiz-adv-x="1490" unicode="≈"/><glyph d="M1278 0h-1288l522 1489h244zM1010 172l-381 1120l-380 -1120h761z" glyph-name="Delta" horiz-adv-x="1268" unicode="∆"/><glyph d="M1043 191l-488 419v85l488 418v-188l-317 -273l317 -273v-188zM613 162l-510 446v89l510 445v-196l-331 -294l331 -294v-196z" glyph-name="guillemotleft" horiz-adv-x="1174" unicode="«"/><glyph d="M1071 608l-510 -446v196l331 294l-331 294v196l510 -445v-89zM619 610l-488 -419v188l317 273l-317 273v188l488 -418v-85z" glyph-name="guillemotright" horiz-adv-x="1174" unicode="»"/><glyph d="M1497 0h-204v223h204v-223zM939 0h-204v223h204v-223zM381 0h-204v223h204v-223z" glyph-name="ellipsis" horiz-adv-x="1674" unicode="…"/><glyph d="M-10 0l502 1489h244l502 -1489h-209l-135 416h-569l-135 -416h-200zM839 585l-230 702l-229 -702h459zM769 1675h-149l-273 374h243z" glyph-name="Agrave" horiz-adv-x="1228" unicode="À"/><glyph d="M-10 0l502 1489h244l502 -1489h-209l-135 416h-569l-135 -416h-200zM839 585l-230 702l-229 -702h459zM1010 1965q-10 -156 -74.5 -234t-171.5 -78q-52 0 -96 19t-86 59q-44 41 -76 62.5t-63 21.5q-49 0 -68.5 -45t-23.5 -121h-140q7 154 76 232.5t169 78.5 q51 0 94 -19.5t86 -57.5q43 -39 77.5 -59.5t63.5 -20.5q47 0 68.5 45t24.5 117h140z" glyph-name="Atilde" horiz-adv-x="1228" unicode="Ã"/><glyph d="M1204 1318q85 -98 132 -243t47 -331q0 -181 -46 -327t-133 -245q-91 -104 -212.5 -153.5t-267.5 -49.5q-151 0 -272 51t-208 152q-86 99 -132 244t-46 328q0 188 46.5 330t132.5 244q86 99 207.5 150.5t271.5 51.5q152 0 274 -53t206 -149zM1177 744q0 148 -32 262 t-90 189q-59 77 -142.5 115.5t-187.5 38.5q-108 0 -188.5 -37.5t-142.5 -116.5q-59 -76 -90.5 -191t-31.5 -260q0 -293 123 -448.5t330 -155.5t329.5 155.5t122.5 448.5zM1110 1985q-10 -156 -74.5 -234t-171.5 -78q-52 0 -96 19t-86 59q-44 41 -76 62.5t-63 21.5 q-49 0 -68.5 -45t-23.5 -121h-140q7 154 76 232.5t169 78.5q51 0 94 -19.5t86 -57.5q43 -39 77.5 -59.5t63.5 -20.5q47 0 68.5 45t24.5 117h140z" glyph-name="Otilde" horiz-adv-x="1449" unicode="Õ"/><glyph d="M1932 0h-1031q-184 0 -308 26t-225 92q-144 95 -223 253.5t-79 374.5q0 209 84.5 370.5t220.5 252.5q89 60 209.5 90t318.5 30h1033v-176h-723v-408h673v-176h-673v-553h723v-176zM1012 171v1147h-119q-148 0 -241.5 -22.5t-172.5 -75.5q-103 -68 -155 -188t-52 -289 q0 -172 57 -293.5t169 -189.5q83 -50 173.5 -69.5t219.5 -19.5h121z" glyph-name="OE" horiz-adv-x="2000" unicode="Œ"/><glyph d="M1625 683q-4 157 -71 233.5t-202 76.5q-128 0 -214.5 -82t-98.5 -228h586zM856 558q0 217 -78.5 322.5t-223.5 105.5q-148 0 -225.5 -110.5t-77.5 -317.5q0 -210 78.5 -318.5t224.5 -108.5q144 0 223 107.5t79 319.5zM1403 138q62 0 121.5 14t107.5 36q51 23 86 44.5 t58 40.5h11v-205l-82 -32.5t-88 -30.5q-55 -15 -99.5 -23t-112.5 -8q-147 0 -264.5 52.5t-188.5 152.5q-67 -103 -164.5 -156.5t-233.5 -53.5q-231 0 -364 158t-133 431q0 278 135 434t362 156q131 0 234.5 -55t167.5 -156q67 101 172.5 156t234.5 55q215 0 330 -133 t115 -374v-102h-769q0 -193 97 -297t267 -104z" glyph-name="oe" horiz-adv-x="1861" unicode="œ"/><glyph d="M1122 572h-1126v160h1126v-160z" glyph-name="endash" horiz-adv-x="1118" unicode="–"/><glyph d="M1866 572h-1870v160h1870v-160z" glyph-name="emdash" horiz-adv-x="1862" unicode="—"/><glyph d="M725 997h-134l-261 559h238zM331 997h-134l-261 559h238z" glyph-name="quotedblleft" horiz-adv-x="822" unicode="“"/><glyph d="M896 1556l-261 -559h-134l157 559h238zM502 1556l-261 -559h-134l157 559h238z" glyph-name="quotedblright" horiz-adv-x="822" unicode="”"/><glyph d="M335 997h-138l-261 559h242z" glyph-name="quoteleft" horiz-adv-x="432" unicode="‘"/><glyph d="M496 1556l-261 -559h-138l157 559h242z" glyph-name="quoteright" horiz-adv-x="432" unicode="’"/><glyph d="M864 1012h-238v275h238v-275zM1333 572h-1176v160h1176v-160zM864 17h-238v275h238v-275z" glyph-name="divide" horiz-adv-x="1490" unicode="÷"/><glyph d="M1371 654l-626 -710l-626 710l626 710zM1153 654l-408 476l-408 -476l408 -474z" glyph-name="lozenge" horiz-adv-x="1490" unicode="◊"/><glyph d="M1014 1117l-601 -1529h-201l200 466l-406 1063h203l305 -827l304 827h196zM829 1304h-201v195h201v-195zM416 1304h-201v195h201v-195z" glyph-name="ydieresis" horiz-adv-x="1020" unicode="ÿ"/><glyph d="M1193 1489l-503 -830v-659h-198v638l-503 851h220l384 -657l390 657h210zM900 1677h-201v195h201v-195zM487 1677h-201v195h201v-195z" glyph-name="Ydieresis" horiz-adv-x="1180" unicode="Ÿ"/><glyph d="M916 1489l-780 -1489h-165l780 1489h165z" glyph-name="fraction" horiz-adv-x="886" unicode="⁄"/><glyph d="M916 1489l-780 -1489h-165l780 1489h165z" glyph-name="fraction" horiz-adv-x="886" unicode="∕"/><glyph d="M945 662l-27 -138h-620q44 -170 146 -268q116 -112 290 -112q187 0 324 92h14v-193q-170 -70 -339 -70q-274 0 -444 158q-154 143 -203 393h-114l28 138h69q-3 40 -3 81q0 29 1 57h-95l28 138h83q46 262 207 414q174 164 446 164q178 0 336 -71v-195h-16q-141 97 -322 97 q-184 0 -302 -123q-101 -106 -140 -286h709l-27 -138h-700q-2 -28 -2 -57q0 -41 3 -81h670z" glyph-name="Euro" horiz-adv-x="1118" unicode="€"/><glyph d="M633 172l-510 436v89l510 435v-199l-331 -281l331 -281v-199z" glyph-name="guilsinglleft" horiz-adv-x="784" unicode="‹"/><glyph d="M661 608l-510 -436v199l331 281l-331 281v199l510 -435v-89z" glyph-name="guilsinglright" horiz-adv-x="784" unicode="›"/><glyph d="M954 0h-188v964h-422v-964h-188v961h-127v156h127v57q0 182 97 287t250 105q52 0 94.5 -5.5t70.5 -9.5v-172h-10q-16 6 -53 14.5t-79 8.5q-105 0 -146.5 -54.5t-41.5 -172.5v-58h616v-1117zM954 1304h-202v195h202v-195z" glyph-name="fi" horiz-adv-x="1092" unicode=""/><glyph d="M954 0h-188v964h-422v-964h-188v961h-127v156h127v57q0 182 97 287t250 105q52 0 94.5 -5.5t70.5 -9.5v-172h-10q-16 6 -53 14.5t-79 8.5q-105 0 -146.5 -54.5t-41.5 -172.5v-58h616v-1117zM954 1304h-202v195h202v-195z" glyph-name="fi" horiz-adv-x="1092" unicode="ﬁ"/><glyph d="M948 0h-188v1404q-27 3 -66.5 5t-63.5 2q-162 0 -227 -53.5t-65 -193.5v-47h243v-156h-237v-961h-188v961h-127v156h127v49q0 103 32 177t90 125q55 48 142.5 73t187.5 25q60 0 131 -7l111 -11l98 8v-1556z" glyph-name="fl" horiz-adv-x="1086" unicode=""/><glyph d="M948 0h-188v1404q-27 3 -66.5 5t-63.5 2q-162 0 -227 -53.5t-65 -193.5v-47h243v-156h-237v-961h-188v961h-127v156h127v49q0 103 32 177t90 125q55 48 142.5 73t187.5 25q60 0 131 -7l111 -11l98 8v-1556z" glyph-name="fl" horiz-adv-x="1086" unicode="ﬂ"/><glyph d="M983 507l-363 5l5 -388h-132l5 388l-363 -5v129l363 -5v418l-363 -5v129l363 -5l-5 388h132l-5 -388l363 5v-129l-363 5v-418l363 5v-129z" glyph-name="daggerdbl" horiz-adv-x="1118" unicode="‡"/><glyph d="M429 516h-239v273h239v-273z" glyph-name="periodcentered" horiz-adv-x="620" unicode="∙"/><glyph d="M386 283l-261 -559h-138l157 559h242z" glyph-name="quotesinglbase" horiz-adv-x="432" unicode="‚"/><glyph d="M781 283l-261 -559h-134l157 559h238zM387 283l-261 -559h-134l157 559h238z" glyph-name="quotedblbase" horiz-adv-x="814" unicode="„"/><glyph d="M807 1076q0 -225 -90.5 -333.5t-261.5 -108.5q-174 0 -263.5 110t-89.5 331q0 224 91 333t262 109q174 0 263 -110t89 -331zM1473 1489l-780 -1489h-165l780 1489h165zM1897 413q0 -225 -90.5 -333.5t-261.5 -108.5q-174 0 -263.5 110t-89.5 331q0 224 91 333t262 109 q174 0 263 -110t89 -331zM629 1076q0 152 -35.5 230t-138.5 78t-139 -79t-36 -230q0 -150 34 -229t141 -79q103 0 138.5 79t35.5 230zM1719 413q0 152 -35.5 230t-138.5 78t-139 -79t-36 -230q0 -150 34 -229t141 -79q103 0 138.5 79t35.5 230zM2741 413 q0 -225 -90.5 -333.5t-261.5 -108.5q-174 0 -263.5 110t-89.5 331q0 224 91 333t262 109q174 0 263 -110t89 -331zM2563 413q0 152 -35.5 230t-138.5 78t-139 -79t-36 -230q0 -150 34 -229t141 -79q103 0 138.5 79t35.5 230z" glyph-name="perthousand" horiz-adv-x="2848" unicode="‰"/><glyph d="M-10 0l502 1489h244l502 -1489h-209l-135 416h-569l-135 -416h-200zM839 585l-230 702l-229 -702h459zM940 1650h-159l-185 256l-184 -256h-155l228 379h227z" glyph-name="Acircumflex" horiz-adv-x="1228" unicode="Â"/><glyph d="M151 0v1489h931v-176h-733v-408h683v-176h-683v-553h733v-176h-931zM961 1670h-159l-185 256l-184 -256h-155l228 379h227z" glyph-name="Ecircumflex" horiz-adv-x="1149" unicode="Ê"/><glyph d="M-10 0l502 1489h244l502 -1489h-209l-135 416h-569l-135 -416h-200zM839 585l-230 702l-229 -702h459zM862 2049l-273 -374h-149l179 374h243z" glyph-name="Aacute" horiz-adv-x="1228" unicode="Á"/><glyph d="M151 0v1489h931v-176h-733v-408h683v-176h-683v-553h733v-176h-931zM966 1677h-201v195h201v-195zM553 1677h-201v195h201v-195z" glyph-name="Edieresis" horiz-adv-x="1149" unicode="Ë"/><glyph d="M151 0v1489h931v-176h-733v-408h683v-176h-683v-553h733v-176h-931zM754 1675h-149l-273 374h243z" glyph-name="Egrave" horiz-adv-x="1149" unicode="È"/><glyph d="M671 0h-578v152h190v1185h-190v152h578v-152h-190v-1185h190v-152zM657 2049l-273 -374h-149l179 374h243z" glyph-name="Iacute" horiz-adv-x="764" unicode="Í"/><glyph d="M671 0h-578v152h190v1185h-190v152h578v-152h-190v-1185h190v-152zM725 1670h-159l-185 256l-184 -256h-155l228 379h227z" glyph-name="Icircumflex" horiz-adv-x="764" unicode="Î"/><glyph d="M671 0h-578v152h190v1185h-190v152h578v-152h-190v-1185h190v-152zM690 1677h-201v195h201v-195zM277 1677h-201v195h201v-195z" glyph-name="Idieresis" horiz-adv-x="764" unicode="Ï"/><glyph d="M671 0h-578v152h190v1185h-190v152h578v-152h-190v-1185h190v-152zM529 1675h-149l-273 374h243z" glyph-name="Igrave" horiz-adv-x="764" unicode="Ì"/><glyph d="M1204 1318q85 -98 132 -243t47 -331q0 -181 -46 -327t-133 -245q-91 -104 -212.5 -153.5t-267.5 -49.5q-151 0 -272 51t-208 152q-86 99 -132 244t-46 328q0 188 46.5 330t132.5 244q86 99 207.5 150.5t271.5 51.5q152 0 274 -53t206 -149zM1177 744q0 148 -32 262 t-90 189q-59 77 -142.5 115.5t-187.5 38.5q-108 0 -188.5 -37.5t-142.5 -116.5q-59 -76 -90.5 -191t-31.5 -260q0 -293 123 -448.5t330 -155.5t329.5 155.5t122.5 448.5zM1002 2049l-273 -374h-149l179 374h243z" glyph-name="Oacute" horiz-adv-x="1449" unicode="Ó"/><glyph d="M1204 1318q85 -98 132 -243t47 -331q0 -181 -46 -327t-133 -245q-91 -104 -212.5 -153.5t-267.5 -49.5q-151 0 -272 51t-208 152q-86 99 -132 244t-46 328q0 188 46.5 330t132.5 244q86 99 207.5 150.5t271.5 51.5q152 0 274 -53t206 -149zM1177 744q0 148 -32 262 t-90 189q-59 77 -142.5 115.5t-187.5 38.5q-108 0 -188.5 -37.5t-142.5 -116.5q-59 -76 -90.5 -191t-31.5 -260q0 -293 123 -448.5t330 -155.5t329.5 155.5t122.5 448.5zM1055 1670h-159l-185 256l-184 -256h-155l228 379h227z" glyph-name="Ocircumflex" horiz-adv-x="1449" unicode="Ô"/><glyph d="M1204 1318q85 -98 132 -243t47 -331q0 -181 -46 -327t-133 -245q-91 -104 -212.5 -153.5t-267.5 -49.5q-151 0 -272 51t-208 152q-86 99 -132 244t-46 328q0 188 46.5 330t132.5 244q86 99 207.5 150.5t271.5 51.5q152 0 274 -53t206 -149zM1177 744q0 148 -32 262 t-90 189q-59 77 -142.5 115.5t-187.5 38.5q-108 0 -188.5 -37.5t-142.5 -116.5q-59 -76 -90.5 -191t-31.5 -260q0 -293 123 -448.5t330 -155.5t329.5 155.5t122.5 448.5zM851 1675h-149l-273 374h243z" glyph-name="Ograve" horiz-adv-x="1449" unicode="Ò"/><glyph d="M671 -31q-131 0 -229 34.5t-167 102.5q-78 78 -110 186.5t-32 267.5v929h198v-929q0 -103 13 -173.5t51 -126.5q40 -60 108.5 -91t167.5 -31q93 0 165 31t112 91q37 57 50.5 126t13.5 169v934h198v-929q0 -155 -31.5 -266t-110.5 -188q-71 -69 -165.5 -103t-231.5 -34z M995 2049l-273 -374h-149l179 374h243z" glyph-name="Uacute" horiz-adv-x="1343" unicode="Ú"/><glyph d="M671 -31q-131 0 -229 34.5t-167 102.5q-78 78 -110 186.5t-32 267.5v929h198v-929q0 -103 13 -173.5t51 -126.5q40 -60 108.5 -91t167.5 -31q93 0 165 31t112 91q37 57 50.5 126t13.5 169v934h198v-929q0 -155 -31.5 -266t-110.5 -188q-71 -69 -165.5 -103t-231.5 -34z M1006 1670h-159l-185 256l-184 -256h-155l228 379h227z" glyph-name="Ucircumflex" horiz-adv-x="1343" unicode="Û"/><glyph d="M671 -31q-131 0 -229 34.5t-167 102.5q-78 78 -110 186.5t-32 267.5v929h198v-929q0 -103 13 -173.5t51 -126.5q40 -60 108.5 -91t167.5 -31q93 0 165 31t112 91q37 57 50.5 126t13.5 169v934h198v-929q0 -155 -31.5 -266t-110.5 -188q-71 -69 -165.5 -103t-231.5 -34z M854 1675h-149l-273 374h243z" glyph-name="Ugrave" horiz-adv-x="1343" unicode="Ù"/><glyph d="M328 0h-188v1117h188v-1117z" glyph-name="dotlessi" horiz-adv-x="468" unicode="ı"/><glyph d="M328 0h-188v1117h188v-1117z" glyph-name="dotlessi" horiz-adv-x="468" unicode=""/><glyph d="M901 1297h-159l-185 256l-184 -256h-155l228 379h227z" glyph-name="circumflex" horiz-adv-x="1118" unicode="ˆ"/><glyph d="M960 1632q-10 -156 -74.5 -234t-171.5 -78q-52 0 -96 19t-86 59q-44 41 -76 62.5t-63 21.5q-49 0 -68.5 -45t-23.5 -121h-140q7 154 76 232.5t169 78.5q51 0 94 -19.5t86 -57.5q43 -39 77.5 -59.5t63.5 -20.5q47 0 68.5 45t24.5 117h140z" glyph-name="tilde" horiz-adv-x="1118" unicode="˜"/><glyph d="M936 1335h-754v154h754v-154z" glyph-name="macron" horiz-adv-x="1118" unicode="ˉ"/><glyph d="M889 1636q0 -86 -21 -156.5t-60 -118.5q-45 -53 -102 -79.5t-146 -26.5q-82 0 -143.5 27.5t-103.5 78.5q-41 50 -62 120t-21 155h162q0 -135 42 -194.5t126 -59.5q79 0 123 58.5t44 195.5h162z" glyph-name="breve" horiz-adv-x="1118" unicode="˘"/><glyph d="M666 1304h-214v195h214v-195z" glyph-name="dotaccent" horiz-adv-x="1118" unicode="˙"/><glyph d="M865 1421q0 -129 -88.5 -215t-217.5 -86q-128 0 -217 86.5t-89 214.5t89 214.5t217 86.5q129 0 217.5 -86t88.5 -215zM718 1420q0 74 -44.5 123.5t-114.5 49.5q-69 0 -114 -50t-45 -123t44.5 -122t114.5 -49t114.5 49.5t44.5 121.5z" glyph-name="ring" horiz-adv-x="1118" unicode="˚"/><glyph d="M767 20q1 -18 3.5 -45.5t2.5 -63.5q0 -162 -87 -248t-220 -86q-37 0 -87 6t-90 18v160h9q24 -11 63 -22.5t79 -11.5q94 0 134 39.5t40 126.5q0 26 -1 57t-3 70h157z" glyph-name="cedilla" horiz-adv-x="1118" unicode="¸"/><glyph d="M1051 1676l-258 -374h-139l169 374h228zM647 1676l-258 -374h-139l169 374h228z" glyph-name="hungarumlaut" horiz-adv-x="1118" unicode="˝"/><glyph d="M517 10q-6 -27 -10.5 -54.5t-4.5 -62.5q0 -81 33 -121t121 -40q33 0 65.5 9.5t51.5 20.5h9v-158q-36 -10 -76.5 -15.5t-74.5 -5.5q-135 0 -212 79.5t-77 220.5q0 35 6 64t15 63h154z" glyph-name="ogonek" horiz-adv-x="1118" unicode="˛"/><glyph d="M897 1676l-228 -379h-227l-228 379h159l185 -256l184 256h155z" glyph-name="caron" horiz-adv-x="1118" unicode="ˇ"/><glyph d="M1055 0h-863v543l-168 -138v161l168 135v788h198v-645l327 268v-161l-327 -264v-511h665v-176z" glyph-name="Lslash" horiz-adv-x="1060" unicode="Ł"/><glyph d="M540 855l-165 -130v-725h-188v589l-163 -134v159l163 130v812h188v-676l165 134v-159z" glyph-name="lslash" horiz-adv-x="562" unicode="ł"/><glyph d="M566 -27q-162 0 -275.5 33.5t-213.5 82.5v248h14q98 -92 222 -142.5t239 -50.5q164 0 248 68.5t84 180.5q0 89 -44 145t-140 83q-69 20 -126 33t-143 35q-77 20 -138 51t-108 81q-46 49 -71.5 115.5t-25.5 153.5q0 181 141 303.5t360 122.5q125 0 236.5 -25t206.5 -71 v-237h-15q-71 65 -182 113.5t-233 48.5q-138 0 -223 -64.5t-85 -169.5q0 -95 50 -151t145 -82q63 -17 154 -38.5t151 -39.5q154 -47 225 -142t71 -234q0 -87 -35.5 -172t-99.5 -144q-72 -65 -162.5 -100t-226.5 -35zM930 2049l-228 -379h-227l-228 379h159l185 -256l184 256 h155z" glyph-name="Scaron" horiz-adv-x="1141" unicode="Š"/><glyph d="M438 -27q-112 0 -209.5 30t-161.5 64v211h10q24 -19 56.5 -42t86.5 -48q48 -22 105.5 -39t119.5 -17q45 0 96 10.5t76 26.5q35 23 50.5 49t15.5 78q0 67 -36.5 101t-129.5 57q-36 9 -94 21t-107 26q-128 37 -186 114.5t-58 187.5q0 151 114 246t303 95q93 0 187 -23 t158 -58v-201h-10q-72 57 -160.5 90t-178.5 33q-93 0 -157 -39t-64 -118q0 -70 38 -104.5t122 -56.5q42 -11 93.5 -21.5t108.5 -24.5q124 -31 186.5 -103t62.5 -196q0 -72 -28.5 -136.5t-83.5 -110.5q-60 -50 -135.5 -76t-189.5 -26zM815 1676l-228 -379h-227l-228 379h159 l185 -256l184 256h155z" glyph-name="scaron" horiz-adv-x="914" unicode="š"/><glyph d="M1100 0h-1040v184l797 1129h-761v176h984v-179l-806 -1134h826v-176zM910 2049l-228 -379h-227l-228 379h159l185 -256l184 256h155z" glyph-name="Zcaron" horiz-adv-x="1145" unicode="Ž"/><glyph d="M870 0h-821v139l584 823h-560v155h786v-134l-587 -826h598v-157zM800 1676l-228 -379h-227l-228 379h159l185 -256l184 256h155z" glyph-name="zcaron" horiz-adv-x="910" unicode="ž"/><glyph d="M475 758h-167v798h167v-798zM475 -392h-167v798h167v-798z" glyph-name="brokenbar" horiz-adv-x="783" unicode="¦"/><glyph d="M1366 743q0 -204 -82.5 -368t-221.5 -256q-111 -74 -228.5 -96.5t-298.5 -22.5h-343v740h-168v143h168v606h339q210 0 329.5 -31.5t203.5 -86.5q144 -95 223 -252.5t79 -375.5zM1160 746q0 172 -57 293.5t-169 189.5q-79 48 -169 69t-224 21h-151v-436h327v-143h-327 v-570h151q132 0 231 21.5t181 77.5q103 70 155 186.5t52 290.5z" glyph-name="Eth" horiz-adv-x="1430" unicode="Ð"/><glyph d="M1053 637q0 -323 -136 -495.5t-370 -172.5q-214 0 -352 131t-138 384q0 231 137 360.5t324 129.5q100 0 174 -26.5t157 -79.5q-31 112 -97.5 220.5t-145.5 178.5l-262 -161l-66 97l238 143q-82 68 -156 106.5l-161 82.5v21h296l79.5 -59l82.5 -60l212 129l66 -97 l-190 -111q130 -130 219 -305.5t89 -415.5zM769 226q46 59 70.5 143.5t24.5 234.5q0 32 -1.5 59.5t-3.5 57.5q-73 46 -150 67t-157 21q-127 0 -213.5 -80t-86.5 -247q0 -180 80 -267t216 -87q64 0 121.5 22t99.5 76z" glyph-name="eth" horiz-adv-x="1118" unicode="ð"/><glyph d="M1193 1489l-503 -830v-659h-198v638l-503 851h220l384 -657l390 657h210zM891 2049l-273 -374h-149l179 374h243z" glyph-name="Yacute" horiz-adv-x="1180" unicode="Ý"/><glyph d="M1014 1117l-601 -1529h-201l200 466l-406 1063h203l305 -827l304 827h196zM811 1676l-273 -374h-149l179 374h243z" glyph-name="yacute" horiz-adv-x="1020" unicode="ý"/><glyph d="M1095 787q0 -92 -35 -176.5t-95 -141.5q-78 -75 -187.5 -111t-260.5 -36h-168v-322h-198v1489h198v-270h175q133 0 230 -22.5t164 -66.5q83 -53 130 -138t47 -205zM889 782q0 72 -26 125.5t-82 88.5q-48 30 -112 42.5t-154 12.5h-166v-563h137q119 0 195 20.5t123 65.5 q44 41 64.5 92t20.5 116z" glyph-name="Thorn" horiz-adv-x="1158" unicode="Þ"/><glyph d="M1073 588q0 -279 -133.5 -444.5t-337.5 -165.5q-83 0 -147 19t-131 59v-468h-188v1968h188v-556q70 63 155.5 105.5t186.5 42.5q192 0 299.5 -152t107.5 -408zM879 567q0 191 -61 296.5t-198 105.5q-80 0 -154.5 -35.5t-141.5 -91.5v-633q74 -36 126.5 -49t120.5 -13 q146 0 227 107t81 313z" glyph-name="thorn" horiz-adv-x="1132" unicode="þ"/><glyph d="M1308 572h-1126v160h1126v-160z" glyph-name="minus" horiz-adv-x="1490" unicode="−"/><glyph d="M1282 226l-111 -111l-426 430l-426 -430l-111 111l430 426l-430 426l111 111l426 -430l426 430l111 -111l-430 -426z" glyph-name="multiply" horiz-adv-x="1490" unicode="×"/><glyph d="M811 566h-555v122h204v568h-212v112q45 0 94 6t74 19q31 16 48.5 38t20.5 62h135v-805h191v-122z" glyph-name="onesuperior" horiz-adv-x="1010" unicode="¹"/><glyph d="M866 566h-681v152l147.5 113.5t114.5 97.5q106 102 139 159.5t33 138.5q0 69 -43 106.5t-119 37.5q-69 0 -139.5 -30t-111.5 -62h-15v179q63 27 139.5 44t150.5 17q156 0 239.5 -78.5t83.5 -201.5q0 -85 -39.5 -163.5t-147.5 -175.5q-52 -46 -121 -97.5l-123 -92.5h493 v-144z" glyph-name="twosuperior" horiz-adv-x="1010" unicode="²"/><glyph d="M837 828q0 -71 -30 -127.5t-78 -89.5q-53 -37 -114.5 -53t-140.5 -16q-82 0 -153.5 15t-136.5 43v175h17q37 -35 114 -64.5t156 -29.5q84 0 139 36.5t55 108.5t-43.5 107t-147.5 35h-140v139h125q87 0 134.5 38t47.5 104q0 60 -41 95.5t-128 35.5q-66 0 -142.5 -31 t-113.5 -66h-17v175q64 27 139 44t154 17q152 0 237 -70t85 -168q0 -87 -48.5 -143.5t-125.5 -82.5v-8q80 -16 138.5 -70.5t58.5 -148.5z" glyph-name="threesuperior" horiz-adv-x="1010" unicode="³"/><glyph d="M545 565h-165v681h-209v117q102 0 165 22t72 108h137v-928zM1410 1489l-780 -1489h-165l780 1489h165zM1946 0h-681v143l147.5 113.5t114.5 97.5q106 102 139 159.5t33 138.5q0 69 -43 106.5t-119 37.5q-69 0 -139.5 -30t-111.5 -62h-15v179q63 27 139.5 44t150.5 17 q156 0 239.5 -78.5t83.5 -201.5q0 -114 -56.5 -193.5t-130.5 -145.5q-56 -49 -122.5 -97.5l-119.5 -88.5h491v-139z" glyph-name="onehalf" horiz-adv-x="2048" unicode="½"/><glyph d="M545 565h-165v681h-209v117q102 0 165 22t72 108h137v-928zM1410 1489l-780 -1489h-165l780 1489h165zM1847 220h-163v-220h-150v220h-455v185l456 539h149v-591h163v-133zM1538 353v400l-343 -400h343z" glyph-name="onequarter" horiz-adv-x="2048" unicode="¼"/><glyph d="M793 826q0 -71 -30 -127.5t-78 -89.5q-53 -37 -114.5 -53t-140.5 -16q-82 0 -153.5 15t-136.5 43v175h17q37 -35 114 -64.5t156 -29.5q84 0 139 36.5t55 108.5q0 83 -50 112.5t-141 29.5h-140v139h125q87 0 134.5 38t47.5 104q0 60 -41 95.5t-128 35.5q-66 0 -142.5 -31 t-113.5 -66h-17v175q64 27 139 44t154 17q152 0 237 -70t85 -168q0 -87 -48.5 -143.5t-125.5 -82.5v-8q80 -16 138.5 -70.5t58.5 -148.5zM1500 1489l-780 -1489h-165l780 1489h165zM1903 220h-163v-220h-150v220h-455v185l456 539h149v-591h163v-133zM1594 353v400 l-343 -400h343z" glyph-name="threequarters" horiz-adv-x="2048" unicode="¾"/><glyph d="M1043 1313h-633v-420h604v-176h-604v-270h317v-139h-317v-308h-198v308h-178v139h178v1042h831v-176z" glyph-name="franc" horiz-adv-x="1118" unicode="₣"/><glyph d="M774 -29q-158 0 -289 48t-225 146q-94 99 -144 245t-50 336q0 180 50.5 322.5t144.5 243.5q91 98 224 151t291 53q75 0 144 -11t132 -30q50 -15 111.5 -41.5t99.5 -45.5v-239h-17q-37 33 -76.5 62.5t-111.5 63.5q-60 30 -138 50t-168 20q-215 0 -347.5 -162t-132.5 -431 q0 -150 35 -262t101 -190q64 -77 154.5 -117.5t203.5 -40.5q84 0 167 12t140 36v385h-344v174h540v-650q-38 -17 -101.5 -43t-118.5 -41q-73 -22 -132 -33t-143 -11zM1068 2009q0 -86 -21 -156.5t-60 -118.5q-45 -53 -102 -79.5t-146 -26.5q-82 0 -143.5 27.5t-103.5 78.5 q-41 50 -62 120t-21 155h162q0 -135 42 -194.5t126 -59.5q79 0 123 58.5t44 195.5h162z" glyph-name="Gbreve" horiz-adv-x="1367" unicode="Ğ"/><glyph d="M808 303v613q-70 34 -129.5 48.5t-118.5 14.5q-143 0 -225 -105t-82 -301q0 -186 62.5 -283t202.5 -97q73 0 150.5 29t139.5 81zM176 -179q19 -8 56 -21.5t84 -25.5q52 -13 96 -21t96 -8q87 0 147.5 23t94.5 64q32 41 45 95t13 123v98q-76 -66 -149 -97.5t-183 -31.5 q-191 0 -304 142t-113 408q0 139 39 246.5t105 182.5q63 72 149 111t178 39q87 0 150.5 -20.5t127.5 -58.5l11 48h177v-990q0 -284 -124 -417t-379 -133q-82 0 -167.5 13t-159.5 35v196h10zM894 1636q0 -86 -21 -156.5t-60 -118.5q-45 -53 -102 -79.5t-146 -26.5 q-82 0 -143.5 27.5t-103.5 78.5q-41 50 -62 120t-21 155h162q0 -135 42 -194.5t126 -59.5q79 0 123 58.5t44 195.5h162z" glyph-name="gbreve" horiz-adv-x="1132" unicode="ğ"/><glyph d="M671 0h-578v152h190v1185h-190v152h578v-152h-190v-1185h190v-152zM490 1677h-214v195h214v-195z" glyph-name="Idotaccent" horiz-adv-x="764" unicode="İ"/><glyph d="M566 -26q-162 0 -275.5 33t-213.5 82v248h14q98 -92 222 -142.5t239 -50.5q164 0 248 68.5t84 180.5q0 89 -44 145t-140 83q-69 20 -126 33t-143 35q-77 20 -138 51t-108 81q-46 49 -71.5 115.5t-25.5 153.5q0 181 141 303.5t360 122.5q125 0 236.5 -25t206.5 -71v-237 h-15q-71 65 -182 113.5t-233 48.5q-138 0 -223 -64.5t-85 -169.5q0 -95 50 -151t145 -82q63 -17 154 -38.5t151 -39.5q154 -47 225 -142t71 -234q0 -87 -35.5 -172t-99.5 -144q-39 -35 -79.5 -59t-93.5 -42q1 -16 3 -41.5t2 -54.5q0 -162 -88 -248t-221 -86q-37 0 -87 6 t-90 18v160h9q24 -11 63 -22.5t79 -11.5q94 0 138 39.5t44 126.5q0 18 -0.5 38.5t-1.5 45.5q-17 -1 -31.5 -2t-34.5 -1z" glyph-name="Scedilla" horiz-adv-x="1141" unicode="Ş"/><glyph d="M438 -26q-112 0 -209.5 29.5t-161.5 63.5v211h10q24 -19 56.5 -42t86.5 -48q48 -22 105.5 -39t119.5 -17q45 0 96 10.5t76 26.5q35 23 50.5 49t15.5 78q0 67 -36.5 101t-129.5 57q-36 9 -94 21t-107 26q-128 37 -186 114.5t-58 187.5q0 151 114 246t303 95q93 0 187 -23 t158 -58v-201h-10q-72 57 -160.5 90t-178.5 33q-93 0 -157 -39t-64 -118q0 -70 38 -104.5t122 -56.5q42 -11 93.5 -21.5t108.5 -24.5q124 -31 186.5 -103t62.5 -196q0 -72 -28.5 -136.5t-83.5 -110.5q-23 -19 -45 -33t-50 -26q1 -18 3.5 -44.5t2.5 -60.5q0 -162 -88 -248 t-221 -86q-37 0 -87 6t-90 18v160h9q24 -11 63 -22.5t79 -11.5q94 0 138 39.5t44 126.5q0 18 -0.5 39t-1.5 46q-21 -2 -39 -3t-42 -1z" glyph-name="scedilla" horiz-adv-x="914" unicode="ş"/><glyph d="M733 -27q-146 0 -268.5 49t-211.5 146t-138 242t-49 333q0 187 47.5 326t138.5 242q89 100 211 152.5t273 52.5q75 0 140.5 -11t121.5 -28q48 -15 98.5 -37.5t99.5 -49.5v-239h-16q-26 24 -67 58t-100 67q-57 31 -124 51t-155 20q-95 0 -180 -39t-149 -115 q-63 -76 -98 -191t-35 -259q0 -153 37 -263.5t101 -186.5q62 -74 146 -111.5t178 -37.5q86 0 159 21t130 53q55 31 95 63.5t63 55.5h15v-236l-92.5 -44t-105.5 -41q-65 -21 -120.5 -32t-144.5 -11zM971 2049l-273 -374h-149l179 374h243z" glyph-name="Cacute" horiz-adv-x="1230" unicode="Ć"/><glyph d="M580 -25q-115 0 -211 35.5t-165 107.5t-107 181.5t-38 257.5q0 147 39.5 254t105.5 180t164.5 112.5t211.5 39.5q92 0 177.5 -26t152.5 -60v-211h-11q-20 17 -51.5 39t-76.5 45q-39 20 -92 35t-102 15q-146 0 -234.5 -110.5t-88.5 -312.5q0 -198 85.5 -308.5 t237.5 -110.5q92 0 175 38t147 98h11v-211l-70 -31.5t-76 -27.5q-48 -14 -86 -21.5t-98 -7.5zM811 1676l-273 -374h-149l179 374h243z" glyph-name="cacute" horiz-adv-x="945" unicode="ć"/><glyph d="M733 -27q-146 0 -268.5 49t-211.5 146t-138 242t-49 333q0 187 47.5 326t138.5 242q89 100 211 152.5t273 52.5q75 0 140.5 -11t121.5 -28q48 -15 98.5 -37.5t99.5 -49.5v-239h-16q-26 24 -67 58t-100 67q-57 31 -124 51t-155 20q-95 0 -180 -39t-149 -115 q-63 -76 -98 -191t-35 -259q0 -153 37 -263.5t101 -186.5q62 -74 146 -111.5t178 -37.5q86 0 159 21t130 53q55 31 95 63.5t63 55.5h15v-236l-92.5 -44t-105.5 -41q-65 -21 -120.5 -32t-144.5 -11zM1047 2049l-228 -379h-227l-228 379h159l185 -256l184 256h155z" glyph-name="Ccaron" horiz-adv-x="1230" unicode="Č"/><glyph d="M580 -25q-115 0 -211 35.5t-165 107.5t-107 181.5t-38 257.5q0 147 39.5 254t105.5 180t164.5 112.5t211.5 39.5q92 0 177.5 -26t152.5 -60v-211h-11q-20 17 -51.5 39t-76.5 45q-39 20 -92 35t-102 15q-146 0 -234.5 -110.5t-88.5 -312.5q0 -198 85.5 -308.5 t237.5 -110.5q92 0 175 38t147 98h11v-211l-70 -31.5t-76 -27.5q-48 -14 -86 -21.5t-98 -7.5zM885 1676l-228 -379h-227l-228 379h159l185 -256l184 256h155z" glyph-name="ccaron" horiz-adv-x="945" unicode="č"/><glyph d="M996 0h-188v114q-44 -37 -76 -61t-75 -44q-40 -19 -83 -29.5t-100 -10.5q-91 0 -168.5 38t-131.5 111q-55 74 -85 182.5t-30 249.5q0 147 38 254.5t105 187.5q61 73 147.5 114.5t181.5 41.5q84 0 146 -18.5t131 -57.5v196h-301v134h301v154h188v-154h166v-134h-166v-1268 zM808 272v644q-70 34 -125.5 47t-120.5 13q-145 0 -227 -108.5t-82 -313.5q0 -197 63 -301.5t202 -104.5q74 0 149 33.5t141 90.5z" glyph-name="dmacron" horiz-adv-x="1174" unicode="đ"/><glyph d="M1134 1659h-1150v130h1150v-130z" glyph-name="overscore" horiz-adv-x="1118" unicode="¯"/><glyph d="M482 832h-239v285h239v-285z" glyph-name="middot" horiz-adv-x="724" unicode="·"/><glyph d="M-10 0l502 1489h244l502 -1489h-209l-135 416h-569l-135 -416h-200zM839 585l-230 702l-229 -702h459zM943 2009q0 -86 -21 -156.5t-60 -118.5q-45 -53 -102 -79.5t-146 -26.5q-82 0 -143.5 27.5t-103.5 78.5q-41 50 -62 120t-21 155h162q0 -135 42 -194.5t126 -59.5 q79 0 123 58.5t44 195.5h162z" glyph-name="Abreve" horiz-adv-x="1228" unicode="Ă"/><glyph d="M760 275v310q-67 -6 -169.5 -16.5t-165.5 -29.5q-75 -23 -124 -70.5t-49 -132.5q0 -96 54 -145t158 -49q89 0 161 38.5t135 94.5zM760 119l-61.5 -47.5t-74.5 -48.5q-50 -26 -96.5 -40t-130.5 -14q-69 0 -131 26t-109 73q-45 46 -72 113.5t-27 142.5q0 116 49 197.5 t155 129.5q94 43 222 59.5t276 24.5v36q0 66 -20 106.5t-56 62.5q-36 23 -88 30.5t-107 7.5q-65 0 -153 -19.5t-176 -56.5h-11v191q52 15 149 33t192 18q115 0 194 -18t142 -65q61 -46 91 -119t30 -178v-764h-187v119zM852 1636q0 -86 -21 -156.5t-60 -118.5 q-45 -53 -102 -79.5t-146 -26.5q-82 0 -143.5 27.5t-103.5 78.5q-41 50 -62 120t-21 155h162q0 -135 42 -194.5t126 -59.5q79 0 123 58.5t44 195.5h162z" glyph-name="abreve" horiz-adv-x="1075" unicode="ă"/><glyph d="M964 -117q0 58 14.5 109.5t25.5 85.5l-110 338h-569l-135 -416h-200l502 1489h244l502 -1489h-99l-10.5 -48.5t-4.5 -58.5q0 -81 33 -121t121 -40q33 0 65.5 9.5t51.5 20.5h9v-158q-36 -10 -76.5 -15.5t-74.5 -5.5q-124 0 -206.5 75t-82.5 225zM839 585l-230 702 l-229 -702h459z" glyph-name="Aogonek" horiz-adv-x="1228" unicode="Ą"/><glyph d="M760 275v310q-67 -6 -169.5 -16.5t-165.5 -29.5q-75 -23 -124 -70.5t-49 -132.5q0 -96 54 -145t158 -49q89 0 161 38.5t135 94.5zM760 119l-61.5 -47.5t-74.5 -48.5q-50 -26 -96.5 -40t-130.5 -14q-69 0 -131 26t-109 73q-45 46 -72 113.5t-27 142.5q0 116 49 197.5 t155 129.5q94 43 222 59.5t276 24.5v36q0 66 -20 106.5t-56 62.5q-36 23 -88 30.5t-107 7.5q-65 0 -153 -19.5t-176 -56.5h-11v191q52 15 149 33t192 18q115 0 194 -18t142 -65q61 -46 91 -119t30 -178v-764h-34q-6 -26 -9.5 -53t-3.5 -54q0 -81 33 -121t121 -40 q33 0 65.5 9.5t51.5 20.5h9v-158q-36 -10 -76.5 -15.5t-74.5 -5.5q-123 0 -206 74t-83 226q0 33 5.5 63t14.5 61v112z" glyph-name="aogonek" horiz-adv-x="1075" unicode="ą"/><glyph d="M1325 743q0 -204 -82.5 -368t-221.5 -256q-113 -71 -229.5 -95t-297.5 -24h-343v1489h339q210 0 329.5 -31.5t203.5 -86.5q144 -95 223 -252.5t79 -375.5zM1119 746q0 172 -57 293.5t-169 189.5q-79 48 -169 69t-224 21h-151v-1149h151q132 0 231 21t181 78 q103 70 155 186.5t52 290.5zM987 2049l-228 -379h-227l-228 379h159l185 -256l184 256h155z" glyph-name="Dcaron" horiz-adv-x="1389" unicode="Ď"/><glyph d="M996 0h-188v114q-44 -37 -76 -61t-75 -44q-40 -19 -83 -29.5t-100 -10.5q-91 0 -168.5 38t-131.5 111q-55 74 -85 182.5t-30 249.5q0 147 38 254.5t105 187.5q61 73 147.5 114.5t181.5 41.5q84 0 146 -18.5t131 -57.5v484h188v-1556zM808 272v644q-70 34 -125.5 47 t-120.5 13q-145 0 -227 -108.5t-82 -313.5q0 -197 63 -301.5t202 -104.5q74 0 149 33.5t141 90.5zM1473 1556l-240 -505h-127l142 505h225z" glyph-name="dcaron" horiz-adv-x="1407" unicode="ď"/><glyph d="M1366 743q0 -204 -82.5 -368t-221.5 -256q-111 -74 -228.5 -96.5t-298.5 -22.5h-343v740h-168v143h168v606h339q210 0 329.5 -31.5t203.5 -86.5q144 -95 223 -252.5t79 -375.5zM1160 746q0 172 -57 293.5t-169 189.5q-79 48 -169 69t-224 21h-151v-436h327v-143h-327 v-570h151q132 0 231 21.5t181 77.5q103 70 155 186.5t52 290.5z" glyph-name="Dslash" horiz-adv-x="1430" unicode="Đ"/><glyph d="M151 0v1489h931v-176h-733v-408h683v-176h-683v-553h733v-176h-228l-10.5 -48.5t-4.5 -58.5q0 -81 33 -121t121 -40q33 0 65.5 9.5t51.5 20.5h9v-158q-36 -10 -76.5 -15.5t-74.5 -5.5q-124 0 -206.5 75t-82.5 225q0 34 4.5 60.5t11.5 56.5h-544z" glyph-name="Eogonek" horiz-adv-x="1149" unicode="Ę"/><glyph d="M575 -24q-246 13 -381 162t-135 414q0 273 143 434.5t374 161.5q104 0 184 -30t140 -94t92 -156.5t32 -226.5v-102h-774q0 -195 98 -298t271 -103q62 0 121.5 14t107.5 36q51 23 86 44.5t58 40.5h11v-205l-82 -32.5t-88 -30.5q-24 -6 -51.5 -12t-48.5 -9q-4 -17 -7 -42.5 t-3 -48.5q0 -81 33 -121t121 -40q33 0 65.5 9.5t51.5 20.5h9v-158q-36 -10 -76.5 -15.5t-74.5 -5.5q-123 0 -206 74t-83 226q0 25 3.5 48.5t8.5 44.5zM841 683q-2 76 -18 131t-46 93q-33 42 -84.5 64t-127.5 22q-75 0 -127.5 -22.5t-95.5 -65.5q-42 -44 -64 -97.5 t-28 -124.5h591z" glyph-name="eogonek" horiz-adv-x="1078" unicode="ę"/><glyph d="M151 0v1489h931v-176h-733v-408h683v-176h-683v-553h733v-176h-931zM987 2049l-228 -379h-227l-228 379h159l185 -256l184 256h155z" glyph-name="Ecaron" horiz-adv-x="1149" unicode="Ě"/><glyph d="M621 -26q-267 0 -414.5 150.5t-147.5 427.5q0 273 143 434.5t374 161.5q104 0 184 -30t140 -94t92 -156.5t32 -226.5v-102h-774q0 -195 98 -298t271 -103q62 0 121.5 14t107.5 36q51 23 86 44.5t58 40.5h11v-205l-82 -32.5t-88 -30.5q-55 -15 -99.5 -23t-112.5 -8z M841 683q-2 76 -18 131t-46 93q-33 42 -84.5 64t-127.5 22q-75 0 -127.5 -22.5t-95.5 -65.5q-42 -44 -64 -97.5t-28 -124.5h591zM907 1676l-228 -379h-227l-228 379h159l185 -256l184 256h155z" glyph-name="ecaron" horiz-adv-x="1078" unicode="ě"/><glyph d="M1014 0h-863v1489h198v-1313h665v-176zM691 2049l-273 -374h-149l179 374h243z" glyph-name="Lacute" horiz-adv-x="1019" unicode="Ĺ"/><glyph d="M328 0h-188v1556h188v-1556zM536 2049l-273 -374h-149l179 374h243z" glyph-name="lacute" horiz-adv-x="468" unicode="ĺ"/><glyph d="M1014 0h-863v1489h198v-1313h665v-176zM951 1556l-240 -505h-127l142 505h225z" glyph-name="Lcaron" horiz-adv-x="1019" unicode="Ľ"/><glyph d="M328 0h-188v1556h188v-1556zM805 1556l-240 -505h-127l142 505h225z" glyph-name="lcaron" horiz-adv-x="739" unicode="ľ"/><glyph d="M1014 0h-863v1489h198v-1313h665v-176zM876 519h-233v267h233v-267z" glyph-name="Ldot" horiz-adv-x="1019" unicode="Ŀ"/><glyph d="M328 0h-188v1556h188v-1556zM806 520h-231v265h231v-265z" glyph-name="ldot" horiz-adv-x="912" unicode="ŀ"/><glyph d="M1216 0h-222l-658 1284v-1284h-185v1489h281l599 -1179v1179h185v-1489zM988 2049l-273 -374h-149l179 374h243z" glyph-name="Nacute" horiz-adv-x="1367" unicode="Ń"/><glyph d="M1014 0h-188v636q0 77 -7.5 143.5t-28.5 106.5q-23 42 -64 62.5t-112 20.5q-70 0 -144.5 -37.5t-145.5 -97.5v-834h-188v1117h188v-124q84 75 166 115t173 40q165 0 258 -108.5t93 -314.5v-725zM871 1676l-273 -374h-149l179 374h243z" glyph-name="nacute" horiz-adv-x="1142" unicode="ń"/><glyph d="M1216 0h-222l-658 1284v-1284h-185v1489h281l599 -1179v1179h185v-1489zM1042 2049l-228 -379h-227l-228 379h159l185 -256l184 256h155z" glyph-name="Ncaron" horiz-adv-x="1367" unicode="Ň"/><glyph d="M1014 0h-188v636q0 77 -7.5 143.5t-28.5 106.5q-23 42 -64 62.5t-112 20.5q-70 0 -144.5 -37.5t-145.5 -97.5v-834h-188v1117h188v-124q84 75 166 115t173 40q165 0 258 -108.5t93 -314.5v-725zM925 1676l-228 -379h-227l-228 379h159l185 -256l184 256h155z" glyph-name="ncaron" horiz-adv-x="1142" unicode="ň"/><glyph d="M1204 1318q85 -98 132 -243t47 -331q0 -181 -46 -327t-133 -245q-91 -104 -212.5 -153.5t-267.5 -49.5q-151 0 -272 51t-208 152q-86 99 -132 244t-46 328q0 188 46.5 330t132.5 244q86 99 207.5 150.5t271.5 51.5q152 0 274 -53t206 -149zM1177 744q0 148 -32 262 t-90 189q-59 77 -142.5 115.5t-187.5 38.5q-108 0 -188.5 -37.5t-142.5 -116.5q-59 -76 -90.5 -191t-31.5 -260q0 -293 123 -448.5t330 -155.5t329.5 155.5t122.5 448.5zM1201 2049l-258 -374h-139l169 374h228zM797 2049l-258 -374h-139l169 374h228z" glyph-name="Odblacute" horiz-adv-x="1449" unicode="Ő"/><glyph d="M1055 558q0 -282 -136 -435.5t-362 -153.5q-233 0 -366.5 158.5t-133.5 430.5q0 280 137.5 435t362.5 155q226 0 362 -154.5t136 -435.5zM861 558q0 217 -79 322.5t-225 105.5q-147 0 -226.5 -105.5t-79.5 -322.5q0 -210 79.5 -318.5t226.5 -108.5q145 0 224.5 106.5 t79.5 320.5zM1039 1676l-258 -374h-139l169 374h228zM635 1676l-258 -374h-139l169 374h228z" glyph-name="odblacute" horiz-adv-x="1112" unicode="ő"/><glyph d="M1304 0h-257l-472 592h-226v-592h-198v1489h384q128 0 214.5 -14t164.5 -65q78 -50 123.5 -129t45.5 -196q0 -164 -83 -274t-226 -163zM876 1070q0 65 -23 115.5t-71 82.5q-42 28 -98 39.5t-139 11.5h-196v-562h174q85 0 153 15t116 62q43 42 63.5 100t20.5 136z M891 2049l-273 -374h-149l179 374h243z" glyph-name="Racute" horiz-adv-x="1271" unicode="Ŕ"/><glyph d="M728 915h-10q-21 6 -44.5 7.5t-56.5 1.5q-76 0 -151 -33t-142 -98v-793h-188v1117h188v-166q103 91 179.5 128.5t148.5 37.5q29 0 43.5 -1.5t32.5 -4.5v-196zM695 1676l-273 -374h-149l179 374h243z" glyph-name="racute" horiz-adv-x="738" unicode="ŕ"/><glyph d="M1304 0h-257l-472 592h-226v-592h-198v1489h384q128 0 214.5 -14t164.5 -65q78 -50 123.5 -129t45.5 -196q0 -164 -83 -274t-226 -163zM876 1070q0 65 -23 115.5t-71 82.5q-42 28 -98 39.5t-139 11.5h-196v-562h174q85 0 153 15t116 62q43 42 63.5 100t20.5 136z M947 2049l-228 -379h-227l-228 379h159l185 -256l184 256h155z" glyph-name="Rcaron" horiz-adv-x="1271" unicode="Ř"/><glyph d="M728 915h-10q-21 6 -44.5 7.5t-56.5 1.5q-76 0 -151 -33t-142 -98v-793h-188v1117h188v-166q103 91 179.5 128.5t148.5 37.5q29 0 43.5 -1.5t32.5 -4.5v-196zM737 1676l-228 -379h-227l-228 379h159l185 -256l184 256h155z" glyph-name="rcaron" horiz-adv-x="738" unicode="ř"/><glyph d="M566 -27q-162 0 -275.5 33.5t-213.5 82.5v248h14q98 -92 222 -142.5t239 -50.5q164 0 248 68.5t84 180.5q0 89 -44 145t-140 83q-69 20 -126 33t-143 35q-77 20 -138 51t-108 81q-46 49 -71.5 115.5t-25.5 153.5q0 181 141 303.5t360 122.5q125 0 236.5 -25t206.5 -71 v-237h-15q-71 65 -182 113.5t-233 48.5q-138 0 -223 -64.5t-85 -169.5q0 -95 50 -151t145 -82q63 -17 154 -38.5t151 -39.5q154 -47 225 -142t71 -234q0 -87 -35.5 -172t-99.5 -144q-72 -65 -162.5 -100t-226.5 -35zM871 2049l-273 -374h-149l179 374h243z" glyph-name="Sacute" horiz-adv-x="1141" unicode="Ś"/><glyph d="M438 -27q-112 0 -209.5 30t-161.5 64v211h10q24 -19 56.5 -42t86.5 -48q48 -22 105.5 -39t119.5 -17q45 0 96 10.5t76 26.5q35 23 50.5 49t15.5 78q0 67 -36.5 101t-129.5 57q-36 9 -94 21t-107 26q-128 37 -186 114.5t-58 187.5q0 151 114 246t303 95q93 0 187 -23 t158 -58v-201h-10q-72 57 -160.5 90t-178.5 33q-93 0 -157 -39t-64 -118q0 -70 38 -104.5t122 -56.5q42 -11 93.5 -21.5t108.5 -24.5q124 -31 186.5 -103t62.5 -196q0 -72 -28.5 -136.5t-83.5 -110.5q-60 -50 -135.5 -76t-189.5 -26zM739 1676l-273 -374h-149l179 374h243z" glyph-name="sacute" horiz-adv-x="914" unicode="ś"/><glyph d="M499 0v1313h-500v176h1198v-176h-500v-1293h125q1 -18 3.5 -45.5t2.5 -63.5q0 -162 -87 -248t-220 -86q-37 0 -87 6t-90 18v160h9q24 -11 63 -22.5t79 -11.5q94 0 135 39.5t41 126.5q0 21 -0.5 46.5t-2.5 60.5h-169z" glyph-name="Tcedilla" horiz-adv-x="1196" unicode="Ţ"/><glyph d="M466 -21q-151 3 -234.5 89.5t-83.5 273.5v619h-127v156h127v321h188v-321h346v-156h-346v-531q0 -85 3 -131t23 -86q17 -35 55 -52.5t103 -17.5q46 0 89 13.5t62 22.5h11v-169l-30.5 -8t-38.5 -8l2.5 -35t1.5 -48q0 -162 -87 -248t-220 -86q-37 0 -87 6t-90 18v160h9 q24 -11 63 -22.5t79 -11.5q94 0 139 39.5t45 126.5q0 18 -0.5 39.5t-1.5 46.5z" glyph-name="tcedilla" horiz-adv-x="685" unicode="ţ"/><glyph d="M499 0v1313h-500v176h1198v-176h-500v-1313h-198zM941 2049l-228 -379h-227l-228 379h159l185 -256l184 256h155z" glyph-name="Tcaron" horiz-adv-x="1196" unicode="Ť"/><glyph d="M474 -22q-154 0 -240 87.5t-86 276.5v619h-127v156h127v321h188v-321h292v-156h-292v-531q0 -85 3 -131t23 -86q17 -35 55 -52.5t103 -17.5q46 0 89 13.5t62 22.5h11v-169q-53 -15 -107.5 -23.5t-100.5 -8.5zM1025 1556l-240 -505h-127l142 505h225z" glyph-name="tcaron" horiz-adv-x="959" unicode="ť"/><glyph d="M671 -31q-131 0 -229 34.5t-167 102.5q-78 78 -110 186.5t-32 267.5v929h198v-929q0 -103 13 -173.5t51 -126.5q40 -60 108.5 -91t167.5 -31q93 0 165 31t112 91q37 57 50.5 126t13.5 169v934h198v-929q0 -155 -31.5 -266t-110.5 -188q-71 -69 -165.5 -103t-231.5 -34z M978 1771q0 -129 -88.5 -215t-217.5 -86q-128 0 -217 86.5t-89 214.5t89 214.5t217 86.5q129 0 217.5 -86t88.5 -215zM831 1770q0 74 -44.5 123.5t-114.5 49.5q-69 0 -114 -50t-45 -123t44.5 -122t114.5 -49t114.5 49.5t44.5 121.5z" glyph-name="Uring" horiz-adv-x="1343" unicode="Ů"/><glyph d="M1006 0h-188v124q-87 -76 -165 -115.5t-174 -39.5q-73 0 -137.5 24t-112.5 76t-74.5 131t-26.5 192v725h188v-636q0 -89 6.5 -147.5t29.5 -102.5q23 -43 62.5 -63t113.5 -20q69 0 147 39t143 96v834h188v-1117zM878 1421q0 -129 -88.5 -215t-217.5 -86q-128 0 -217 86.5 t-89 214.5t89 214.5t217 86.5q129 0 217.5 -86t88.5 -215zM731 1420q0 74 -44.5 123.5t-114.5 49.5q-69 0 -114 -50t-45 -123t44.5 -122t114.5 -49t114.5 49.5t44.5 121.5z" glyph-name="uring" horiz-adv-x="1142" unicode="ů"/><glyph d="M671 -31q-131 0 -229 34.5t-167 102.5q-78 78 -110 186.5t-32 267.5v929h198v-929q0 -103 13 -173.5t51 -126.5q40 -60 108.5 -91t167.5 -31q93 0 165 31t112 91q37 57 50.5 126t13.5 169v934h198v-929q0 -155 -31.5 -266t-110.5 -188q-71 -69 -165.5 -103t-231.5 -34z M1163 2049l-258 -374h-139l169 374h228zM759 2049l-258 -374h-139l169 374h228z" glyph-name="Udblacute" horiz-adv-x="1343" unicode="Ű"/><glyph d="M1006 0h-188v124q-87 -76 -165 -115.5t-174 -39.5q-73 0 -137.5 24t-112.5 76t-74.5 131t-26.5 192v725h188v-636q0 -89 6.5 -147.5t29.5 -102.5q23 -43 62.5 -63t113.5 -20q69 0 147 39t143 96v834h188v-1117zM1051 1676l-258 -374h-139l169 374h228zM647 1676 l-258 -374h-139l169 374h228z" glyph-name="udblacute" horiz-adv-x="1142" unicode="ű"/><glyph d="M1100 0h-1040v184l797 1129h-761v176h984v-179l-806 -1134h826v-176zM871 2049l-273 -374h-149l179 374h243z" glyph-name="Zacute" horiz-adv-x="1145" unicode="Ź"/><glyph d="M870 0h-821v139l584 823h-560v155h786v-134l-587 -826h598v-157zM735 1676l-273 -374h-149l179 374h243z" glyph-name="zacute" horiz-adv-x="910" unicode="ź"/><glyph d="M1100 0h-1040v184l797 1129h-761v176h984v-179l-806 -1134h826v-176zM686 1677h-214v195h214v-195z" glyph-name="Zdot" horiz-adv-x="1145" unicode="Ż"/><glyph d="M870 0h-821v139l584 823h-560v155h786v-134l-587 -826h598v-157zM556 1304h-214v195h214v-195z" glyph-name="zdot" horiz-adv-x="910" unicode="ż"/><glyph d="M1034 1313h-685v-1313h-198v1489h883v-176z" glyph-name="Gamma" horiz-adv-x="1039" unicode="Γ"/><glyph d="M1204 1318q85 -98 132 -243t47 -331q0 -181 -46 -327t-133 -245q-91 -104 -212.5 -153.5t-267.5 -49.5q-151 0 -272 51t-208 152q-86 99 -132 244t-46 328q0 188 46.5 330t132.5 244q86 99 207.5 150.5t271.5 51.5q152 0 274 -53t206 -149zM1177 744q0 148 -32 262 t-90 189q-59 77 -142.5 115.5t-187.5 38.5q-108 0 -188.5 -37.5t-142.5 -116.5q-59 -76 -90.5 -191t-31.5 -260q0 -293 123 -448.5t330 -155.5t329.5 155.5t122.5 448.5zM1018 713h-587v179h587v-179z" glyph-name="Theta" horiz-adv-x="1449" unicode="Θ"/><glyph d="M668 1190q-95 -1 -164 -28t-121 -80q-55 -56 -83 -139t-28 -180q0 -118 29 -204.5t90 -145.5q46 -44 116.5 -73t160.5 -30v880zM865 1343q141 -3 258 -49.5t194 -125.5q72 -74 111 -177t39 -236q0 -139 -42 -245.5t-117 -179.5q-81 -80 -199 -123.5t-244 -46.5v-172h-197 v172q-125 4 -243 45t-201 123q-75 73 -116.5 181t-41.5 246q0 130 40 233.5t112 178.5q77 80 193 126t257 50v158h197v-158zM865 310q90 2 160.5 29.5t116.5 73.5q61 60 90 146t29 204q0 99 -28 180.5t-83 138.5q-52 54 -121 80t-164 28v-880z" glyph-name="Phi" horiz-adv-x="1533" unicode="Φ"/><glyph d="M1000 0h-188v114q-80 -74 -159.5 -109.5t-175.5 -35.5q-192 0 -305 154.5t-113 426.5q0 138 37.5 249t107.5 193q61 73 148 114.5t182 41.5q84 0 146.5 -19.5t131.5 -58.5h4v47h184v-1117zM812 272v644q-70 34 -126 47t-121 13q-155 0 -233.5 -116.5t-78.5 -305.5 q0 -197 64.5 -301.5t203.5 -104.5q74 0 149.5 33.5t141.5 90.5z" glyph-name="alpha" horiz-adv-x="1136" unicode="α"/><glyph d="M1055 550q0 -278 -135.5 -429.5t-362.5 -151.5q-232 0 -366 151t-134 414q0 127 36 228t101 174q63 71 149 112.5t178 58.5q-93 80 -174.5 143.5l-166.5 126.5v179h776v-158h-531v-10l166.5 -124t204.5 -170q150 -140 204.5 -262.5t54.5 -281.5zM861 550q0 142 -54 256 t-159 193q-65 -8 -132.5 -32t-128.5 -77q-61 -52 -98.5 -139t-37.5 -211q0 -201 79.5 -305t226.5 -104q145 0 224.5 105t79.5 314z" glyph-name="delta" horiz-adv-x="1112" unicode="δ"/><glyph d="M904 64q-102 -48 -195 -69t-208 -21q-74 0 -152.5 16.5t-142.5 55.5q-65 39 -105.5 103t-40.5 157q0 94 53.5 167t168.5 111v7q-85 23 -135.5 90t-50.5 158q0 87 42.5 146t105.5 94q61 34 138.5 49.5t147.5 15.5q92 0 169 -16.5t162 -44.5v-205h-12q-61 51 -151 78 t-182 27q-42 0 -77 -5.5t-74 -25.5q-32 -16 -54.5 -48t-22.5 -78q0 -61 25.5 -95t69.5 -49q40 -14 90 -15.5t96 -1.5h89v-166h-132q-56 0 -102.5 -4t-87.5 -22q-38 -17 -61 -54t-23 -96q0 -56 25 -92t60 -56q35 -19 82 -29t98 -10q98 0 202.5 36t172.5 100h12v-208z" glyph-name="epsilon" horiz-adv-x="932" unicode="ε"/><glyph d="M1194 952h-263q56 -70 90 -168.5t34 -225.5q0 -282 -136 -435.5t-362 -153.5q-233 0 -366.5 158.5t-133.5 430.5q0 280 137.5 435t362.5 155q48 0 97.5 -9t91.5 -22h448v-165zM861 558q0 217 -79 322.5t-225 105.5t-226 -107.5t-80 -320.5q0 -210 79.5 -318.5 t226.5 -108.5q145 0 224.5 106.5t79.5 320.5z" glyph-name="sigma" horiz-adv-x="1191" unicode="σ"/><glyph d="M952 952h-380v-952h-188v952h-380v165h948v-165z" glyph-name="tau" horiz-adv-x="956" unicode="τ"/><glyph d="M1389 576q0 -253 -158.5 -414t-413.5 -176v-398h-187v398q-117 6 -221 44t-184 112q-80 73 -124 175t-44 229q0 165 57 299.5t178 271.5h227v-17q-142 -115 -205 -246.5t-63 -285.5q0 -190 102 -304.5t276 -120.5v1000q33 2 68.5 2.5t74.5 0.5q289 0 453 -150t164 -420z M1196 586q0 184 -103 293t-276 109v-845q188 10 283.5 128t95.5 315z" glyph-name="phi" horiz-adv-x="1446" unicode="φ"/><glyph d="M1134 -212h-1150v130h1150v-130zM1134 -423h-1150v130h1150v-130z" glyph-name="underscoredbl" horiz-adv-x="1118" unicode="‗"/><glyph d="M452 1489l-28 -1079h-166l-30 1079h224zM442 0h-204v211h204v-211zM916 1489l-28 -1079h-166l-30 1079h224zM906 0h-204v211h204v-211z" glyph-name="exclamdbl" horiz-adv-x="1144" unicode="‼"/><glyph d="M890 566h-172v522q0 71 -4 122t-23 88q-18 36 -54 53t-96 17q-63 0 -123.5 -32.5t-121.5 -81.5v-688h-171v922h171v-100q73 63 141 97t149 34q145 0 224.5 -90.5t79.5 -265.5v-597z" glyph-name="nsuperior" horiz-adv-x="1010" unicode="ⁿ"/><glyph d="M1847 274q0 -57 -21.5 -112t-63.5 -95q-46 -43 -106 -66.5t-154 -23.5q-102 0 -176.5 24.5t-123.5 52.5v187h14q62 -54 135 -86.5t143 -32.5q81 0 126.5 30t45.5 106q0 50 -27.5 79t-102.5 49q-28 8 -61.5 18.5l-72.5 23.5q-101 33 -145 98.5t-44 158.5q0 25 4.5 44.5 t9.5 37.5h-196v-767h-177v843q-62 -82 -157.5 -129.5t-245.5 -47.5h-96v-666h-188v1489h291q111 0 192 -21t136 -62q62 -44 101 -112.5t45 -166.5h99v-207h303q35 24 89.5 39.5t111.5 15.5q70 0 144.5 -18t121.5 -45v-180h-15q-58 50 -116.5 74.5t-120.5 24.5 q-70 0 -113.5 -36t-43.5 -94q0 -56 29.5 -83t88.5 -45l58.5 -18.5l75.5 -23.5q96 -29 149.5 -92t53.5 -165zM739 1088q0 62 -21 109t-63 76q-38 26 -91.5 36t-121.5 10h-87v-486h63q89 0 152 15.5t102 56.5q36 38 51.5 81t15.5 102z" glyph-name="peseta" horiz-adv-x="1954" unicode="₧"/><glyph d="M661 0h-568v152h190v1185h-190v152h578v-152h-190v-1185h180v-152zM1356 387q0 -196 -118.5 -302t-319.5 -106q-26 0 -68 2t-85 8v177h11q33 -8 61 -12.5t54 -4.5q92 0 145.5 20.5t80.5 60.5t34 98t7 134v869h-274v158h472v-1102z" glyph-name="IJ" horiz-adv-x="1497" unicode="Ĳ"/><glyph d="M920 -32q0 -191 -102.5 -291t-282.5 -100q-31 0 -74.5 3t-81.5 9v168h11q22 -5 53.5 -9.5t55.5 -4.5q75 0 123.5 18.5t72.5 58.5q22 36 29.5 91t7.5 134v916h-212v156h400v-1149zM328 0h-188v1117h188v-1117zM341 1304h-214v195h214v-195zM921 1304h-214v195h214v-195z" glyph-name="ij" horiz-adv-x="1056" unicode="ĳ"/><glyph d="M1290 0h-188v636q0 77 -7 143.5t-29 106.5q-23 42 -64 62.5t-112 20.5q-70 0 -144.5 -37.5t-145.5 -97.5v-834h-188v1117h188v-124q84 75 166 115t173 40q165 0 258 -108.5t93 -314.5v-725zM432 1556l-261 -559h-138l157 559h242z" glyph-name="napostrophe" horiz-adv-x="1418" unicode="ŉ"/><glyph d="M571 1489l-298 -619h-136l194 619h240z" glyph-name="minute" horiz-adv-x="602" unicode="′"/><glyph d="M567 1489l-298 -619h-132l194 619h236zM961 1489l-298 -619h-132l194 619h236z" glyph-name="second" horiz-adv-x="972" unicode="″"/><glyph d="M762 702l-49 -23.5t-63 -22.5q-36 -11 -65.5 -16.5t-75.5 -5.5q-88 0 -164 27t-129 81q-55 56 -84.5 137.5t-29.5 194.5q0 107 29.5 188.5t84.5 139.5q53 57 129.5 86t163.5 29q66 0 127.5 -16.5t125.5 -49.5v-171h-14l-36.5 28.5t-53.5 34.5q-29 16 -63.5 27t-76.5 11 q-109 0 -172 -75.5t-63 -231.5q0 -78 17.5 -137t48.5 -96q30 -35 72.5 -53t96.5 -18q42 0 80.5 11.5t63.5 27.5q28 16 50.5 33.5t35.5 28.5h14v-169zM1473 1489l-780 -1489h-165l780 1489h165zM1903 414q0 -213 -101.5 -328t-266.5 -115q-170 0 -269 119.5t-99 323.5 q0 211 102.5 325.5t265.5 114.5q166 0 267 -114.5t101 -325.5zM1725 412q0 155 -49.5 232t-140.5 77q-88 0 -139 -74.5t-51 -234.5q0 -154 49.5 -231t140.5 -77q90 0 140 77.5t50 230.5z" glyph-name="afii61248" horiz-adv-x="2000" unicode="℅"/><glyph d="M15 422l177 235v455q0 226 61.5 302.5t172.5 76.5q96 0 158 -65t62 -174q0 -92 -60 -224.5t-225 -362.5v-415q0 -89 14.5 -110.5t41.5 -21.5q26 0 60 16.5t139 90.5v-162q-55 -44 -111.5 -65.5t-113.5 -21.5q-92 0 -145.5 57t-53.5 184v225l-79 -98zM361 899 q98 169 121.5 233t23.5 119q0 30 -6.5 54t-19.5 41q-10 12 -22.5 18.5t-27.5 6.5t-27.5 -6t-18.5 -20q-11 -21 -17 -76t-6 -143v-227z" glyph-name="afii61289" horiz-adv-x="662" unicode="ℓ"/><glyph d="M146 944h944v-944h-944v944zM222 868v-792h792v792h-792z" glyph-name="H22073" horiz-adv-x="1237" unicode="□"/><glyph d="M594 908v-463h-463v463h463z" glyph-name="H18543" horiz-adv-x="726" unicode="▪"/><glyph d="M594 908v-463h-463v463h463zM518 832h-311v-311h311v311z" glyph-name="H18551" horiz-adv-x="726" unicode="▫"/><glyph d="M177 576q0 183 129 312t312 129q182 0 311 -129t129 -312q0 -182 -129 -311t-311 -129q-183 0 -312 129t-129 311z" glyph-name="H18533" horiz-adv-x="1237" unicode="●"/><glyph d="M363 928q104 0 177.5 -73.5t73.5 -177.5t-73.5 -177.5t-177.5 -73.5t-177.5 73.5t-73.5 177.5t73 177.5t178 73.5zM363 852q-73 0 -124 -51.5t-51 -123.5q0 -73 51.5 -124t123.5 -51t123.5 51t51.5 124q0 72 -51 123.5t-124 51.5z" glyph-name="openbullet" horiz-adv-x="726" unicode="◦"/><glyph d="M-10 0l502 1489h244l502 -1489h-209l-135 416h-569l-135 -416h-200zM839 585l-230 702l-229 -702h459zM991 1698h-754v154h754v-154z" glyph-name="Amacron" horiz-adv-x="1228" unicode="Ā"/><glyph d="M760 275v310q-67 -6 -169.5 -16.5t-165.5 -29.5q-75 -23 -124 -70.5t-49 -132.5q0 -96 54 -145t158 -49q89 0 161 38.5t135 94.5zM760 119l-61.5 -47.5t-74.5 -48.5q-50 -26 -96.5 -40t-130.5 -14q-69 0 -131 26t-109 73q-45 46 -72 113.5t-27 142.5q0 116 49 197.5 t155 129.5q94 43 222 59.5t276 24.5v36q0 66 -20 106.5t-56 62.5q-36 23 -88 30.5t-107 7.5q-65 0 -153 -19.5t-176 -56.5h-11v191q52 15 149 33t192 18q115 0 194 -18t142 -65q61 -46 91 -119t30 -178v-764h-187v119zM906 1335h-754v154h754v-154z" glyph-name="amacron" horiz-adv-x="1075" unicode="ā"/><glyph d="M733 -27q-146 0 -268.5 49t-211.5 146t-138 242t-49 333q0 187 47.5 326t138.5 242q89 100 211 152.5t273 52.5q75 0 140.5 -11t121.5 -28q48 -15 98.5 -37.5t99.5 -49.5v-239h-16q-26 24 -67 58t-100 67q-57 31 -124 51t-155 20q-95 0 -180 -39t-149 -115 q-63 -76 -98 -191t-35 -259q0 -153 37 -263.5t101 -186.5q62 -74 146 -111.5t178 -37.5q86 0 159 21t130 53q55 31 95 63.5t63 55.5h15v-236l-92.5 -44t-105.5 -41q-65 -21 -120.5 -32t-144.5 -11zM1052 1670h-159l-185 256l-184 -256h-155l228 379h227z" glyph-name="Ccircumflex" horiz-adv-x="1230" unicode="Ĉ"/><glyph d="M580 -25q-115 0 -211 35.5t-165 107.5t-107 181.5t-38 257.5q0 147 39.5 254t105.5 180t164.5 112.5t211.5 39.5q92 0 177.5 -26t152.5 -60v-211h-11q-20 17 -51.5 39t-76.5 45q-39 20 -92 35t-102 15q-146 0 -234.5 -110.5t-88.5 -312.5q0 -198 85.5 -308.5 t237.5 -110.5q92 0 175 38t147 98h11v-211l-70 -31.5t-76 -27.5q-48 -14 -86 -21.5t-98 -7.5zM891 1297h-159l-185 256l-184 -256h-155l228 379h227z" glyph-name="ccircumflex" horiz-adv-x="945" unicode="ĉ"/><glyph d="M733 -27q-146 0 -268.5 49t-211.5 146t-138 242t-49 333q0 187 47.5 326t138.5 242q89 100 211 152.5t273 52.5q75 0 140.5 -11t121.5 -28q48 -15 98.5 -37.5t99.5 -49.5v-239h-16q-26 24 -67 58t-100 67q-57 31 -124 51t-155 20q-95 0 -180 -39t-149 -115 q-63 -76 -98 -191t-35 -259q0 -153 37 -263.5t101 -186.5q62 -74 146 -111.5t178 -37.5q86 0 159 21t130 53q55 31 95 63.5t63 55.5h15v-236l-92.5 -44t-105.5 -41q-65 -21 -120.5 -32t-144.5 -11zM810 1677h-214v195h214v-195z" glyph-name="Cdot" horiz-adv-x="1230" unicode="Ċ"/><glyph d="M580 -25q-115 0 -211 35.5t-165 107.5t-107 181.5t-38 257.5q0 147 39.5 254t105.5 180t164.5 112.5t211.5 39.5q92 0 177.5 -26t152.5 -60v-211h-11q-20 17 -51.5 39t-76.5 45q-39 20 -92 35t-102 15q-146 0 -234.5 -110.5t-88.5 -312.5q0 -198 85.5 -308.5 t237.5 -110.5q92 0 175 38t147 98h11v-211l-70 -31.5t-76 -27.5q-48 -14 -86 -21.5t-98 -7.5zM654 1304h-214v195h214v-195z" glyph-name="cdot" horiz-adv-x="945" unicode="ċ"/><glyph d="M151 0v1489h931v-176h-733v-408h683v-176h-683v-553h733v-176h-931zM992 1698h-754v154h754v-154z" glyph-name="Emacron" horiz-adv-x="1149" unicode="Ē"/><glyph d="M621 -26q-267 0 -414.5 150.5t-147.5 427.5q0 273 143 434.5t374 161.5q104 0 184 -30t140 -94t92 -156.5t32 -226.5v-102h-774q0 -195 98 -298t271 -103q62 0 121.5 14t107.5 36q51 23 86 44.5t58 40.5h11v-205l-82 -32.5t-88 -30.5q-55 -15 -99.5 -23t-112.5 -8z M841 683q-2 76 -18 131t-46 93q-33 42 -84.5 64t-127.5 22q-75 0 -127.5 -22.5t-95.5 -65.5q-42 -44 -64 -97.5t-28 -124.5h591zM954 1335h-754v154h754v-154z" glyph-name="emacron" horiz-adv-x="1078" unicode="ē"/><glyph d="M151 0v1489h931v-176h-733v-408h683v-176h-683v-553h733v-176h-931zM945 2009q0 -86 -21 -156.5t-60 -118.5q-45 -53 -102 -79.5t-146 -26.5q-82 0 -143.5 27.5t-103.5 78.5q-41 50 -62 120t-21 155h162q0 -135 42 -194.5t126 -59.5q79 0 123 58.5t44 195.5h162z" glyph-name="Ebreve" horiz-adv-x="1149" unicode="Ĕ"/><glyph d="M621 -26q-267 0 -414.5 150.5t-147.5 427.5q0 273 143 434.5t374 161.5q104 0 184 -30t140 -94t92 -156.5t32 -226.5v-102h-774q0 -195 98 -298t271 -103q62 0 121.5 14t107.5 36q51 23 86 44.5t58 40.5h11v-205l-82 -32.5t-88 -30.5q-55 -15 -99.5 -23t-112.5 -8z M841 683q-2 76 -18 131t-46 93q-33 42 -84.5 64t-127.5 22q-75 0 -127.5 -22.5t-95.5 -65.5q-42 -44 -64 -97.5t-28 -124.5h591zM902 1636q0 -86 -21 -156.5t-60 -118.5q-45 -53 -102 -79.5t-146 -26.5q-82 0 -143.5 27.5t-103.5 78.5q-41 50 -62 120t-21 155h162 q0 -135 42 -194.5t126 -59.5q79 0 123 58.5t44 195.5h162z" glyph-name="ebreve" horiz-adv-x="1078" unicode="ĕ"/><glyph d="M151 0v1489h931v-176h-733v-408h683v-176h-683v-553h733v-176h-931zM756 1677h-214v195h214v-195z" glyph-name="Edot" horiz-adv-x="1149" unicode="Ė"/><glyph d="M621 -26q-267 0 -414.5 150.5t-147.5 427.5q0 273 143 434.5t374 161.5q104 0 184 -30t140 -94t92 -156.5t32 -226.5v-102h-774q0 -195 98 -298t271 -103q62 0 121.5 14t107.5 36q51 23 86 44.5t58 40.5h11v-205l-82 -32.5t-88 -30.5q-55 -15 -99.5 -23t-112.5 -8z M841 683q-2 76 -18 131t-46 93q-33 42 -84.5 64t-127.5 22q-75 0 -127.5 -22.5t-95.5 -65.5q-42 -44 -64 -97.5t-28 -124.5h591zM686 1304h-214v195h214v-195z" glyph-name="edot" horiz-adv-x="1078" unicode="ė"/><glyph d="M774 -29q-158 0 -289 48t-225 146q-94 99 -144 245t-50 336q0 180 50.5 322.5t144.5 243.5q91 98 224 151t291 53q75 0 144 -11t132 -30q50 -15 111.5 -41.5t99.5 -45.5v-239h-17q-37 33 -76.5 62.5t-111.5 63.5q-60 30 -138 50t-168 20q-215 0 -347.5 -162t-132.5 -431 q0 -150 35 -262t101 -190q64 -77 154.5 -117.5t203.5 -40.5q84 0 167 12t140 36v385h-344v174h540v-650q-38 -17 -101.5 -43t-118.5 -41q-73 -22 -132 -33t-143 -11zM1081 1670h-159l-185 256l-184 -256h-155l228 379h227z" glyph-name="Gcircumflex" horiz-adv-x="1367" unicode="Ĝ"/><glyph d="M808 303v613q-70 34 -129.5 48.5t-118.5 14.5q-143 0 -225 -105t-82 -301q0 -186 62.5 -283t202.5 -97q73 0 150.5 29t139.5 81zM176 -179q19 -8 56 -21.5t84 -25.5q52 -13 96 -21t96 -8q87 0 147.5 23t94.5 64q32 41 45 95t13 123v98q-76 -66 -149 -97.5t-183 -31.5 q-191 0 -304 142t-113 408q0 139 39 246.5t105 182.5q63 72 149 111t178 39q87 0 150.5 -20.5t127.5 -58.5l11 48h177v-990q0 -284 -124 -417t-379 -133q-82 0 -167.5 13t-159.5 35v196h10zM911 1297h-159l-185 256l-184 -256h-155l228 379h227z" glyph-name="gcircumflex" horiz-adv-x="1132" unicode="ĝ"/><glyph d="M774 -29q-158 0 -289 48t-225 146q-94 99 -144 245t-50 336q0 180 50.5 322.5t144.5 243.5q91 98 224 151t291 53q75 0 144 -11t132 -30q50 -15 111.5 -41.5t99.5 -45.5v-239h-17q-37 33 -76.5 62.5t-111.5 63.5q-60 30 -138 50t-168 20q-215 0 -347.5 -162t-132.5 -431 q0 -150 35 -262t101 -190q64 -77 154.5 -117.5t203.5 -40.5q84 0 167 12t140 36v385h-344v174h540v-650q-38 -17 -101.5 -43t-118.5 -41q-73 -22 -132 -33t-143 -11zM836 1677h-214v195h214v-195z" glyph-name="Gdot" horiz-adv-x="1367" unicode="Ġ"/><glyph d="M808 303v613q-70 34 -129.5 48.5t-118.5 14.5q-143 0 -225 -105t-82 -301q0 -186 62.5 -283t202.5 -97q73 0 150.5 29t139.5 81zM176 -179q19 -8 56 -21.5t84 -25.5q52 -13 96 -21t96 -8q87 0 147.5 23t94.5 64q32 41 45 95t13 123v98q-76 -66 -149 -97.5t-183 -31.5 q-191 0 -304 142t-113 408q0 139 39 246.5t105 182.5q63 72 149 111t178 39q87 0 150.5 -20.5t127.5 -58.5l11 48h177v-990q0 -284 -124 -417t-379 -133q-82 0 -167.5 13t-159.5 35v196h10zM659 1304h-214v195h214v-195z" glyph-name="gdot" horiz-adv-x="1132" unicode="ġ"/><glyph d="M774 -28q-158 0 -289 47.5t-225 145.5q-94 99 -144 245t-50 336q0 180 50.5 322.5t144.5 243.5q91 98 224 151t291 53q75 0 144 -11t132 -30q50 -15 111.5 -41.5t99.5 -45.5v-239h-17q-37 33 -76.5 62.5t-111.5 63.5q-60 30 -138 50t-168 20q-215 0 -347.5 -162 t-132.5 -431q0 -150 35 -262t101 -190q64 -77 154.5 -117.5t203.5 -40.5q84 0 167 12t140 36v385h-344v174h540v-650q-38 -17 -101 -41.5t-119 -41.5q-42 -13 -65 -18l-46 -10q0 -14 1.5 -33t1.5 -44q0 -162 -88 -248t-221 -86q-37 0 -87 6t-90 18v160h9q24 -11 63 -22.5 t79 -11.5q94 0 139 39.5t45 126.5q0 17 -0.5 36.5t-1.5 42.5h-6.5h-7.5z" glyph-name="Gcedilla" horiz-adv-x="1367" unicode="Ģ"/><glyph d="M808 303v613q-70 34 -129.5 48.5t-118.5 14.5q-143 0 -225 -105t-82 -301q0 -186 62.5 -283t202.5 -97q73 0 150.5 29t139.5 81zM176 -179q19 -8 56 -21.5t84 -25.5q52 -13 96 -21t96 -8q87 0 147.5 23t94.5 64q32 41 45 95t13 123v98q-76 -66 -149 -97.5t-183 -31.5 q-191 0 -304 142t-113 408q0 139 39 246.5t105 182.5q63 72 149 111t178 39q87 0 150.5 -20.5t127.5 -58.5l11 48h177v-990q0 -284 -124 -417t-379 -133q-82 0 -167.5 13t-159.5 35v196h10zM812 1676l-179 -374h-243l273 374h149z" glyph-name="gcedilla" horiz-adv-x="1132" unicode="ģ"/><glyph d="M1232 0h-198v729h-685v-729h-198v1489h198v-584h685v584h198v-1489zM1034 1670h-159l-185 256l-184 -256h-155l228 379h227z" glyph-name="Hcircumflex" horiz-adv-x="1383" unicode="Ĥ"/><glyph d="M1014 0h-188v636q0 77 -7.5 143.5t-28.5 106.5q-23 42 -64 62.5t-112 20.5q-70 0 -144.5 -37.5t-145.5 -97.5v-834h-188v1556h188v-563q84 75 166 115t173 40q165 0 258 -108.5t93 -314.5v-725zM940 1670h-159l-185 256l-184 -256h-155l228 379h227z" glyph-name="hcircumflex" horiz-adv-x="1142" unicode="ĥ"/><glyph d="M1273 0h-198v729h-685v-729h-198v1109h-168v140h168v240h198v-240h685v240h198v-240h168v-140h-168v-1109zM1075 905v204h-685v-204h685z" glyph-name="Hbar" horiz-adv-x="1465" unicode="Ħ"/><glyph d="M1055 0h-188v636q0 77 -7 143.5t-29 106.5q-23 42 -64 62.5t-112 20.5q-70 0 -144.5 -37.5t-145.5 -97.5v-834h-188l1 1268h-166v134h166l-1 154h188l1 -154h301v-134h-301l-1 -275q84 75 166 115t173 40q165 0 258 -108.5t93 -314.5v-725z" glyph-name="hbar" horiz-adv-x="1184" unicode="ħ"/><glyph d="M671 0h-578v152h190v1185h-190v152h578v-152h-190v-1185h190v-152zM755 1992q-7 -152 -67 -227.5t-158 -75.5q-52 0 -90.5 17.5t-75.5 56.5q-40 40 -71.5 62.5t-60.5 22.5q-46 0 -67.5 -45t-23.5 -121h-131q4 151 68.5 226.5t155.5 75.5q48 0 87.5 -18.5t77.5 -54.5 q43 -42 73.5 -61.5t59.5 -19.5q45 0 68 46t24 116h131z" glyph-name="Itilde" horiz-adv-x="764" unicode="Ĩ"/><glyph d="M328 0h-188v1117h188v-1117zM525 1596q0 -129 -48.5 -194t-128.5 -65q-40 0 -69 13t-59 45q-32 35 -54.5 52t-45.5 17q-35 0 -51.5 -34.5t-16.5 -99.5h-106q0 128 48.5 193.5t127.5 65.5q47 0 72 -13.5t57 -44.5q33 -35 55 -52t44 -17q36 0 52.5 36t16.5 98h106z" glyph-name="itilde" horiz-adv-x="468" unicode="ĩ"/><glyph d="M671 0h-578v152h190v1185h-190v152h578v-152h-190v-1185h190v-152zM709 1698h-654v154h654v-154z" glyph-name="Imacron" horiz-adv-x="764" unicode="Ī"/><glyph d="M328 0h-188v1117h188v-1117zM501 1335h-533v154h533v-154z" glyph-name="imacron" horiz-adv-x="468" unicode="ī"/><glyph d="M671 0h-578v152h190v1185h-190v152h578v-152h-190v-1185h190v-152zM681 2003q0 -168 -72.5 -271.5t-225.5 -103.5q-151 0 -225 103.5t-74 271.5h158q0 -135 33 -191.5t108 -56.5q71 0 105.5 53.5t34.5 194.5h158z" glyph-name="Ibreve" horiz-adv-x="764" unicode="Ĭ"/><glyph d="M328 0h-188v1117h188v-1117zM513 1611q0 -154 -69.5 -250t-209.5 -96q-138 0 -209 95t-71 251h146q0 -122 32.5 -175.5t101.5 -53.5q65 0 99 49t34 180h146z" glyph-name="ibreve" horiz-adv-x="468" unicode="ĭ"/><glyph d="M318 0h-225v152h190v1185h-190v152h578v-152h-190v-1185h190v-152h-194l-10.5 -48.5t-4.5 -58.5q0 -81 33 -121t121 -40q33 0 65.5 9.5t51.5 20.5h9v-158q-36 -10 -76.5 -15.5t-74.5 -5.5q-124 0 -206.5 75t-82.5 225q0 34 4.5 60.5t11.5 56.5z" glyph-name="Iogonek" horiz-adv-x="764" unicode="Į"/><glyph d="M535 -396q-36 -10 -76.5 -15.5t-74.5 -5.5q-123 0 -206 74t-83 226q0 63 18.5 118.5l26.5 80.5v1035h188v-1117h-60q-6 -26 -9.5 -53t-3.5 -54q0 -81 33 -121t121 -40q33 0 65.5 9.5t51.5 20.5h9v-158zM341 1304h-214v195h214v-195z" glyph-name="iogonek" horiz-adv-x="468" unicode="į"/><glyph d="M712 387q0 -196 -119.5 -302t-320.5 -106q-48 0 -128.5 8.5t-134.5 20.5v189h11q41 -14 101.5 -31t123.5 -17q92 0 146.5 21t80.5 60q27 40 34.5 98t7.5 134v869h-315v158h513v-1102zM811 1670h-159l-185 256l-184 -256h-155l228 379h227z" glyph-name="Jcircumflex" horiz-adv-x="853" unicode="Ĵ"/><glyph d="M441 -32q0 -191 -102.5 -291t-282.5 -100q-31 0 -69.5 3t-76.5 9v168h11q22 -5 48.5 -9.5t50.5 -4.5q75 0 123.5 18.5t72.5 58.5q22 36 29.5 91t7.5 134v916h-202v156h390v-1149zM575 1297h-151l-149 267l-148 -267h-147l184 379h227z" glyph-name="jcircumflex" horiz-adv-x="577" unicode="ĵ"/><glyph d="M1236 0h-257l-543 693l-87 -98v-595h-198v1489h198v-685l610 685h241l-616 -665zM758 20q1 -18 3.5 -45.5t2.5 -63.5q0 -162 -87 -248t-220 -86q-37 0 -87 6t-90 18v160h9q24 -11 63 -22.5t79 -11.5q94 0 134 39.5t40 126.5q0 26 -1 57t-3 70h157z" glyph-name="Kcedilla" horiz-adv-x="1204" unicode="Ķ"/><glyph d="M1062 0h-247l-417 539l-74 -72v-467h-188v1556h188v-911l442 472h234l-459 -467zM638 20q1 -18 3.5 -45.5t2.5 -63.5q0 -162 -87 -248t-220 -86q-37 0 -87 6t-90 18v160h9q24 -11 63 -22.5t79 -11.5q94 0 134 39.5t40 126.5q0 26 -1 57t-3 70h157z" glyph-name="kcedilla" horiz-adv-x="1020" unicode="ķ"/><glyph d="M1062 0h-247l-417 539l-74 -72v-467h-188v1117h188v-472l442 472h234l-459 -467z" glyph-name="kgreenlandic" horiz-adv-x="1020" unicode="ĸ"/><glyph d="M626 0h-475v1489h198v-1313h665v-176h-236l2.5 -36.5t1.5 -52.5q0 -162 -88 -248t-221 -86q-37 0 -87 6t-90 18v160h9q24 -11 63 -22.5t79 -11.5q94 0 138 39.5t44 126.5q0 21 -0.5 46.5t-2.5 60.5z" glyph-name="Lcedilla" horiz-adv-x="1019" unicode="Ļ"/><glyph d="M282 0h-142v1556h188v-1536h108q1 -18 3.5 -45.5t2.5 -63.5q0 -162 -87 -248t-220 -86q-37 0 -87 6t-90 18v160h9q24 -11 63 -22.5t79 -11.5q94 0 135 39.5t41 126.5q0 21 -0.5 46.5t-2.5 60.5z" glyph-name="lcedilla" horiz-adv-x="468" unicode="ļ"/><glyph d="M1216 0h-222l-658 1284v-1284h-185v1489h281l599 -1179v1179h185v-1489zM788 20q1 -18 3.5 -45.5t2.5 -63.5q0 -162 -87 -248t-220 -86q-37 0 -87 6t-90 18v160h9q24 -11 63 -22.5t79 -11.5q94 0 134 39.5t40 126.5q0 26 -1 57t-3 70h157z" glyph-name="Ncedilla" horiz-adv-x="1367" unicode="Ņ"/><glyph d="M1014 0h-188v636q0 77 -7.5 143.5t-28.5 106.5q-23 42 -64 62.5t-112 20.5q-70 0 -144.5 -37.5t-145.5 -97.5v-834h-188v1117h188v-124q84 75 166 115t173 40q165 0 258 -108.5t93 -314.5v-725zM696 20q1 -18 3.5 -45.5t2.5 -63.5q0 -162 -87 -248t-220 -86q-37 0 -87 6 t-90 18v160h9q24 -11 63 -22.5t79 -11.5q94 0 134 39.5t40 126.5q0 26 -1 57t-3 70h157z" glyph-name="ncedilla" horiz-adv-x="1142" unicode="ņ"/><glyph d="M1032 -11l-696 1295v-1284h-185v1489h281l599 -1118v1118h185v-1516q0 -191 -102 -293.5t-282 -102.5q-31 0 -69 3t-76 9v168h11q22 -5 48 -9t50 -4q143 0 189.5 61.5t46.5 183.5z" glyph-name="Eng" horiz-adv-x="1367" unicode="Ŋ"/><glyph d="M1014 -32q0 -191 -102 -291t-282 -100q-31 0 -69 3t-76 9v168h11q22 -5 48 -9.5t50 -4.5q76 0 124.5 19t71.5 57q22 38 29 91t7 139v587q0 77 -7.5 143.5t-28.5 106.5q-23 42 -64 62.5t-112 20.5q-70 0 -144.5 -37.5t-145.5 -97.5v-834h-188v1117h188v-124q84 75 166 115 t173 40q165 0 258 -108.5t93 -314.5v-757z" glyph-name="eng" horiz-adv-x="1142" unicode="ŋ"/><glyph d="M1204 1318q85 -98 132 -243t47 -331q0 -181 -46 -327t-133 -245q-91 -104 -212.5 -153.5t-267.5 -49.5q-151 0 -272 51t-208 152q-86 99 -132 244t-46 328q0 188 46.5 330t132.5 244q86 99 207.5 150.5t271.5 51.5q152 0 274 -53t206 -149zM1177 744q0 148 -32 262 t-90 189q-59 77 -142.5 115.5t-187.5 38.5q-108 0 -188.5 -37.5t-142.5 -116.5q-59 -76 -90.5 -191t-31.5 -260q0 -293 123 -448.5t330 -155.5t329.5 155.5t122.5 448.5zM1101 1698h-754v154h754v-154z" glyph-name="Omacron" horiz-adv-x="1449" unicode="Ō"/><glyph d="M1055 558q0 -282 -136 -435.5t-362 -153.5q-233 0 -366.5 158.5t-133.5 430.5q0 280 137.5 435t362.5 155q226 0 362 -154.5t136 -435.5zM861 558q0 217 -79 322.5t-225 105.5q-147 0 -226.5 -105.5t-79.5 -322.5q0 -210 79.5 -318.5t226.5 -108.5q145 0 224.5 106.5 t79.5 320.5zM933 1335h-754v154h754v-154z" glyph-name="omacron" horiz-adv-x="1112" unicode="ō"/><glyph d="M1204 1318q85 -98 132 -243t47 -331q0 -181 -46 -327t-133 -245q-91 -104 -212.5 -153.5t-267.5 -49.5q-151 0 -272 51t-208 152q-86 99 -132 244t-46 328q0 188 46.5 330t132.5 244q86 99 207.5 150.5t271.5 51.5q152 0 274 -53t206 -149zM1177 744q0 148 -32 262 t-90 189q-59 77 -142.5 115.5t-187.5 38.5q-108 0 -188.5 -37.5t-142.5 -116.5q-59 -76 -90.5 -191t-31.5 -260q0 -293 123 -448.5t330 -155.5t329.5 155.5t122.5 448.5zM1053 2009q0 -86 -21 -156.5t-60 -118.5q-45 -53 -102 -79.5t-146 -26.5q-82 0 -143.5 27.5 t-103.5 78.5q-41 50 -62 120t-21 155h162q0 -135 42 -194.5t126 -59.5q79 0 123 58.5t44 195.5h162z" glyph-name="Obreve" horiz-adv-x="1449" unicode="Ŏ"/><glyph d="M1055 558q0 -282 -136 -435.5t-362 -153.5q-233 0 -366.5 158.5t-133.5 430.5q0 280 137.5 435t362.5 155q226 0 362 -154.5t136 -435.5zM861 558q0 217 -79 322.5t-225 105.5q-147 0 -226.5 -105.5t-79.5 -322.5q0 -210 79.5 -318.5t226.5 -108.5q145 0 224.5 106.5 t79.5 320.5zM885 1636q0 -86 -21 -156.5t-60 -118.5q-45 -53 -102 -79.5t-146 -26.5q-82 0 -143.5 27.5t-103.5 78.5q-41 50 -62 120t-21 155h162q0 -135 42 -194.5t126 -59.5q79 0 123 58.5t44 195.5h162z" glyph-name="obreve" horiz-adv-x="1112" unicode="ŏ"/><glyph d="M1304 0h-257l-472 592h-226v-592h-198v1489h384q128 0 214.5 -14t164.5 -65q78 -50 123.5 -129t45.5 -196q0 -164 -83 -274t-226 -163zM876 1070q0 65 -23 115.5t-71 82.5q-42 28 -98 39.5t-139 11.5h-196v-562h174q85 0 153 15t116 62q43 42 63.5 100t20.5 136zM766 20 q1 -18 3.5 -45.5t2.5 -63.5q0 -162 -87 -248t-220 -86q-37 0 -87 6t-90 18v160h9q24 -11 63 -22.5t79 -11.5q94 0 134 39.5t40 126.5q0 26 -1 57t-3 70h157z" glyph-name="Rcedilla" horiz-adv-x="1271" unicode="Ŗ"/><glyph d="M728 915h-10q-21 6 -44.5 7.5t-56.5 1.5q-76 0 -151 -33t-142 -98v-773h132q1 -18 3.5 -45.5t2.5 -63.5q0 -162 -87 -248t-220 -86q-37 0 -87 6t-90 18v160h9q24 -11 63 -22.5t79 -11.5q94 0 135 39.5t41 126.5q0 21 -0.5 46.5t-2.5 60.5h-166v1117h188v-166 q59 51 146 108.5t182 57.5q29 0 43.5 -1.5t32.5 -4.5v-196z" glyph-name="rcedilla" horiz-adv-x="738" unicode="ŗ"/><glyph d="M566 -27q-162 0 -275.5 33.5t-213.5 82.5v248h14q98 -92 222 -142.5t239 -50.5q164 0 248 68.5t84 180.5q0 89 -44 145t-140 83q-69 20 -126 33t-143 35q-77 20 -138 51t-108 81q-46 49 -71.5 115.5t-25.5 153.5q0 181 141 303.5t360 122.5q125 0 236.5 -25t206.5 -71 v-237h-15q-71 65 -182 113.5t-233 48.5q-138 0 -223 -64.5t-85 -169.5q0 -95 50 -151t145 -82q63 -17 154 -38.5t151 -39.5q154 -47 225 -142t71 -234q0 -87 -35.5 -172t-99.5 -144q-72 -65 -162.5 -100t-226.5 -35zM931 1670h-159l-185 256l-184 -256h-155l228 379h227z" glyph-name="Scircumflex" horiz-adv-x="1141" unicode="Ŝ"/><glyph d="M438 -27q-112 0 -209.5 30t-161.5 64v211h10q24 -19 56.5 -42t86.5 -48q48 -22 105.5 -39t119.5 -17q45 0 96 10.5t76 26.5q35 23 50.5 49t15.5 78q0 67 -36.5 101t-129.5 57q-36 9 -94 21t-107 26q-128 37 -186 114.5t-58 187.5q0 151 114 246t303 95q93 0 187 -23 t158 -58v-201h-10q-72 57 -160.5 90t-178.5 33q-93 0 -157 -39t-64 -118q0 -70 38 -104.5t122 -56.5q42 -11 93.5 -21.5t108.5 -24.5q124 -31 186.5 -103t62.5 -196q0 -72 -28.5 -136.5t-83.5 -110.5q-60 -50 -135.5 -76t-189.5 -26zM826 1297h-159l-185 256l-184 -256h-155 l228 379h227z" glyph-name="scircumflex" horiz-adv-x="914" unicode="ŝ"/><glyph d="M1197 1313h-500v-430h317v-143h-317v-740h-198v740h-317v143h317v430h-500v176h1198v-176z" glyph-name="Tbar" horiz-adv-x="1196" unicode="Ŧ"/><glyph d="M484 -22q-154 0 -240 87.5t-86 276.5v191h-127v134h127v294h-127v156h127v321h188v-321h346v-156h-346v-294h271v-134h-271v-103q0 -85 3 -131t23 -86q17 -35 55 -52.5t103 -17.5q46 0 89 13.5t62 22.5h11v-169q-53 -15 -107.5 -23.5t-100.5 -8.5z" glyph-name="tbar" horiz-adv-x="695" unicode="ŧ"/><glyph d="M671 -31q-131 0 -229 34.5t-167 102.5q-78 78 -110 186.5t-32 267.5v929h198v-929q0 -103 13 -173.5t51 -126.5q40 -60 108.5 -91t167.5 -31q93 0 165 31t112 91q37 57 50.5 126t13.5 169v934h198v-929q0 -155 -31.5 -266t-110.5 -188q-71 -69 -165.5 -103t-231.5 -34z M1070 1995q-10 -156 -74.5 -234t-171.5 -78q-52 0 -96 19t-86 59q-44 41 -76 62.5t-63 21.5q-49 0 -68.5 -45t-23.5 -121h-140q7 154 76 232.5t169 78.5q51 0 94 -19.5t86 -57.5q43 -39 77.5 -59.5t63.5 -20.5q47 0 68.5 45t24.5 117h140z" glyph-name="Utilde" horiz-adv-x="1343" unicode="Ũ"/><glyph d="M1006 0h-188v124q-87 -76 -165 -115.5t-174 -39.5q-73 0 -137.5 24t-112.5 76t-74.5 131t-26.5 192v725h188v-636q0 -89 6.5 -147.5t29.5 -102.5q23 -43 62.5 -63t113.5 -20q69 0 147 39t143 96v834h188v-1117zM966 1632q-10 -156 -74.5 -234t-171.5 -78q-52 0 -96 19 t-86 59q-44 41 -76 62.5t-63 21.5q-49 0 -68.5 -45t-23.5 -121h-140q7 154 76 232.5t169 78.5q51 0 94 -19.5t86 -57.5q43 -39 77.5 -59.5t63.5 -20.5q47 0 68.5 45t24.5 117h140z" glyph-name="utilde" horiz-adv-x="1142" unicode="ũ"/><glyph d="M671 -31q-131 0 -229 34.5t-167 102.5q-78 78 -110 186.5t-32 267.5v929h198v-929q0 -103 13 -173.5t51 -126.5q40 -60 108.5 -91t167.5 -31q93 0 165 31t112 91q37 57 50.5 126t13.5 169v934h198v-929q0 -155 -31.5 -266t-110.5 -188q-71 -69 -165.5 -103t-231.5 -34z M1048 1698h-754v154h754v-154z" glyph-name="Umacron" horiz-adv-x="1343" unicode="Ū"/><glyph d="M1006 0h-188v124q-87 -76 -165 -115.5t-174 -39.5q-73 0 -137.5 24t-112.5 76t-74.5 131t-26.5 192v725h188v-636q0 -89 6.5 -147.5t29.5 -102.5q23 -43 62.5 -63t113.5 -20q69 0 147 39t143 96v834h188v-1117zM948 1335h-754v154h754v-154z" glyph-name="umacron" horiz-adv-x="1142" unicode="ū"/></font>
</defs>
</svg>
